<mxfile host="app.diagrams.net" agent="Mozilla/5.0 (X11; Linux x86_64) AppleWebKit/537.36 (KHTML, like Gecko) Chrome/135.0.0.0 Safari/537.36" version="26.0.14">
  <diagram name="Page-1" id="vRcWMePUMHAfugz9_YTz">
    <mxGraphModel dx="5785" dy="1965" grid="0" gridSize="10" guides="1" tooltips="1" connect="1" arrows="1" fold="1" page="1" pageScale="1" pageWidth="1100" pageHeight="850" background="#114B5F" math="0" shadow="0">
      <root>
        <mxCell id="0" />
        <mxCell id="1" parent="0" />
        <mxCell id="4ZC3k0Vkt_Njtrgb3o6p-95" value="" style="rounded=0;whiteSpace=wrap;html=1;fillColor=none;strokeColor=#FF6666;" vertex="1" parent="1">
          <mxGeometry x="-1237" y="1356" width="337" height="375" as="geometry" />
        </mxCell>
        <mxCell id="zNudf4SIR2VJdN1A_kgH-4" style="edgeStyle=orthogonalEdgeStyle;rounded=1;orthogonalLoop=1;jettySize=auto;html=1;endArrow=none;endFill=0;strokeWidth=3;jumpStyle=none;orthogonal=0;labelBackgroundColor=#114B5F;strokeColor=#028090;fontColor=#E4FDE1;" parent="1" source="zNudf4SIR2VJdN1A_kgH-1" target="Keg9QBFoEWpsP0gf0oNI-1" edge="1">
          <mxGeometry relative="1" as="geometry">
            <Array as="points">
              <mxPoint x="1199" y="552" />
              <mxPoint x="1141" y="552" />
              <mxPoint x="1141" y="445" />
              <mxPoint x="1168" y="445" />
            </Array>
            <mxPoint x="1130" y="445" as="targetPoint" />
          </mxGeometry>
        </mxCell>
        <mxCell id="IqyUsJUaqWypHduwfUQZ-7" style="edgeStyle=orthogonalEdgeStyle;curved=1;rounded=0;orthogonalLoop=1;jettySize=auto;html=1;endArrow=none;endFill=0;entryX=0.88;entryY=1;entryDx=0;entryDy=0;entryPerimeter=0;strokeWidth=3;labelBackgroundColor=#114B5F;strokeColor=#028090;fontColor=#E4FDE1;" parent="1" source="Keg9QBFoEWpsP0gf0oNI-1" target="IqyUsJUaqWypHduwfUQZ-5" edge="1">
          <mxGeometry relative="1" as="geometry" />
        </mxCell>
        <mxCell id="Keg9QBFoEWpsP0gf0oNI-1" value="Firewall" style="fontColor=#E4FDE1;verticalAlign=top;verticalLabelPosition=bottom;labelPosition=center;align=center;html=1;outlineConnect=0;fillColor=#F45B69;strokeColor=#028090;gradientDirection=north;strokeWidth=2;shape=mxgraph.networks.firewall;" parent="1" vertex="1">
          <mxGeometry x="1118" y="341" width="100" height="100" as="geometry" />
        </mxCell>
        <mxCell id="IqyUsJUaqWypHduwfUQZ-6" style="edgeStyle=orthogonalEdgeStyle;rounded=0;orthogonalLoop=1;jettySize=auto;html=1;endArrow=none;endFill=0;curved=1;entryX=0.14;entryY=1;entryDx=0;entryDy=0;entryPerimeter=0;strokeWidth=3;labelBackgroundColor=#114B5F;strokeColor=#028090;fontColor=#E4FDE1;" parent="1" target="IqyUsJUaqWypHduwfUQZ-5" edge="1">
          <mxGeometry relative="1" as="geometry">
            <mxPoint x="405" y="169" as="targetPoint" />
            <mxPoint x="217" y="397" as="sourcePoint" />
          </mxGeometry>
        </mxCell>
        <mxCell id="IqyUsJUaqWypHduwfUQZ-5" value="&lt;h2&gt;&lt;b&gt;&lt;br&gt;&lt;br&gt;The Internet&lt;/b&gt;&lt;/h2&gt;" style="html=1;outlineConnect=0;fillColor=#F45B69;strokeColor=#028090;gradientDirection=north;strokeWidth=2;shape=mxgraph.networks.cloud;fontColor=#E4FDE1;" parent="1" vertex="1">
          <mxGeometry x="353" y="221" width="170" height="100" as="geometry" />
        </mxCell>
        <mxCell id="7-mngesvJNaTBoxv83Yt-3" style="edgeStyle=orthogonalEdgeStyle;curved=1;rounded=0;orthogonalLoop=1;jettySize=auto;html=1;endArrow=none;endFill=0;exitX=1;exitY=0.5;exitDx=0;exitDy=0;exitPerimeter=0;comic=0;strokeWidth=3;labelBackgroundColor=#114B5F;strokeColor=#028090;fontColor=#E4FDE1;" parent="1" source="Keg9QBFoEWpsP0gf0oNI-1" target="7-mngesvJNaTBoxv83Yt-7" edge="1">
          <mxGeometry relative="1" as="geometry">
            <Array as="points">
              <mxPoint x="1429" y="391" />
            </Array>
            <mxPoint x="1228" y="401" as="sourcePoint" />
            <mxPoint x="1392" y="601" as="targetPoint" />
          </mxGeometry>
        </mxCell>
        <mxCell id="7-mngesvJNaTBoxv83Yt-16" style="edgeStyle=orthogonalEdgeStyle;curved=1;comic=0;orthogonalLoop=1;jettySize=auto;html=1;dashed=1;endArrow=none;endFill=0;strokeWidth=3;fillColor=#F45B69;strokeColor=#028090;flowAnimation=1;labelBackgroundColor=#114B5F;fontColor=#E4FDE1;" parent="1" source="7-mngesvJNaTBoxv83Yt-6" edge="1">
          <mxGeometry relative="1" as="geometry">
            <Array as="points">
              <mxPoint x="1369" y="630" />
              <mxPoint x="1369" y="193" />
            </Array>
            <mxPoint x="1343" y="193" as="targetPoint" />
          </mxGeometry>
        </mxCell>
        <mxCell id="zNudf4SIR2VJdN1A_kgH-2" style="edgeStyle=orthogonalEdgeStyle;rounded=1;orthogonalLoop=1;jettySize=auto;html=1;strokeColor=none;strokeWidth=3;labelBackgroundColor=#114B5F;fontColor=#E4FDE1;" parent="1" source="7-mngesvJNaTBoxv83Yt-6" target="zNudf4SIR2VJdN1A_kgH-1" edge="1">
          <mxGeometry relative="1" as="geometry" />
        </mxCell>
        <mxCell id="zNudf4SIR2VJdN1A_kgH-3" style="edgeStyle=orthogonalEdgeStyle;rounded=1;orthogonalLoop=1;jettySize=auto;html=1;strokeWidth=3;endArrow=none;endFill=0;labelBackgroundColor=#114B5F;strokeColor=#028090;fontColor=#E4FDE1;" parent="1" source="7-mngesvJNaTBoxv83Yt-6" target="zNudf4SIR2VJdN1A_kgH-1" edge="1">
          <mxGeometry relative="1" as="geometry" />
        </mxCell>
        <mxCell id="ZPLgsAKswXV2pwP5o9q--3" style="edgeStyle=orthogonalEdgeStyle;orthogonalLoop=1;jettySize=auto;html=1;strokeWidth=5;curved=1;fillColor=#F45B69;strokeColor=#028090;flowAnimation=1;labelBackgroundColor=#114B5F;fontColor=#E4FDE1;" parent="1" source="7-mngesvJNaTBoxv83Yt-6" target="7-mngesvJNaTBoxv83Yt-7" edge="1">
          <mxGeometry relative="1" as="geometry">
            <Array as="points">
              <mxPoint x="768" y="671" />
              <mxPoint x="768" y="863" />
              <mxPoint x="1606" y="863" />
              <mxPoint x="1606" y="671" />
            </Array>
          </mxGeometry>
        </mxCell>
        <mxCell id="7-mngesvJNaTBoxv83Yt-6" value="&lt;font style=&quot;font-size: 18px&quot;&gt;&lt;div&gt;Debian-lab-1&lt;/div&gt;&lt;div&gt;Local IP 192.168.40.139&lt;/div&gt;&lt;div&gt;&lt;span&gt;TailScale IP 100.102.68.99&lt;/span&gt;&lt;br&gt;&lt;/div&gt;&lt;/font&gt;" style="fontColor=#E4FDE1;verticalAlign=top;verticalLabelPosition=bottom;labelPosition=center;align=center;html=1;outlineConnect=0;fillColor=#F45B69;strokeColor=#028090;gradientDirection=north;strokeWidth=2;shape=mxgraph.networks.server;" parent="1" vertex="1">
          <mxGeometry x="932" y="621" width="90" height="100" as="geometry" />
        </mxCell>
        <mxCell id="7-mngesvJNaTBoxv83Yt-14" style="edgeStyle=orthogonalEdgeStyle;curved=1;comic=0;orthogonalLoop=1;jettySize=auto;html=1;dashed=1;endArrow=none;endFill=0;strokeWidth=3;fillColor=#F45B69;strokeColor=#028090;flowAnimation=1;entryX=1;entryY=0.5;entryDx=0;entryDy=0;labelBackgroundColor=#114B5F;fontColor=#E4FDE1;" parent="1" source="7-mngesvJNaTBoxv83Yt-7" edge="1">
          <mxGeometry relative="1" as="geometry">
            <Array as="points">
              <mxPoint x="1510" y="630" />
              <mxPoint x="1510" y="165" />
            </Array>
            <mxPoint x="1343" y="165" as="targetPoint" />
          </mxGeometry>
        </mxCell>
        <mxCell id="7-mngesvJNaTBoxv83Yt-7" value="&lt;font style=&quot;font-size: 18px&quot;&gt;&lt;div&gt;Debian-lab-2&lt;/div&gt;&lt;div&gt;Local IP 172.16.69.50&lt;/div&gt;&lt;div&gt;&lt;span&gt;TailScale IP 100.119.21.5&lt;/span&gt;&lt;br&gt;&lt;/div&gt;&lt;/font&gt;" style="fontColor=#E4FDE1;verticalAlign=top;verticalLabelPosition=bottom;labelPosition=center;align=center;html=1;outlineConnect=0;fillColor=#F45B69;strokeColor=#028090;gradientDirection=north;strokeWidth=2;shape=mxgraph.networks.server;" parent="1" vertex="1">
          <mxGeometry x="1389" y="621" width="90" height="100" as="geometry" />
        </mxCell>
        <mxCell id="7-mngesvJNaTBoxv83Yt-8" value="&lt;font style=&quot;font-size: 17px&quot;&gt;Tailscale&lt;br&gt;Coordination&lt;br&gt;Server&lt;br&gt;&lt;/font&gt;" style="rounded=1;whiteSpace=wrap;html=1;fillColor=#F45B69;strokeColor=#028090;fontColor=#E4FDE1;" parent="1" vertex="1">
          <mxGeometry x="1221" y="141" width="120" height="60" as="geometry" />
        </mxCell>
        <mxCell id="7-mngesvJNaTBoxv83Yt-11" style="edgeStyle=orthogonalEdgeStyle;comic=0;orthogonalLoop=1;jettySize=auto;html=1;flowAnimation=1;endArrow=none;endFill=0;curved=1;strokeWidth=7;fillColor=#F45B69;strokeColor=#028090;labelBackgroundColor=#114B5F;fontColor=#E4FDE1;" parent="1" source="7-mngesvJNaTBoxv83Yt-8" target="IqyUsJUaqWypHduwfUQZ-5" edge="1">
          <mxGeometry relative="1" as="geometry">
            <mxPoint x="685.0000000000002" y="223" as="sourcePoint" />
            <mxPoint x="541" y="235" as="targetPoint" />
          </mxGeometry>
        </mxCell>
        <mxCell id="zNudf4SIR2VJdN1A_kgH-1" value="&lt;font style=&quot;font-size: 17px&quot;&gt;Firewall&lt;br&gt;192.168.3.217&lt;/font&gt;" style="fontColor=#E4FDE1;verticalAlign=top;verticalLabelPosition=bottom;labelPosition=center;align=center;html=1;outlineConnect=0;fillColor=#F45B69;strokeColor=#028090;gradientDirection=north;strokeWidth=2;shape=mxgraph.networks.firewall;" parent="1" vertex="1">
          <mxGeometry x="1149" y="663" width="100" height="100" as="geometry" />
        </mxCell>
        <mxCell id="4ZC3k0Vkt_Njtrgb3o6p-3" value="" style="fontColor=#0066CC;verticalAlign=top;verticalLabelPosition=bottom;labelPosition=center;align=center;html=1;outlineConnect=0;fillColor=#CCCCCC;strokeColor=#6881B3;gradientColor=none;gradientDirection=north;strokeWidth=2;shape=mxgraph.networks.wireless_modem;" vertex="1" parent="1">
          <mxGeometry x="111" y="323" width="100" height="85" as="geometry" />
        </mxCell>
        <mxCell id="4ZC3k0Vkt_Njtrgb3o6p-4" value="PFSense" style="fontColor=#E4FDE1;verticalAlign=top;verticalLabelPosition=bottom;labelPosition=center;align=center;html=1;outlineConnect=0;fillColor=#F45B69;strokeColor=#028090;gradientDirection=north;strokeWidth=2;shape=mxgraph.networks.firewall;" vertex="1" parent="1">
          <mxGeometry x="-240" y="508" width="100" height="100" as="geometry" />
        </mxCell>
        <mxCell id="4ZC3k0Vkt_Njtrgb3o6p-9" value="" style="shape=image;verticalLabelPosition=bottom;labelBackgroundColor=default;verticalAlign=top;aspect=fixed;imageAspect=0;image=data:image/png,iVBORw0KGgoAAAANSUhEUgAAA6UAAANvCAYAAAAlUnyUAAAACXBIWXMAAA7EAAAOxAGVKw4bAAAgAElEQVR4nOzdf7Tdd13n+yeZTG5WV2+ms9e+XVl1306ttfayS+23llpqLZvaKW0DyI8yKIwCwgCCWFn6FZHLZWEHGf3oZRQUEcUKCvKrlNod0hhipsZYa+2JtY2Z3JqJmXOzMpnvOjdm5Wadyco93D/2rk3LSXJ+7P19f388H2vtlbQkZ7+Ak+z92p/P5/0BSZIkSZIkSZIkSZIkSZIkSZIkSZIkSZIkSZIkSZIkSZIkSZIkSZIkSZIkSZIkSZIkSZIkSZIkSZIkSZIkSZIkSZIkSZIkSZIkSZIkSZIkSZIkSZIkSZIkSZIkSZIkSZIkSZIkSZIkSZIkSZIkSZIkSZIkSZIkSZIkSZIkSZIkSZIkSZIkSZIkSZIkSZIkSZIkSZIkSZIkSZIkSZIkSZIkSZIk6bmeFx2gDbr5zAXA5cBlwKXAtwMbge5pjzXA+VEZJUmSpBKdBE4Ac6c9DgL/MP5xH7C3SNnRsIQqjaV0wrr5zPnADcD3AVePHxeHhpIkSZLq6RDwGPBXwKPAziJlx2IjadIspavUzWfWMiqhm4BbGJXQNaGhJEmSpGZaAHYD24Eho5J6KjaSVstSugLdfGYdcBvww8AdwIbYRJIkSVIrHQO2AF8AHihSdjI4j1bAUroM3XzmBuAtwJ1YRCVJkqQqOQbcC3yqSNmu6DBaOkvpOYzPiL4JeDtwZWwaSZIkSUuwF/gN4J4iZcejw+jsLKVn0M1nNgJ3Ae/EVVFJkiSpjo4BvwOkImWHo8NocZbS5xiX0Q8AbwPWBseRJEmStHrzjMrpLxUpm40Oo2ezlI5185kO8H5GK6Prg+NIkiRJmrx54OPAh70DtTpaX0rHV7q8Dbgb6ATHkSRJkjR9RxktSP1WkbKF6DBt1+pSOp6m+0kcYCRJkiS10W7gXU7rjdXKUjqeqPsR4Ceis0iSJEkK9+vA+53UG6N1pbSbz9wEfBa4ODqLJEmSpMo4ALzBVdPytaaUjs+Ofgj4OWBNcBxJkiRJ1bMA/CLwoSJlp6LDtEUrSmk3n7kI+ApwfXQWSZIkSZW3E3itd5uWo/GldLxd90vAhdFZJEmSJNXGEeA1Rcp2RgdpukZvY+3mM+8EvoGFVJIkSdLyXAj8aTef+bHoIE3X2FLazWd+FfgNYG10FkmSJEm1tBb43W4+k6KDNFnjtu9285l1wB8Cd0ZnkSRJktQYnwHe4gCkyWtUKe3mM+cBXwVujc4iSZIkqXE2MxqAdCI6SJM0ppR285nzgT8GBsFRJEmSJDXXDmCTxXRyGlFKxyukQyykkiRJkqZvB3B7kbL56CBNUPtBR+MzpF/BQipJkiSpHAPgC918pvZ9qgpq/T/i+Jvg88Bt0VkkSZIktcorgN+PDtEEtS6lwC8Br44OIUmSJKmV/m03n7k7OkTd1fZMaTefeQfwiegckiRJklrvjUXKPhMdoq5qWUq7+cwA+Ab1X+mVJEmSVH8nge8vUvZIdJA6ql0p7eYzFwEzwIXRWSRJkiRp7BCQFSk7Eh2kbmq10tjNZ9YymrRrIZUkSZJUJRcBn3ci7/LV7X+wu4Hro0NIkiRJ0iJuBn4uOkTd1Gb7bjefuRH4T9SvSEuSJElqjwXgRZ4vXbpalNJuPrMB+Fvg4ugskiRJknQO+4DvLlI2Hx2kDuqy6vhhLKSSJEmS6uFyRkcPtQSVXynt5jPXA38RnUOSJEmSlmEB+J4iZbujg1RdpVdKx9N2PxWdQ5IkSZKWaQ3wiegQdVDpUgq8DbgyOoQkSZIkrcD13Xzmx6JDVF1lt+9285kLgL8HOtFZJEmSJGmFDgPfUaTsRHSQqqrySukHsZBKkiRJqreNwM9Eh6iySq6UdvOZjcB/AdZHZ5EkSZKkVToB/KsiZUV0kCqq6krp+7CQSpIkSWqG84A8OkRVVW6ltJvPXAT8A7A2OoskSZIkTYirpWdQxZXSu7CQSpIkSWqW84B3RIeookqtlHbzmfOB/wpcEJ1FkiRJkibsCPC/Fik7GR2kSqq2UvpjWEglSZIkNdOFwOujQ1RN1Urp26MDSJIkSdIU2XmeozKltJvPXA88PzqHJEmSJE3R9d185sroEFVSmVIK/LvoAJIkSZJUArvPaSox6Kibz6wD/juwITqLJEmSJE3ZYeDbipQtRAepgqqslN6KhVSSJElSO2wEbo4OURVVKaWviw4gSZIkSSV6bXSAqggvpd18Zi3wiugckiRJklSil0UHqIrwUgrcgFt3JUmSJLXLRd185troEFVQhVJ6e3QASZIkSQpwW3SAKqhCKb01OoAkSZIkBfiB6ABVEHolTDefOR/4R6pRjiVJkiTVw3HgCHB0/Dj2nJ//P8D8+HH0tJ8fAxaAk8CJ077WqUWe40SRspPdfOaCRf6zNTxzBPF8YC2wDjjvtMf5wAXjn//P43/eMP7x/PG/Xwe8qO1Xw6wNfv7rsZBKkiRJGpXGg8Aso8I5C/y30/75CFAAc0XKTpYVqkjZ0TP8R3NlZWi66FJ6Q/DzS5IkSSrHKWA/sG/8498zKqEHgYNFyorAbAoUXUpfGPz8kiRJkiarAPaMH38HPAE8Bcy2fZuqFhddSq8Kfn5JkiRJK3OKUfHcDfzN+MfdRcrc1qplCRt01M1nNjAaciRJkiSp+vYCjwB/Of7x8TLPdqq5IldKnx/43JIkSZLObJ5R8dwJ/CdgV5Gy47GR1FSRpfTSwOeWJEmS9IyTwC7gG8A24DFXQVWWyFJ6SeBzS5IkSW23B9gMPMhoJfTEOX69NBWRpfQ7Ap9bkiRJapt5YDswBDYXKTsQG0caiSylGwOfW5IkSWqDE8ADwFcYFVHPhapyIktpN/C5JUmSpKaaB+4HPgts9Wyoqi6ylHYCn1uSJElqkgVGA4r+ELjXFVHViSulkiRJUn09Bfwu8JkiZYeiw0grEVlK1wU+tyRJklRXJ4EvAp8qUvZQdBhptSJL6XmBzy1JkiTVzX7gE8A9RcqK6DDSpESWUkmSJEnntgX4NUZDixaiw0iTZimVJEmSqmceuAf4tSJle4OzSFNlKZUkSZKqY47RqujHi5TNRYeRymAplSRJkuIdBBLw6SJlJ6LDSGWylEqSJElx9gN3A39QpOxUdBgpgqVUkiRJKp9lVBqzlEqSJEnlOQR8iNE2XcuohKVUkiRJKsMc8BFGA4zmo8NIVWIplSRJkqbnJPBx4O4iZUejw0hVZCmVJEmSpuPLwHuLlO2PDiJVmaVUkiRJmqzHgXcXKXsoOohUB2uiA0iSJEkNcRR4N/A9FlJp6VwplSRJklbvc8B7ipQdiQ4i1Y2lVJIkSVq5/cCPFynbGh1Eqiu370qSJEnLtwD8CvACC6m0Oq6USpIkScuzD3hjkbKHo4NITeBKqSRJkrR0vwJ8t4VUmhxXSiVJkqRzmwXe4FRdafJcKZUkSZLO7ouMzo5aSKUpcKVUkiRJWtwJ4F1Fyu6JDiI1maVUkiRJ+lZ7gNcWKdsTHURqOrfvSpIkSc/2GeCFFlKpHK6USpIkSSOngPcUKft4dBCpTSylkiRJEhwBXlOkbGd0EKltLKWSJElqu93ApiJlh6KDSG3kmVJJkiS12b3A91lIpTiulEqSJKmt/kORsvdFh5DazlIqSZKktlkAfrxI2W9HB5FkKZUkSVK7zAOvK1J2f3QQSSOWUkmSJLXFUeD2ImUPRweR9AxLqSRJktqgAF5SpOyJ6CCSns3pu5IkSWq6WeBFFlKpmlwplSRJUpPtB15cpGw2OoikxblSKkmSpKaykEo1YCmVJElSE1lIpZqwlEqSJKlpDmAhlWrDUipJkqQmOQT8awupVB+WUkmSJDVFwWiF9KnoIJKWzlIqSZKkJjgG/ICFVKofS6kkSZLqbh7YVKTs8eggkpbPUipJkqQ6WwBeW6RsZ3QQSStjKZUkSVKdvb1I2QPRISStnKVUkiRJdfWLRcp+JzqEpNWxlEqSJKmO/qBI2fujQ0haPUupJEmS6mYn8JboEJImw1IqSZKkOjkAvKpI2cnoIJImw1IqSZKkujjO6OqXIjqIpMmxlEqSJKku3lCkbE90CEmTZSmVJElSHfxCkbL7o0NImjxLqSRJkqrugSJlH4wOIWk6LKWSJEmqsqeAN0SHkDQ9llJJkiRV1Tzw2iJlx6KDSJoeS6kkSZKq6t1FynZHh5A0XZZSSZIkVdHnipT9TnQISdNnKZUkSVLV7AfeHh1CUjkspZIkSaqSU8DripQdjw4iqRyWUkmSJFXJ+4uUPRodQlJ5LKWSJEmqip3Ar0SHkFQuS6kkSZKq4DjwI0XKFqKDSCqXpVSSJElV8J4iZQeiQ0gqn6VUkiRJ0bZ5/YvUXpZSSZIkRToOvCU6hKQ4llJJkiRFyouUHYwOISmOpVSSJElRdhYp+63oEJJiWUolSZIU4RTw9ugQkuJZSiVJkhThl4uU7YkOISmepVSSJEll2w/cHR1CUjVYSiVJklS2u4qUzUeHkFQNllJJkiSVaXORsgeiQ0iqDkupJEmSynISeHd0CEnVYimVJElSWf5jkbL90SEkVYulVJIkSWUogA9Hh5BUPZZSSZIkleEDRcqORYeQVD2WUkmSJE3bXuB3okNIqiZLqSRJkqbtfUXKTkWHkFRNllJJkiRN08NFyu6LDiGpuiylkiRJmqb3RgeQVG2WUkmSJE3L1iJlD0WHkFRtllJJkiRNywejA0iqPkupJEmSpmFrkbKHo0NIqj5LqSRJkqbBVVJJS2IplSRJ0qRtd5VU0lJZSiVJkjRpd0cHkFQfllJJkiRN0iNFynZEh5BUH5ZSSZIkTdKHowNIqhdLqSRJkiZlH/BAdAhJ9WIplSRJ0qR8tEjZQnQISfViKZUkSdIkFMA90SEk1c/a6ACSJElqhI8VKZuPDiGdTa+TXwB0xo/zx4/14x+fdh5wEjgFLADHxv/+JKMPX+aAYnYuHS0pduNZSiVJkrRa88BvRodQu/U6+TrgcuAy4FLgO4CLgY1AD7iQCe4U7XXyBUYF9SCwH3gK+Pvxj4/NzqVjZ/ntOo2lVJIkSat1T5GyIjqE2mO84nktcB2QAVcxKqNlHk9cA3THj2sWyfgU8CjwV8BDjIqqZ64XYSmVJEnSan00OoCardfJLwRuBl4CDBitiFbdZePHD43/ea7XybcCDwJbZufS4bBkFfO8qCfu5jPfjHpuSZIkTcyWImW3R4dQ8/Q6+TXAq4A7WGQlsgF2Al8A7p+dSwejw0RypVSSJEmr4SqpJqbXya8Gfhi4k9G50Ca7cfz4WK+TPwK8ZHYunQjOFMJSKkmSpJXaW6Rsa3QI1Vuvk28A3gS8Gbg6Nk2Y64B1gKVUkiRJWoaPRQdQffU6+RXAXcCPMrqGRS1lKZUkSdJKHAM+Ex1C9TM+K/oB4JXRWVQNllJJkiStxKeLlB2PDqH66HXyK4GPAC+LzqJqsZRKkiRpJdy6qyUZX+fyS4zOjUrfwlIqSZKk5dpSpGx/dAhVW6+TrwXeCdwNbAiOowqzlEqSJGm5fiM6gKptvFX392nm/aKasDXRASRJklQrs8Dm6BCqrl4n/1ngr7GQaolcKZUkSdJyfLJI2UJ0CFVPr5N3gc8Ct0VnUb1YSiVJkrRUC8Cno0Ooenqd/CpgCPSis6h+3L4rSZKkpbqvSNmh6BCqll4nvxX4MyykWiFLqSRJkpbqk9EBVC29Tv56RiukTtfVirl9V5IkSUuxv0jZ1ugQqo5xIf0sLnRplfwGkiRJ0lJ8KjqAqqPXyV+NhVQT4jeRJEmSzmUB+Ex0CFVDr5PfBHweu4QmxG8kSZIkncsWBxwJoNfJnw/8MbAuOouaw1IqSZKkc/nd6ACK1+vkFzAqpA410kRZSiVJknQ2BfBAdAjF6nXyNcCXgEujs6h5LKWSJEk6mz8oUnYyOoTCfQi4JTqEmslSKkmSpLNx627LjQcb/Xx0DjWXpVSSJEln8miRsieiQyhOr5N3gD/E3qAp8ptLkiRJZ/L70QEU7mNALzqEms1SKkmSpMWcAv4oOoTi9Dr5HcDro3Oo+SylkiRJWsyWImVFdAjF6HXyDcCnonOoHSylkiRJWsxnowMo1N3ARdEh1A6WUkmSJD3XMeD+6BCK0evkVwI/EZ1D7WEplSRJ0nN9uUjZfHQIhfkN7Akqkd9skiRJei637rZUr5O/GrgpOofaxVIqSZKk080CD0WHUPl6nXwt8JHoHGofS6kkSZJO98UiZQvRIRTix4DLo0OofSylkiRJOt0XogOofL1Ovh74UHQOtZOlVJIkSU/bX6TskegQCvEOYGN0CLWTpVSSJElP+3J0AJVvvEr63ugcai9LqSRJkp72h9EBFMJVUoWylEqSJAlgX5Gyx6NDqFzjibs/HZ1D7WYplSRJEsAXowMoxL8BetEh1G6WUkmSJAF8PjqAQuTRASRLqSRJkvYVKdsTHULl6nXym4Gro3NIllJJkiTdGx1AIe6KDiCBpVSSJEnwpegAKlevk18MvCw6hwSWUkmSpLabLVL2WHQIle7t2AVUEX4jSpIktZtbd1um18nXAW+LziE9zVIqSZLUbm7dbZ9XAN3oENLTLKWSJEntVQC7okOodP8uOoB0OkupJElSe91XpGwhOoTK0+vkPeCW6BzS6SylkiRJ7fW16AAq3Y9iB1DF+A0pSZLUTvPAtugQKt2bowNIz2UplSRJaqdtRcrmo0OoPL1Ofi1wWXQO6bkspZIkSe3k1t32eUN0AGkxllJJkqR2eiA6gMrT6+RrgB+KziEtxlIqSZLUPo8WKTscHUKlGgAbo0NIi7GUSpIktc8fRwdQ6V4bHUA6E0upJElS+9wfHUDlGW/dfWV0DulMLKWSJEntcrhI2e7oECrVDbh1VxVmKZUkSWqXrdEBVLpXRQeQzsZSKkmS1C5fjw6g0t0ZHUA6G0upJElSeyzgSmmr9Dr5lcDF0Tmks7GUSpIktcejRcrmokOoVK+IDiCdi6VUkiSpPbZEB1DpXh4dQDoXS6kkSVJ7eJ60RXqdvAtcH51DOhdLqSRJUjscBR6JDqFS3REdQFoKS6kkSVI7bC1SthAdQqW6PTqAtBSWUkmSpHZw626L9Dr5GuDW6BzSUlhKJUmS2sGrYNrlOqATHUJaCkupJElS8z1RpOxQdAiVyq27qg1LqSRJUvNtjg6g0t0WHUBaKkupJElS8z0YHUDlGV8Fc110DmmpLKWSJEnNdhzYGR1CpXKVVLViKZUkSWq2HUXKTkaHUKk8T6pasZRKkiQ1m1fBtIhXwaiOLKWSJEnNtiU6gEp1DdCNDiEth6VUkiSpuZ4qUrY/OoRKdUd0AGm5LKWSJEnN5Spp+3ieVLVjKZUkSWouz5O2SK+Td/AqGNWQpVSSJKmZTgI7okOoVLfi+3vVkN+0kiRJzfRQkbIT0SFUKrfuqpYspZIkSc3k1t32uS06gLQSllJJkqRm2hodQOXpdfJrgAujc0grYSmVJElqntkiZU9Eh1CpvApGtWUplSRJah5XSdvH86SqLUupJElS8wyjA6g8vU5+AXB9dA5ppSylkiRJzbIAbI8OoVLdgu/rVWN+80qSJDXLriJlR6NDqFSbogNIq2EplSRJapYHowOodF4Fo1qzlEqSJDXL5ugAKk+vk18NbIzOIa2GpVSSJKk5CmB3dAiVylVS1Z6lVJIkqTm2FilbiA6hUnkVjGrPUipJktQcX48OoPL0OvkG4IboHNJqWUolSZKaY2t0AJXqFmBtdAhptSylkiRJzfBYkbIj0SFUKq+CUSNYSiVJkpphS3QAlc4hR2oES6kkSVIzeJ60RXqd/Ergougc0iRYSiVJkurvGPBwdAiVylVSNYalVJIkqf62FSk7FR1CpfI8qRrDUipJklR/bt1tkV4nPx+4MTqHNCmWUkmSpPrzKph28SoYNYqlVJIkqd72FCk7GB1Cpbo9OoA0SZZSSZKkenOVtH0ccqRGsZRKkiTV2zA6gMrT6+RXABdH55AmyVIqSZJUX/PAzugQKtUd0QGkSbOUSpIk1df2ImXz0SFUKq+CUeNYSiVJkurrwegAKk+vk5+HV8GogSylkiRJ9bU5OoBKdTOwLjqENGmWUkmSpHo6UKTsqegQKpVXwaiRLKWSJEn1tCU6gErnkCM1kqVUkiSpnr4eHUDl6XXyy4FLonNI02AplSRJqp9TwPboECqVq6RqLEupJElS/ewsUnY8OoRK5XlSNZalVJIkqX7cutsivU6+HrgpOoc0LZZSSZKk+nHIUbsMgPXRIaRpsZRKkiTVy+EiZY9Hh1CpNkUHkKbJUipJklQvrpK2j0OO1GiWUkmSpHrxPGmL9Dr5pcCl0TmkabKUSpIk1ccCsC06hErlKqkab210AEnSRJwAjowfBXAIOA4cA/5x/PPj41/39K8/eZavdz6j14h1wHmMBmysH//8XwAbnvPonvbwA09peh4pUjYXHUKl8ioYNZ6lVJLq4SiwF3gKOAj8A3Bg/PMDRcrm46I9Wzef6TAqpxcCPeAi4NvGP78YuATYGJVPqjm37rbI+CqYm6NzSNNmKZWkajkG7B4//hbYB+wtUnYkNNUyjFdx5hhlX1Q3n1nP6IzUJcBlwHcBzweuwMIqnY1DjtrlJrwKRi1gKZWkOCeAh8ePvwZ2FynbHxupHOOV3T3jx7N085kNjArq1cB3j3+8itHWYanN5oBHo0OoVF4Fo1awlEpSeQ4BO4A/B3YBjxcpWwhNVEFFyo7xTFkHoJvPrAEuB64DXjT+8Sp8HVO7bPXvjNa5NTqAVAZfzCVpeo4yKqHfALYVKdsbG6e+xm/E944fn4F/2gJ8PXAj8BLgBtzmpmZ7MDqAytPr5JcwOtIgNZ6lVJImazewGfhjRlMyXdWYkvEW4B3jx7/v5jNrgWsZrSy8lFFhdRKwmsTzpO1yW3QAqSyWUklanXlGdwZ+DdhcpOxQcJ7WKlJ2ime2/f5CN5+5gNHUytuBVzCaBizV1eNFyg5Hh1CpPE+q1rCUStLyHWO0GvoVYEuRsuPBebSIImVHgXuBe7v5zNsZrZz+IPBKRudTpTpxlbRFep18HV4FoxaxlErS0hwH7gO+wGjYyMngPFqG8TbqXePHe7v5zJXAG4B/w+hqGqnqvJ+0XW7EieNqEUupVut2wO1E9fcy4O7oEBU0D9zPqIhuHp9hVAMUKXsCeB/wvm4+cy3wRuD1QCc0mKbhXYw+jKi7J6IDqFSPA1l0iIr6GnBxdAhN1vOinribz3wz6rk1MQeKlH17dAitXjef+T3gTdE5KmQn8HvAl8fXk6gFuvnMOkYf0LyF0YARhyTV30ngXxYpOxEdRNJk9Dr5rwE/GZ1jSv7l7Fw6Gh0igiulWo3N0QE0MU74gwOMiuhnipQdiI2iCOMt2U+fQb0IeDvwNmBjaDCtxi4LqdQ4X6W5pbS1LKVaDc+3NEA3n7mK9r7pPsVoe+4nGd0j6vUtAmA8RfmD3XzmbkaDke5idMZL9TKMDiBp4nYyugf8guggmhxLqVbqJLA9OoQmoo2rpAeATwD3FCk7EpxFFTa+ZubLwJfHZ0/fC7wat/bWhRNrpYaZnUunep18M6M5AGoIS6lWaqdbohrj9ugAJdoKfIzR0CJXRbUsRcoeBV7bzWcuAX4aeCuwPjSUzmZ2PNBKUvN8FUtpo1hKtVJuiWqAbj5zPs3fkngC+DTwsSJl+6LDqP7GZ47f3c1nPsxogu/bsJxW0dboAJKmZgujXXvrooNoMtx+pJVyS1Qz3EJzP5w6DLwf+LYiZe+2kGrSipQdLlJ2F/DtwK8zukJI1eGHp1JDzc6l43iMrFEspVqJ2SJle6JDaCJeGh1gCvYyutLjXxUp+8UiZa0cra7ynFZOvwu4B3BreLwFYFt0CElT9dXoAJocS6lWwqtgmuOO6AATtBt4DdAvUvbp8fUeUmmKlB0sUvZm4AXAA9F5Wm6XdwxLjXd/dABNTlO37Wm6HowOoNXr5jNXABdH55iAR4APFilzS7kqYbyT5OXdfOYW4KPAlcGR2situ1LDzc6lw71O/ghwXXQWrZ4rpVquU7glqinqfhXMI8DtRcq+10KqKipStg3IgHcxulNP5fHvBKkdvhYdQJNhKdVyuSWqOep6FcxuYJNlVHVQpOxUkbLfBL4T+Ex0npY4UqRsd3QISaW4LzqAJsNSquX6enQArV43n1kP3BSdY5n2Aq8qUpYVKfNcs2qlSFlRpOyNwIsZfS9revywSmqJ2bm0B3gqOodWz1Kq5fLFvhkG1OdexVlG03RfUKTMT0RVa0XKHgK+G/gFRschNHmeJ5XaxYFHDWAp1XIcdktUY9Rh6+5RIAe+czxN1zfwaoQiZSeLlH0QeCHweHSehvEqGKl9PFfaAJZSLcfW6ACamCoPOToF/DrwHUXKfqVI2Xx0IGkaxh/yfQ/w7/Fu00l5pEjZXHQISaXaCfjnvuYspVoOt0Q1QDefuQS4PDrHGdwH/G9Fyu7yjaXaYDwI6QPA9wMHo/M0gHMPpJaZnUsLuIW39iylWqoFXCltiiqukj4OvLhI2auKlDmwQK1TpGwX8ALgj6Kz1JxzD6R2cgtvzVlKtVSPFCnznr1m2BQd4DRHGd3h+D3jATBSaxUpO1ak7IeBtwMno/PU0BzwaHQISSG2Ah73qTFLqZbKLVEN0M1n1jGavFsFv8Xo3OhvOsRIekaRst8GXgTsj85SM1uKlHk2V2qh2bl0Aoec1ZqlVEvlvZDNcCNwfnCGx4AXFin7cc+NSosrUvYYoyFI/t27dH54KrXbV6MDaOUspVqKOUZFQvUXeRXMMUZbdV9YpMwtdtI5jI9MvBz45egsNeHcA6ndHogOoJWzlGop3BLVHFFDjr7I6L7R3/R7SVq6ImULRcreC7wBz0udzWNFyo5Eh5AUZ3YuHQF2RefQylhKtRRuiWqAbj5zEXBlyU87C7y8SNnrfMMorWuXfpsAACAASURBVFyRss8BLwGK6CwV5TZnSeAU3tqylGop3BLVDGWvkn4c6BcpczuNNAFFyh7GAUhn8mB0AEmVcF90AK2MpVTn4pao5ijrKpingO8vUvbuImXHSnpOqRXG9/h+L159crqjuGVPEjA7l/YBe6NzaPkspToXt0Q1QDefWQPcXMJT/Trw3UXKdpbwXFIrFSkrgBcDO4KjVMU2z6pLOs390QG0fJZSnYtboprhBuCCKX79A4xWR+8qUnZiis8jCRj/OXspTpsE5x5IejbPldaQpVRn45ao5njpFL/2PcALXB2VylWk7CTwKuBz0VmCbYkOIKlSHgY8elYzllKdjVuimuOOKXzNOeA1RcreXKTs+BS+vqRzKFJ2CvgR2ltMHy9Sdig6hKTqmJ1LC7iFt3YspTobt0Q1QDefuRC4ZsJfdhujybr3TvjrSlqm8YeHbS2mrpJKWoxbeGvGUqqz8cW+GW6d4Nc6Bby3SNm/LlJ2eIJfV9IqnFZM27Y64IenkhazDXDGRY1YSnUmbolqjtsn9HX2Ay8qUvbLE/p6kiZoXExfC2yPzlKS44Bn2SV9i9m5NA9sjc6hpbOU6kxcJW2A8VUwk1gpvZfRVS/ejShV2Hj40Q/SjntMt43P1ErSYr4aHUBLZynVmbglqhmuAbqr+P2ngLuKlL3GYUZSPYz/rN4O7IvOMmW+Tkk6mwcAB3bWhKVUi3FLVHPctorfOwt8X5GyX59UGEnlKFJWMCqmRXSWKXJHj6Qzmp1Lc/h+tjYspVrMdrdENcZKz5PuALIiZY9MMIukEhUp289oK+/J6CxTsKdI2cHoEJIqzy28NWEp1WKG0QG0et185gLg+hX81v8T+IHxSoukGitStgt4Y3SOKXCAiaSlaNtE8tqylGoxbolqhltY3p/xeeANRcp+ejzFU1IDFCn7I+A/ROeYMD88lXROs3NpP7AnOofOzVKq59rrlqjG2LSMX3sYeHGRss9NK4ykUO+nOR84zgMPRYeQVBv3RQfQuVlK9VxNedOipV8Fsxv4Xs+PSs013v3ww4zuG6677eOrbyRpKTxXWgOWUj2XW6IaoJvPXAVctIRf+gCjCbuujksNV6TsKPAa6j/4yKtgJC3Z7Fx6FDgUnUNnZynV6eZxdHZTLOUqmN8GfrBI2Ylph5FUDUXKdgPvic6xSpujA0iqHQceVZylVKfbXqRsPjqEJuJcV8G8v0jZ2x1oJLVPkbLfBO6NzrFC+8dX3UjScnwtOoDOzlKq07klqgG6+cz5wI1n+I8XgDcXKfvFEiNJqp43A7PRIVbAVVJJK7EdOB4dQmdmKdXpHHLUDDcDaxf596eA1xYpu6fcOJKqpkjZMeBHonOsgHMPJC3b7Fw6ie9zK81SqqftL1L2VHQITcRiW3fngU1Fyuq6ZU/ShBUp2wH8x+gcy3ASr4KRtHJO4a0wS6me5pao5njukKOnC+nWiDCSKu19wN7oEEu0w8FsklZhM6NdY6ogS6me9mB0AK1eN5+5HLjktH/1dCHdHpNIUpWNh9u9OTrHEjn3QNKKzc6lo7jborIspYLRlihLSzOcvkpqIZV0TkXKHgY+Hp1jCTwPJmm1nMJbUZZSATzklqjGePo86Sng5RZSSUv0Pqo9jfdgkbK6bDOWVF33RQfQ4iylArdENUI3n1kPDBhd+/LaImXbYhNJqosiZceBu6JznIVzDySt2uxcOgg8Hp1D38pSKvDFvinWAT8MvKhImZ8ESlqW8XTuqg5E88NTSZPie6QKWuwuQ7WLW6IaYnzvoH/RSlqNdwFPMvqQqypO4dwDSZPzVeD/iA6hZ3OlVA6OkCQBML6vumpDj3aOtxdL0iQ8PzqAvpWlVG6JkiSd7m5gLjrEaYbRASQ1Q6+Tvx74bHQOfStLabudAhyGI0n6J0XKjgIfis5xmqqec5VUI71O/lZGhdT+U0H+n9Juu9wSJUlaxG8B+6NDAIeKlDkpU9Kq9Dr5O4BPYfepLP+PaTe3REmSvkWRspOMtvFGc+6BpFUZF9JPROfQ2VlK280Xe0nSmfwBED2d3bkHklbMQlofltL2OuyWKEnSmRQpO0Xs2dIFnHsgaYUspPViKW0vV0klSefyRWBf0HPvGg9dkqRl6XXyn8JCWiuW0vZyS5Qk6ayKlC0AHwl6el+nJC1br5P/HPDR6BxaHktpOy3giH1J0tJ8DpgNeF539EhalnEhjfogTatgKW2nh90SJUlaivEk3rJXHY4UKXus5OeUVGMW0nqzlLbTg9EBJEm18jtAmfdau0oqackspPVnKW2nzdEBJEn1UaTsGPDpEp/S86SSlqTXyX8eC2ntWUrbpwDcEiVJWq5fK+l5nHsgaUl6nfyXgA9H59DqWUrbZ8t4mqIkSUtWpGw/5ZTFR4uUzZXwPJJqbFxIfzY6hybDUto+nieVJK1UGff+eZ5U0llZSJvHUto+vthLklbqAeDwlJ9jOOWvL6nGLKTNZCltl0eLlBXRISRJ9VSk7BRwzxSfYg54dIpfX1KNWUiby1LaLq6SSpJW6/em+LW3OvdA0mJ6nfwTWEgby1LaLm6JkiStSpGyfcAjU/ryXgUj6VuMC+k7onNoeiyl7XGU6b2JkCS1y7RWS93RI+lZLKTtYCltD7dESZIm5V5G94lO0u4iZUcm/DUl1ZiFtD0spe3hlihJ0kSMy+O2CX/ZzRP+epJqzELaLmujA6g0ZVx4Lklqjy8At07w6/nhqSR6nXwNoyMCPxqdReVxpbQdHi9Sdig6hCSpUe5jclt4jwG7JvS1JNXUuJB+Fgtp61hK28EtUZKkiSpSNgc8NKEvt825B1K7nVZIXx+dReWzlLbDg9EBJEmN9LUJfR2vLJNazEIqS2nzHQd2RoeQJDXS/RP6Ol4FI7WUhVRgKW2DbUXKTkWHkCQ1T5Gy/cDeVX6ZJ5x7ILVTr5OvYzQ0zULacpbS5nOaoSRpmla7yuncA6mFxoX0K8Cd0VkUz1LafG6JkiRN02rnFvjhqdQypxXSl0VnUTVYSpttT5Gyg9EhJEmNtgM4ucLfexyvgpFaxUKqxVhKm21rdABJUrMVKZsHHl7hb99epGylhVZSzVhIdSaW0mZzxL4kqQw7Vvj7fJ2SWqLXyc/DQqozsJQ21wkmd6m5JEln86cr/H3u6JFaYFxIh1hIdQaW0uba4ZYoSVJJHmb550r3Fik7MIUskirktEI6CI6iCrOUNpfTDCVJpRifK310mb/N6fBSw1lItVSW0uby3jdJUpmWO+zID0+lBrOQajkspc20v0jZ/ugQkqRW+Ytl/Np5nHsgNZaFVMu1NjqApsJVUklS2ZZz3+j28ZZfSQ3T6+QbgD8BrovOovpwpbSZ3BIlSSpVkbJDwJEl/nJfp6QGspBqpSylzXOSld8XJ0nSaix12JFDjqSGsZBqNSylzbOjSNmJ6BCSpFZ6bAm/Zn+RsqemnkRSaSykWi1LafO4JUqSFGVmCb/GuQdSg1hINQkOOmoet0RJK9AfDDcAF/DMh3UXnOGXzo8fAMeBY0/u2HRyyvGkunh8Cb/mv/wv7/zza/+nL95/ioWFqQeakvnZubQ3OoTK0+vkl3Dm14U2Wwd8Erg6OojqzVLaLAeLlPkiKQH9wXAdcBlwMbBx/Pi28Y8XMXpzseG0x2qeax44BhwdPw4Dh4D/e/zjIWA/sP/JHZtOrea5pIrbz+hDm/Vn+gXPO/7/fnDdfVuOsLBwWXmxJu5+4AejQ6hUQ+D50SGkprKUNotbotQ6/cHwIkaf0F4JfCejInoZ0Csxxvrx48Jz/LqF/mC4H9gL7AOeZDQYZo9lVU1QpGyhm8/s5QyrJv/swH/d/8+37+zwzW/WuZDCqKCoJXqd/GIspNJUWUqb5cHoANI09QfDS4AbgBcCVzF649uJzLRMa3imNJ9uvj8YPsZoSMyfA9uf3LFpqVdrSFXzBM8tpd/8Jv985yO7/9m+v7+KZsyz2BodQKW6NTqA1HSW0uY4BWyLDiFNSn8wXANcC9wIfB+jMroxNNT0rGf03+8G4CcA+oPhE8B24BvA1id3bJo/82+XKuXvTv+H5/2P/3Fy3f0P7nveseNNOXO2b3YuHYgOoVJtig4gNZ2ltDl2Fik7Hh1CWo3+YHgxcAtw+/jHNg+VuHL8+EngRH8w3AJ8BXjgyR2bjoUmk85u39M/WfPfisPrvr4N/r+FKyMDTZgDBVuk18nXAjdH55CazlLaHF4Fo1rqD4bXAK8DXgFcERynqs4DXj1+nOwPhpuBTwFbntyxqbbjS9VYTwGs3f3kE2v/+m8uZzSds0l8vW2X61nlMDxJ52YpbQ4/uVVt9AfDG4HXAHdS7kCiJlgHvHL8mO0PhvcAn3pyx6aDoamkZ+xb98dbd685UjRlu+7p5oEd0SFUqtujA0htYClthkNFypZyN5wUZjyk6M3AjwKXhIZpjh7wvwM/3x8M/wj4yJM7Nj0RnEktV6TsRK+Td6NzTMlDs3PJ893tclt0AKkNLKXN4BRAVVJ/MDwP+CHgjcBNwXGabA3weuD14629dz+5Y9PDwZnUbvto5i4It+62SK+TXwhcE51DagNLaTN4X5oqZbwq+i7grbR7WFGEO4A7+oPhvUD+5I5N+6MDqZX20szhMB6VaRevgpFKYimtvwW8CkYV0R8MbwbuYjS0SLFeDbyiPxh+HPjQkzs2HY0OpFb5z9EBpuDg7FzaGx1CpXppdACpLZpwgXXbPVykzDebCtUfDF/ZHwz/itGdmhbS6lgL/BTwn/uD4Sujw6hVnooOMAWukrZIr5OvwfOkUmlcKa0/z7coRH8wXMtoeu4HgOcHx9HZXQh8tT8Yfhn48Sd3bCqiA6nxDkQHmIIHowOoVFcDTR3YJVWOK6X1tzk6gNqnPxjeCfwd8HkspHVyJ/B3/cHwjuggarymnWU+hUdl2sa/J6USWUrrrQB2R4dQe/QHw8F4m+6XgMui82hFusCwPxim/mDoa4CmYnxtypHoHBP08OxcOhYdQqXyPKlUIt+Q1NuWImUL0SHUfP3B8Mr+YPh14E+Ba6PzaCJ+BvhGfzDsRAdRYx2ODjBBHpVpkV4nvwC4ITqH1CaW0nrzRVJT1R8MN/QHw48Cf4MDH5poAPxlfzC8PDqIGqlJZ5cdctQuN+N7ZKlU/oGrt63RAdRc/cHw9Yyudfgp/LuiyS4D/rw/GLoCrkmbiw4wIUdm59Jj0SFUqtujA0ht4xvN+nqkSFmTPoVWRfQHwyv6g+GfAX8IbIzOo1J0gT8d3zMrTUpTSqkfALePO4OkkllK68utRJqo/mC4pj8Y/gyjrbo3RudR6c5nNADJYqpJaUop9ahMi/Q6+fOBXnQOqW0spfXli6Qmpj8YXgH8BZCAdcFxFGc98LX+YHhddBA1wj9GB5gQV0rbxVVSKYCltJ7mgEeiQ6gZ+oPhzzJaHbWICJ5ZMXX4kVbrRHSACXhsdi55VKZdPE8qBbCU1tM2r4LRavUHw439wfBPgF/C1VE9Wxf4en8w7EYHUa014V7PzdEBVJ5eJz8PuCk6h9RGltJ6cuuuVqU/GN4G/C1wS3QWVdalwJf6g+Ha6CCqrePRASbgwegAKtVN+CGtFMI3G/XkkCOtyLhgfAT4megsqoUBo3PG7wnOoXo6GR1glY4Bu6JDqFSbogNIbeVKaf3sLlJ2ODqE6me8FfNPsJBqeX6qPxi+LDqEaqnu23e3zc4lj8q0y63RAaS2spTWj6ukWrb+YHgt8NeMVr6k5fr9/mDonbVqm2F0AJWn18kvARzwJgWxlNaP50m1LP3B8E3AnwMXB0dRfXWA340OIZXMq2DaxatgpECW0no5judbtAz9wTABv4eDG7R6d/QHwx+KDqFaqfP23T2zc2k2OoRK5VUwUiBLab1sK1J2KjqEqq8/GK7vD4ZfwvOjmqyP9gfDDdEhVBt1Po/pUZkW6XXydcDN0TmkNrOU1ovnW3RO44FG3wDujM6ixtkIfCg6hFQCj8q0yw3A+dEhpDazlNaL51t0Vv3B8DLgLxm9wErT8JP9wfCq6BDSFM0DD0WHUKncuisFs5TWx54iZQejQ6i6+oPhlYwGGl0anUWNtga4OzqEaqGu7zG2z86lut+xquVxyJEUrK4vGG3k+RadUX8wvJ5RIb0wOota4RXj7znpbOp6/vjB6AAqT6+TbwTc/SEFs5TWh+dJtaj+YHgL8KfU9w2g6snVUjXV5ugAKpWrpFIFWErr4QSwMzqEqqc/GL6C0UCO9dFZ1Dq39AfDG6NDSBN2YHYuPRUdQqV6aXQASZbSuthepMzzLXqWcSH9CrA2Oota6z3RAVRpF0QHWAFXSVuk18nXALdG55BkKa0LR9PrWSykqohX9gfDS6JDqLLq+B7D86Ttci3QiQ4hqZ4vGG3kkCP9k/5geBsWUlXDGuBd0SFUWXU7534K2BYdQqXyPKlUEZbS6ttXpGx/dAhVQ38wHABfxUKq6nhrfzBcFx1ClVS374uds3PpRHQIlcr7SaWKsJRW39boAKqG/mB4NfA1HGqkarkAuCM6hCqpbiulHpVpkV4nvwC4LjqHpBFLafV5FYzoD4aXAX9C/d7kqR3eGB1AlfQvogMsk0dl2uVWfB8sVYZ/GKttHtgRHUKx+oPhRkaFtBudRTqDO/qDYR0nrWq66vQ9cXh2Lj0eHUKlcuuuVCGW0mp7qEjZfHQIxekPhuczmgZ5SXAU6WzWAa+MDqHKqdPODldJ28chR1KFWEqrzfMtLdYfDNcAnweuis4iLcHLowOocup01Yavty3S6+RXARujc0h6hqW02rzEu91+FXhZdAhpiW7pD4ZOhdbp6lJKF/AqmLZxlVSqGEtpdR0sUrYvOoRi9AfDtwE/FZ1DWoYNwI3RIVQpdTkH/8jsXJqLDqFSeZ5UqhhLaXW5StpS47tIfyM6h7QCL40OoEqpSyl1626L9Dr5efgBmlQ5ltLq8kWyhfqD4UXAFwC3QaqObogOoGrodfK11Gf7rkOO2uUWfI2VKsdSWk2ngO3RIVSu/mC4DvgKcGF0FmmFrvVcqcbqsko6BzwaHUKlckeHVEGW0mraWaTseHQIle6jwPXRIaRVOA+nRWvkougAS7Rtdi4tRIdQqe6IDiDpW1lKq2kYHUDl6g+GrwfeGZ1DmoDrogOoEupSSj0q0yK9Tn4Z3vstVZKltJq2RgdQefqD4WXAJ6NzSBPygugAqoRedIAl8jxpu3gVjFRRltLqOVSk7PHoECrH+Pzd54Hzo7NIE/L86ACqhG+LDrAEj8/OpcPRIVQqr4KRKspSWj1+atsuHwaujQ4hTdAV0QFUCXXYvuvrbYv0Ovk64OboHJIWZymtHs+3tER/MLwZ+NnoHNKEbewPhhdEh1C4S6IDLIGvt+1yE7A+OoSkxVlKq2UB2BYdQtPXHww3AL8fnUOakkujAyjcJdEBzuE4sCs6hErl1l2pwiyl1bKrSNnR6BAqxa9Sn0Eg0nJtjA6gOL1Ovga4ODrHOWyfnUsno0OoVLdGB5B0ZpbSankwOoCmrz8Y3gq8NTqHNEV+4NJuPWBtdIhzcOtui/Q6eQ+4MjqHpDOzlFbL5ugAmq7xtt3fjc4hTZkrpe1Wh+3bXr3WLq6SShVnKa2OI0XKHosOoalLuIqk5qvDdSCanqqX0n2zc2l/dAiValN0AElnZymtDj+1bbj+YHg98LboHFIJvHe33b4rOsA5+HrbIuMzzl4FI1WcpbQ6htEBND39wXAt8InoHFJJLKXtVvW7aj1P2i43AF5TJVWcpbQ6/OS22d4JXB0dQirJhugACnV5dICzOAnsiA6hUr00OoCkc7OUVsMjRcrmokNoOvqD4Ubgw9E5pBKdFx1AMcZbJS+LznEWD83OpRPRIVSq26IDSDo3S2k1bIkOoKlKuJ1R7bI+OoDCXEq1r4Nx626L9Dp5F7g2Ooekc7OUVoPnSRuqPxheC/zb6BySVJKq3wXph8Dt4lUwUk1YSuPNAY9Gh9DU/Gp0AEkqUZVL6ezsXNoTHUKluj06gKSlsZTG21qkbCE6hCavPxi+ErgpOocklegF0QHOwlXS9nGlVKoJS2k8z7c00PgKmBSdQ5JKVuWVUl9vW6TXya8BLozOIWlpLKXxvAqmmd5KtSdQStN0PDqAytfr5Ouo7nUwC8D26BAqlaukUo1YSmPtLlJ2ODqEJqs/GK4HPhCdQwp0NDqAQlxJdSfv7pqdS35ftsum6ACSls5SGmtzdABNxTuAi6JDSIGORQdQiKujA5zFg9EBVJ5eJ98AXB+dQ9LSWUpj+SLZMONV0vdG55CCWUrb6XuiA5yFHwK3y81Ud9Ve0iIspXGOAbuiQ2jifgLYGB1CCmYpbadrogOcQQHsjg6hUnkVjFQzltI424qUnYoOockZr5Lm0TmkCvjv0QFUrl4nXwNcFZ3jDLbOziWvXmuX26IDSFoeS2kcR9M3z5tw/LwEcCg6gEp3BXBedIgz8PW2RXqd/Arg4ugckpbHUhrHS7wbpD8YrsFVUulpltL2uSE6wFl49Vq7uEoq1ZClNMYTRcpmo0Noou4ELo0OIVWEpbR9vjc6wBk8NjuXjkSHUKk8TyrVkKU0hp/aNo8Td6Vn+KFb+1wXHeAM3JXUIr1Ovh64KTqHpOWzlMYYRgfQ5PQHwwHVnTople3okzs2HY8OofL0Ovn5wJXROc7Aq9faZQCsjw4hafkspeU7AeyMDqGJend0AKlCnooOoNJdSzXfT3j1Wvu4dVeqqSq+iDTd9iJlJ6NDaDL6g2EPeGV0DqlC9kYHUOmqOuRo++xc8uq1drk1OoCklbGUls+tu83y4/jnSDrd/xUdQKV7cXSAM/D1tkV6nfwSRlcTSaoh30yXz6ELDdEfDNcBb4vOIVXMvugAKk+vk68Bro/OcQYOFWwXV0mlGrOUlmtfkbID0SE0MXcC3egQUsW4fbddrgI2RIdYxJ7ZuXQwOoRK5XlSqcYspeVylbRZ3hIdQKqYU8Ce6BAq1Y3RAc7AVdIW6XXytcAt0TkkrZyltFxfjw6gyegPhpcAN0fnkCpmz5M7NjnIrV1eEh3gDHy9bZcbgPOjQ0haOUtpeeaBHdEhNDFvjg4gVdDu6AAq3U3RARYxDzwUHUKlcuuuVHOW0vLsKFI2Hx1Cq9cfDNcAb4rOIVXQX0cHUHl6nfwqqnmufsfsXPL1tl1uiw4gaXUspeVxK1FzDICLo0NIFeRKabtU9QiDr7ct0uvkFwJXR+eQtDqW0vI45Kg53hAdQKqgBeDR6BAqVVXPk/p62y6ukkoNYCktx4EiZd7d1wD9wXAt8OroHFIFPfbkjk0nokOoHOP7SQfRORZxYHYu+XrbLp4nlRrAUloOP7VtjtuAC6JDSBX0cHQAleo6qnk/qa+3LTL+cOTW6BySVs9SWg7PtzTH66IDSBX1Z9EBVKqqFgFfb9vlGqATHULS6llKp+8ksC06hFavPxiuB14RnUOqqJ3RAVSqKm6ZPAVsjw6hUt0RHUDSZFhKp29nkTLPWTXDbVRzu5oU7cCTOzYdig6hcvQ6+QWMtu9Wza7ZuXQ8OoRK9dLoAJImw1I6fW4lao4fjA4gVZS7QdrlZqr5/mEYHUDlGX84cn10DkmTUcUXlaZx6EID9AfDNcDLonNIFfVgdACVqopbdwG2RgdQqW7B97FSY/iHebpmi5Q9ER1CE3E90I0OIVWU5/japYrn+A7PzqXd0SFUqqp+OCJpBSyl0+Wnts3h1l1pcY89uWPTXHQIlaPXya8CLorOsQhfb9vntugAkibHUjpdnm9pDqfuSouzDLRLVYuA8xtapNfJr6SaH45IWiFL6fQs4PCPRugPhhcDV0TnkCrKMtAum6IDLGIBPxxpm6p+OCJphSyl07OrSNmx6BCaiFuiA0gVNYf3k7bGeNrpjf9/e/cfq0d133n8U8vyWpZleY8shLxHruVlHZZLkS+llLrUe9d1bONh06ShSZofLU2abtJuQ5rt2WygbIQiRMlsmiUpakhDtr/yo0pD0oTLguN1pq7rEkpdlvJQl0Yucme9Xu+zU8uyvNaVZe0fMw423Hv93Hvnme/MnPdLujJQA2812M/9zjlzjnXHLJ7Ni5Qt5HHhfVKgZxhKx4etu/3BPWjA7B4fZMkF6wg0Zqfa+X0Dp9xHxLuwSu18OAJgCdr44dIXbCXqgeoqmO3WHUBLfdM6AI16k3XAHNhCHpftklZYRwCoF0PpeJwcppOHrSNQiy3iKhhgNjNihSoa3oXlaudVMKckPWMdgUaxewnoIYbS8eAbtf5glRSY3f5BlpyxjkBjpiStsY6Yxd68SNlCHpc2PhwBsEQMpePBVqL++FfWAUBLfcU6AI1q613NT1kHoDnehU2SNll3AKgfQ2n9OJq+X7ZaBwAtNCPpj6wj0Kg3WgfMgZ1JcWGVFOgphtL6PTNMJzmavgcmpqavleSsO4AW2jvIEq68ioR34RZJ3rpjFi/kRXrcOgKN4n1SoKcYSuvHKml/cOQ8MLsvWAegUT9lHTAHVkkj4l1YIc55AHqLobR+3E/aHz9qHQC00DlJj1tHoFFt3brL+Q1xuVXSKusIAOPBUFqvQtKz1hGozS3WAUALfZ1Td+PhXbhR7TxY5qykg9YRaNRt1gEAxoehtF57h+kkR9P3wMTU9CpJm607gBZ61DoAjXqrdcAc9udFOmMdgUbttg4AMD4MpfViK1F/3CB+fQCvdkzSfusINOot1gFz4PM2It6F9ZKut+4AMD58010vDl3ojy3WAUAL/d4gS9gNEonq1N2N1h1z4PM2LqySAj3HUFqf54bp5EnrCNTmB60DgBZi625c3mEdMIejeZEetY5Ao3ifFOg5htL6PGEdgFqxUgpcbv8gS162jkAzvAvLJN1h3TEHPm8jUv23uMO6A8B4MZTWh/db+oVDjoDLfdo6AI3aLulq64g5PGUd+JSwDQAAIABJREFUgEbdLGmtdQSA8WIorcdpSU9bR6AeE1PTV0taY90BtEgu6RvWEWjUu6wD5jAjDtuKDVt3gQgwlNZj3zCdPG8dgdqwSgpc7mEOOIqHd2GV2rt192BepGetI9AoDjkCIsBQWo9p6wDUiqEUeMWMpM9ZR6BRPylplXXEHHhVJiLeBady+y6AnmMorcde6wDU6nXWAUCLfHGQJUPrCDTqZ60D5sFVMHHZaR0AoBkMpUv3wjCdzK0jUKsN1gFAi6TWAWiOd2G92nvS6fG8SF+wjkCjeJ8UiARD6dLx1LZ/vHUA0BKPD7LkResINOpO64B58HkbH94nBSLBULp0vN/SP+utA4CWeMA6AI17j3XAPPi8jYh3YYukq6w7ADSDoXRpzkg6aB2B2rFSCkgHB1lyyDoCzfEuTEnaZN0xhwuS9llHoFGskgIRYShdmv3DdHLGOgL1mZiavkrScusOoAVYJY3Pe60D5vF0XqSnrCPQKN4nBSLCULo0bCXqH2cdALTAs4MsecI6As3xLqxVeRVMWz1lHYDmeBdWS9pq3QGgOQylS8OhC/2z1joAaIF7rQPQuJ+RtNI6Yh48JInLDrFrCYgKQ+niHRmmky9bR6B2DKWI3aFBlvDALT7vtw6YRyHpsHUEGrXLOgBAsxhKF2+vdQDGYo11AGDsHusANMu7sE3StdYd83gyL9IL1hFoFIccAZFhKF28aesAjAUrpYhZNsiSzDoCjWvzKqnE+6RR8S5slrTRugNAsxhKF+ecpAPWERiLVdYBgKF/bx2AZnkXrpJ0h3XHFbCdPC6skgIRYihdnGyYTp6zjgCAGv3eIEt4by8+P692HyjzXF6kJ60j0CiuggEixFC6OFwFA6BPzkn6iHUEmuVdWC7pl6w7roBV0oh4F1ZKmrLuANA8htLF4Wh6AH3y8UGWHLeOQON+UtJ664gr4CFwXLap3VcTARgThtKFe3mYTn7XOgJjs8I6AGjYcUkPWkfAxC9bB1zBGUmHrCPQKLbuApFiKF04Vkn7bcY6AGjYXYMsOWsdgWZ5F7ZIutW64wr25UV63joCjeKQIyBSDKULx1aifjtjHQA0aO8gS/7IOgImunDSMp+3EfEubFC778sFMEYMpQszI2m/dQTGipVSxGJG7b+fEmPgXVgv6W3WHSPgkKO47LQOAGCHoXRhDg7TSba59dtp6wCgIR8bZMlR6wiY+GW1+xoYSTqSF+kx6wg0KrEOAGCHoXRhpq0DMHY8dEAMXpL0cesINM+7sFrS+6w7RrDXOgDNqa4n2m7dAcAOQ+nC8CHZf7l1ADBmFyS9Y5AlbFWP052S1lpHjICHwHHZKmmNdQQAOwylo8uH6eQL1hEYu6F1ADBmvz7IkmetI9C8ajWqCwccnZN0wDoCjdplHQDAFkPp6DhwIQKDLDkpiSsI0FcvSrrPOgJm3iJpo3XECA7kRXrOOgKN2mMdAMAWQ+noOJo+HietA4AxuCDpZ9m2G7WPWAeMiM/biHgXrpK0xboDgC2G0tGcl7TPOgKN4URS9NG9bNuNl3dhj6TrrTtGxM6kuHAVDACG0hEdGqaTXBUSj5esA4CaZZJ+3ToCpu6xDhjRsbxIj1hHoFG3WQcAsMdQOhq2EsXlb6wDgBoVKk/bvWAdAhvehSmVp5t2AaukEfEuLBMrpQDEUDoqPiTjwkop+uTnBlly3DoCpj5qHbAAPASOy42S1llHALDHUHplJ4bp5HPWEWgUV/+gL/7LIEu+YR0BO96FWyRNWXeM6Lyk/dYRaNRu6wAA7cBQemV7rQPQrEGWHBX3laL7DkgK1hEw16UrgA7lRcr5DXHhflIAkhhKRzFtHQATnFKKLjsu6acGWcKduxGrVkm79L4eW3cj4l1Yq+686wxgzBhK53dBXAUTqz+3DgAW6bykNw2yhPt20aVVUomdSbHZLr4PBVDhN4P5PTNMJwvrCJh42joAWKRfGmTJM9YRsNXBVdKTeZEeto5AoxLrAADtwVA6P7YSxeuApBnrCGCBfmOQJZ+1jkArPGgdsECsksanSw9NAIwZQ+n8uAomUoMsOScps+4AFuAb4mAj6Hv3km6z7lggHgJHxLtwnSRv3QGgPRhK51aIw25i95R1ADCiw5J+epAlF6xD0Ar3WwcsAiulceEqGACXYSid25PDdJJv8OL2hHUAMIJcUjLIkrPWIbDnXdij7p1o+mxepFzDFZfbrAMAtAtD6dzYShS5QZYckfSidQcwj6Gk1w+y5IR1COx5F5ZJesC6YxF4VSYi3oVV6t72cgBjxlA6N7YSQZK+YB0AzOG0pNuqhyeAJL1d0g3WEYvAQ+C4TElaYR0BoF0YSmd3eJhOcscfJOnL1gHALGZU3kXKe++QJHkXVkj6mHXHIpwSV3DFhq27AF6DoXR2vEsISdIgS46Kb5jQLhckvXWQJfutQ9Aq75O00TpiEfbnRcr5DXHhkCMAr8FQOjtOXcWlfss6AKicl/RTgyz5unUI2sO7sEbSvdYdizRtHYDmeBc2SbrGugNA+zCUvtYpSYesI9AqX1Z5oAxg6bykNw+y5DHrELTOvZLWWUcsEuc3xGWndQCAdmIofa19XAWDSw2yZEbSZ607ELWLA+k3rEPQLt6FjZI+YN2xSC/kRZpbR6BRvE8KYFYMpa/FKYCYzW+pHAyApjGQYj4PqLsnmbJKGpHqMK7t1h0A2omh9LW4Lw2vMciSXNLnrTsQnXOSEgZSzMa7cLOkt1l3LAEPgeOyVdJq6wgA7cRQerkXhunkcesItNb9YrUUzTkl6V8PsoTVJMzlIeuAJTgr6YB1BBrF1l0Ac2IovRxXwWBOgyw5Julz1h2IwnFJPzbIEq4jwqy8C++UdIt1xxJkeZHOWEegUVwFA2BODKWXYysRruQ+SWesI9BrRyT96CBLXrAOQTt5F1ZJetC6Y4n4vI2Id2G9pBusOwC0F0PpK86Iq2BwBYMsOaFyGy8wDvsl/cggS162DkGr3StpvXXEEnF+Q1y4CgbAvBhKX7F/mE6ylQij+A1JL1lHoHc+L+m2QZacsg5Be1VXwHzIumOJjuZF+l3rCDSK90kBzIuh9BXT1gHohure0rusO9ArHx5kyXuq/7aA+Xxa3b0C5iJWSSPiXVgmaYd1B4B2Yyh9BR+SGNkgS56U9EXrDnTeKUn/ZpAlH7cOQft5F/ZIut26owZPWQegUTdLctYRANqNobR0ZJhOHrOOQOf8sqQT1hHorBck/dAgSx63DkH7eRdWSnrYuqMGM5L2WUegUWzdBXBFDKUlVkmxYIMsKSS9y7oDnfRlST88yBLeq8Oo7pG00TqiBofyIj1rHYFGccgRgCtiKC1xND0WZZAl+yT9unUHOmNG0l2DLPnpQZbwjTlG4l3YJOk/WHfUhPMbIuJdcCq37wLAvBhKpXOSDlhHoNPukZRZR6D1jqjcrvsp6xB0zm+r+4cbXbTXOgCN2iG+1wQwAn6jKK+COWcdge4aZMkFSW+WdNS6Ba31GUmTgyx53joE3eJdeKek7dYdNTmRFym/BuLC+6QARsJQyimAqEH1fmkiqbBuQauclPQTgyx5/yBLePiFBam2Pn7SuqNGnN8Qn93WAQC6gaFUesI6AP0wyJIjKgdThg9I5ZVB/3KQJd+wDkFnpZLWWUfUiPMbIuJduEHS1dYdALoh9qH06DCd5PRL1GaQJU+LwTR2xyUlgyx5R7WCDiyYd2GbpHdbd9TognifNDaskgIYWexDKVuJULtBluwXg2msPqNydZQdGFi06k7SR607avZMXqSnrCPQKN4nBTCy2IdSthJhLKrBdJek09YtaMTTkn6weneU/82xVPdJusY6omZ83kbEu7Ba0q3WHQC6I+ahdEbSfusI9NcgSw5I+jFJuXULxuakpJ8bZMmPDLLksHUMus+7cJOkX7XuGAN2JsVlu6Tl1hEAuiPmofTgMJ3k8nqMVXUFyA9Lesa6BbU6J+njkv7FIEt+x7gFPeFdWK5y227fPpsLSc9aR6BRu6wDAHRL3z74FmLaOgBxGGTJcZUrpp+zbsGSXVD5v+M/H2TJh9mqi5rdLekG64gx2JsX6QXrCDRqj3UAgG6JeWsFW4nQmEGWzEh678TU9LclPSJptXESFu4xSR8ZZMlL1iHoH+/CFkn3WneMCfeBR8S7cI2kjdYdALol1pXSfJhOvmgdgfgMsuSLkiYk7bNuwUguSPoDSRODLHkzAynGodq2+7vq74NiHgLHhVVSAAvW1w/AK+G6BpgZZMkxSa+fmJq+U9JDktbYFmEWM5J+R9KDgyw5atyC/rtX/dy2K0nP50V6wjoCjeJ9UgALFutKKUfTw1x1QM7rJH1e5Yoc7J2Q9FFJ3z/Ikn/LQIpxq07b/TXrjjFilTQi1R272607AHRPjCul58VVMGiJQZackPSeianphyR9QtIO46RYHZL0aUl/NMiS89YxiEP1Dfzvq98PiHkIHJdbJa20jgDQPTEOpYeG6SQnZqJVqqtjXj8xNb1D0j2SpmyLojCU9EVJj1b//wea9qCka60jxuiMpIPWEWjUbdYBALopxqGUq2DQWoMs2Sdp38TU9C2SPiLpDcZJfTMj6XGVh8o8waoorHgXdkj6gHXHmO3Pi5RfY3HZbR0AoJtiHEr3WgcAVzLIkqcl/cTE1PRmSe+VdKekdaZR3XVO5WnHX5H0+CBLCuMeRM67sFblg5G+Y+tuRLwLXtJ11h0Auim2ofTEMJ18zjoCGFV1BUmYmJq+R9LtKgfUHYrv1+5CnVJ5wMrXVK6InjHuAS71iKT11hEN4JCjuLBKCmDRYvvGlg9IdNIgS2YkPSbpsYmpaafyHri3qhxQOVSiPMDsaUlPqdwN8ewgSzjRGK3jXbhT0lusOxrwUl6kL1tHoFG8Twpg0WIbStlKhM6rtp/+gaQ/mJiaXq3y+P0fVzmgxrJ16ozKIfSQpD+TdIjVULSdd2GzpIetOxrCQ+CIeBeWidPjASxBTEPpBfE+KXqmGsS+UX1pYmr6KpVD6g9LuknSFkmrzQLrcUbS89XXX6kcRl9gJRRd4l1YIelLklZZtzSEh8Bx2SppjXUEgO6KaSh9ephOnrKOAMZpkCUnJX25+tLE1PQylVdO3CjpddUfb66+2rbt95ik70o6Kulvqz9+bpAlL1tGATW5X+WvwxjMSDpgHYFG7bIOANBtMQ2lT1kHAE2rVhNfrL4uMzE1vUHlYSsbJF0t6Z9J8ipP+V0jae0lPy5mded09XXqkj8uJOWS/pekE5KOVz++XL03C/SOd2G3pF+17mhQlhfpWesINGqPdQCAbotpKH3COgBok0GWHFO5Ovn0KD9/Ymp6laQV1Z8u1+Xbgi/dhXCWARMoVddkfMG6o2E8BI6Id2Gd4tkFAGBMYhlKh5IOW0cAXTbIkrOSLl39GFq1AF1QHf7yJUnOuqVhHHIUF66CAbBky6wDGrJ3mE5yKAoAoEkfk3SrdUTD8rxIX/O6AHqN90kBLFksQymnAAIAGlO9R3q3dYcBVknjw0opgCWLZSjlQxIA0AjvwgbF9x7pRTwEjoh34UaVh+MBwJLEMJQeHqaTvPsGABi76j7Sryq+90il8j7wfdYRaBSrpABqEcNQyqm7AICmPCTpJusII4fyIj1tHYFG3WYdAKAfYhhK2UoEABg778LPSHqfdYchroKJiHdhjaSt1h0A+qHvQ+kpjXgHIwAAi1W9W/eIdYcxdibFZYf6/30kgIb0/TcTroIBAIyVd2GdpK9JWmndYmgo6TnrCDSKq2AA1KbvQylbdwEAY+NdWC7pK5I2WLcYezIvUh4Cx2WPdQCA/uj7ULrXOgAA0GufkDRlHdECvE8aEe/CtZK8dQeA/ujzUPr8MJ08bh0BAOgn78Kdkj5g3dES3AceF66CAVCrPg+lfEACAMbCu7BVHGx00eG8SLkPPC5cBQOgVn0eSnmfFABQO+/CBpUHG62wbmkJHgJHxLuwUtI26w4A/dLXofSMpIPWEQCAfvEurJL0x5Kusm5pER4Cx2VKcZ80DWAM+jqU7humk+etIwAA/eFdWCbpS5K2WLe0yGlxH3hs2LoLoHZ9HUp5agsAqFsq6Q3WES2zLy9SHgLHhUOOANSur0Mp77cAAGrjXXifpA9Zd7QQD4Ej4l3YKGmzdQeA/unjUHpkmE4es44AAPSDd2G3pIetO1qK+8DjwiopgLHo41DKKikAoBbehRskfUX9/LxcqhfzIuUhcFx4nxTAWPTxQ3baOgAA0H3eBa9ye+pq65aWYpU0It6F5ZK2W3cA6Ke+DaXnJB2wjgAAdJt3Ya2kpyStt25pMR4Cx+VW8YAGwJj0bSjdP0wnZ6wjAADd5V1YIembkq6zbmmxc+I+8Njssg4A0F99G0o5BRAAsGjVXaRfULkqhLntz4v0nHUEGsUhRwDGpm9D6RPWAQCATntY0h3WER3wlHUAmuNduFrSFusOAP3Vp6H06DCdPGodAQDoJu/CfZLeZ93REZx0H5ed1gEA+q1PQymrpACARfEu/DtJ/8m6oyNezov0JesINIqrYACMVZ+GUt4nBQAsmHfh7ZI+bd3RIaySRqR6z5qVUgBj1ZehdEZSZh0BAOgW78IbJP2udUfH8BA4LjdJctYRAPqtL0NpNkwnz1pHAAC6w7uwXdJXJS23bumQ85L2W0egUZy6C2Ds+jKUcgogAGBk3oWtkqbFQLpQB/MiPWMdgUbxPimAsevLUMohRwCAkXgXbla5BXWldUsHsXU3It6FtZJutu4A0H99GEqPDdPJI9YRAID28y5cr3J3zRrrlo7ikKO47FA/vlcE0HJ9+I2GD0gAwBVVA+m3Ja21bumoE3mRPm8dgUYl1gEA4tCHoZStRACAeV0ykK6zbumwvdYBaBxXwQBoRNeH0vOS9llHAADai4G0NjwEjoh34QZJ6607AMSh60PpwWE6ySmAAIBZMZDW5oJYKY0Nq6QAGtP1oZSntgCAWTGQ1urZvEgL6wg0iqtgADSm60MphxwBAF7Du3CTGEjrxOdtRLwLqyTdat0BIB5dvjT8xDCd5BRAAMBlqntIvyWufakTO5Pisl3SCusIAPHo8kopT20BAJfxLmyX9N/FQFqnQtIz1hFoFFt3ATSqy0PptHUAAKA9vAt7VH42rLZu6Zl9eZFesI5Ao3ZbBwCIS1eH0gviKhgAQMW7cIekP5a00rqlh9i6GxHvwiZJm6w7AMSlq0Pp08N08pR1BADAnnfh3ZL+UN0+J6HNuAomLnusAwDEp6tDKU9tAQDyLtwt6VF19/Os7Z7Pi/S4dQQatcs6AEB8uvpUmUOOACBy3oVPSvqgdUfP8XkbEe/CCpUn7wJAo7o4lA4lHbaOAADYqL5xflTSO61bIvCUdQAadaukVdYRAOLTxaH0yWE6ySmAABAh78IaSV+VtMO6JQJnJR20jkCjEusAAHHq4lDKU1sAiJB3Yb3KMwVusG6JxP68SGesI9CondYBAOLUxaGU91sAIDLehetUPpT01i0R4VDBiFQPfa637gAQn4mp6W1dO63wmWE6ObSOAAA0x7uwQ9Kfi4G0aTwEjstu6wAA8ZmYmr5e0je7NpRyVxoARMS78AsqV+zWWLdE5rt5kR61jkCjbrMOABCXianpDSp3Qa3p2vbdaesAAMD4eReWSfqEuPLFCqukEal+vXF4GIDGTExNO5UD6XqpW++UFpKesY4AAIyXd2G1pD+UtMe6JWK8TxqXWySttY4AEIeJqekVKhcbr73417q0fXcfV8EAQL95FzZJ+o4YSC3NSMqsI9Aotu4CaMwgS2YkPXfpX+vSUMpT28h4Fz7oXfg170KXVvQBLFJ1oNFfSrrOuiVyB/MiPWsdgUZxFQyARg2y5P2SPnPxz7s0lPJ+S0Sqo+k/Keljku4wzgEwZt6FD6p8t4QthPY4vyEi3oV1km627gAQn2ow/ZTUnXdKnx+mkyesI9CoS4+mD5K+bBUCYHy8C6skPSLpndYt+B5Ouo8LBxwBMDPIkrsmpqbPdWWl9AnrADQuueSPb6y29QHoEe/CNSrfH2UgbY88L9IXrCPQKN4nBWBqkCUf7spQyvukEaneIX31EHqvRQuA8fAu3K7y/dHrrVtwGVZJ47P7yj8FAMarC0PpGUmHrCPQqFskrXnVX9vmXZgyaAFQI+/CMu/C/ZK+qdf+Ooc9HgJHxLuwRdJV1h0A0IWhdN8wnTxvHYFGzbWV6MFGKwDUqjrA7NuS7rZuwawuSNpnHYFGsUoKoBW6MJRyCmB85rqf8OZqyx+AjvEu7JT0PyRts27BnJ7Oi/SUdQQaxfukAFqhC0Mp77dExLtwtaQt8/yUT3oXVjTVA2BpvAvLvQsPqLzuZZ11D+bF1t2IeBdWS9pq3QEAUvuH0heH6eQx6wg06kpbia6R9IEmQgAsjXdhk6Q/lfQfrVswEu4Dj8sOdedqQAA91/ahlA/I+Iyyleij3gUOZgBazLvwTpXbdW+xbsFICkmHrSPQKLbuAmiNtj8hYytRRLwLyzTaJd6rJX1a0lvHWwRgobwLayQ9Iult1i1YkCfzIr1gHYFGccgRgNZo80rpWUkHrCPQqJsluRF/7lu8C28cZwyAhamubfprMZB20VPWAWiOd2GzpA3WHQBwUZuH0v3DdHLGOgKNShb48x/2LqwdSwmAkXkXVnoXHlJ53Qvf6HYTr8vEZa5T7gHARJuHUp7axmehH5LrJf3WOEIAjMa7cJPKd0c5gKy7nsuL9KR1BBq1yzoAAC7V5qH0CesANKc6uOjGRfytb/Mu3FlzDoAr8C6s8C7cL+k7kjZb92BJ+LyNiHdhpaQp6w4AuFRbh9LvDtPJo9YRaNTOJfy9D3sXrqmtBMC8vAu3qHx39G6193MEo2NnUly2SVppHQEAl2rrNxO82xKfpRxNv0rS17wLq+qKAfBa3oVV3oVPSvozsTraF2ckHbKOQKO4CgZA67R1KJ22DkBzqqtglno0/fWSfreGHACz8C7slDSQ9EG197MDC7cvL9Lz1hFoFFfBAGidNn5jMSMps45Ao27S6FfBzOcO78LdNfxzAFS8C1d5F76kcovnRuMc1I/7wCPiXdgg6VrrDgB4tTYOpdkwnTxnHYFGLfQqmPnc7114S43/PCBa3oWfl/S34t7RPuN1mbiwSgqgldo4lPLUNj51f0h+wbuwveZ/JhAN78IW78KfS/ptSdwF3F9H8iI9Zh2BRvE+KYBWauNQylPbiHgXnMrtu3VarvLgoy01/3OBXvMurPUuPCzpLyXdYt2DsePzNiLeheWSdlh3AMBs2jaUHhumk0esI9ConRrPf4drJH3Lu3D9GP7ZQK94F5ZVW3X/TtIvqn2fDRgPdibFZauk1dYRADCbtn3jwQXe8anzfdJXWyfp2wymwNy8C1OS/krlVt11tjVo0DlJB6wj0Khd1gEAMJe2DaU8tY1ITVfBXMnFwbTuLcJAp3kXNnoXviLp25JusO5B47K8SDlUMC57rAMAYC5tGkrPS9pvHYFG3ahmVmbWSfqT6p5FIGrVe6OfUHmq7h3WPTDzlHUAmuNduEoS5ywAaK02DaUHh+nkGesINKrJo+lXSZr2Lry9wX8n0BrehRXehQ9J+ntJH5K0wjgJtnhdJi5cBQOg1ZZbB1xi2joAjWv6aPrlKq+LmZB0b16kFxr+9wONq7bJv13S/ZI2GOegHY7lRfqSdQQaxfukAFqtTSule60D0BzvwlrZXTlxt6Q/9i6sMfr3A43wLrxR0l9L+n0xkOIVXAUTkerBFK+vAGi1tgylx4fp5PPWEWjUuK6CGdXtkv7Cu8ABL+gd78Ju78JfSPqapOuse9A6HCoYl6bObwCARWvLUMpT2/iM8yqYUW1WOZj+onUIUAfvwk7vwp+oHDo4cRqz4VDB+PA+KYDWa8s7pTy1jU9bPiRXSHrYu7BL0nvzIj1pHQQslHdht6T7JN1s3YLWO5QX6WnrCDSq6fMbAGDB2rBSekHSPusINMe7sEXSVdYdr/IGSX/D6bzoEu/C7d6F76h8sMdAilHwEDgixuc3AMDI2rBSemiYTp6yjkCj2rJK+mpO5em8Py3pl/IiPWYdBLyad2G5pLdJ+oh4XxQLx+sycdmhdixAAMC82jCUcoF3fNrwPul8bpe0w7vwgKSP50V6zjoI8C6skvRuSUGcpIvFOZkX6XPWEWgUW3cBdEIbnp5xgXdEqq1EW607RrBS5Tt6f+NduMM6BvHyLqyvHpD8g6RPi4EUi8cqaXy4CgZAJ1ivlA6H6eRh4wY0q2tbiTZK+op34bCkj+RFyn26aIR34SZJvyLpLbL/vRr9wPukEfEuXC/JW3cAwCisv9HhqW18urqV6EZJT3kXDkj6WF6kHM6F2nkXVqocQt8vDidB/fh9Ky6skgLoDOuhdNr434/mtfWQo1Ftk/Qt78Kzkh6Q9PW8SC8YN6HjvAvXqBxE3y1prXEO+unZvEiH1hFoVNvPbwCA77EeSnlqGxHvwg2S1lt31OQmSV+VdNS78LCk38mLtDBuQodUBxfdIek9Kh92AOPEzqSIVL+/3GrdAQCjshxKnxmmkzy1jUvXV0lns0nSJyTd7134oqRH8iJ9xrgJLeZduFXSz6ncprvaOAfx4H3SuExJWmEdAQCjshxKeWobnz5vJVqpcuvlu70LRyT9V0m/lxfpCdsstEF14Mg7VN4vutG2BhE6Jelp6wg0qqvnNwCIlOVQylPbiHgXVqsbV8HU4VpJD0p6wLuwT9KXJD2WF+lp2yw0ybuwWeX23HdIus44B3E7KukN3gXrDjTndusAAFgI0+27hv9uNG+H7N9hbtoylacf7pT0iHfhcZXvoT7OgNpP3oUbJb1J0k+KQRTtcaOkr1lHAAAwl++zDkAcvAuPSPoF646WmJGU6ZUB9bhtDharusJlSuXW9DdI2mAaBAAAuuyF2hhAAAALR0lEQVSf5kV6yjrCQmwrV7CzxzqgRVbolRVUeReel/S4yi3th7hipt2q61t2q3xna7vK94kBAACwSKyUYuyqQ17+2rqjI05LOiDpW5L250X6gnFP9LwL61UOn6+vfvS2RQAAoKdYKQXGqI9XwYzLGpUHVNwuSd6FoaSDkv60+vFwXqTn7fL6z7twrcr7/X5M5eFc19gWAQAA9BtDKZrA0fSLt07SG6svSTrnXXhO5UFh36l+PMqW38WpVkFvkvRDKg+DuUWSM40CAACIDNt3MVbehVWS/lFc4j1OZyS9IOk5SX8l6UVJL+ZFWphWtYh3YbnK03Cvl/QD1Y83Slpv2QUAAHAJtu8CY7JDDKTjtlrlCt8tl/5F78JJSUeqr79TeVfhd1WurJ5pOrIJ3oWrJW1WueX2ddUfX/zi9zsAAIAW4ps0jBtbd+1cVX1te/X/wbtQSMolHau+/kHSSUnHqx9PSBrmRTrTWO08qpXOq1SubF78cb2k71d5DcsGSRvFAxAAAIDOYSjFuHEVTDu56uuG+X6Sd+GspKL6OlV9nXnV1/+TdE7l/atnL/nbz1VfF63U5denXPzzNZL+icoV39XVnztJa6uvi38MAACAHmIoxdhUp5husO7AkqyqvrgGBQAAAGOxzDoAvcZVMAAAAADmxVCKceJ9UgAAAADzYijFWFRXwUxZdwAAAABoN4ZSjMt2cRIqAAAAgCtgKMW4sHUXAAAAwBUxlGJcOOQIAAAAwBUxlKJ23oVrJG2y7gAAAADQfgylGIc91gEAAAAAuoGhFOPA+6QAAAAARsJQilp5F1aKq2AAAAAAjIihFHWbkrTSOgIAAABANzCUom5s3QUAAAAwMoZS1I2rYAAAAACMjKEUtfEubJK02boDAAAAQHcwlKJOXAUDAAAAYEEYSlGnXdYBAAAAALqFoRS18C6skLTdugMAAABAtzCUoi7bJK2yjgAAAADQLQylqEtiHQAAAACgexhKUReuggEAAACwYAylWDLvwkZJ11p3AAAAAOgehlLUYad1AAAAAIBuYihFHXifFAAAAMCiMJRiSbgKBgAAAMBSMJRiqW6VtNo6AgAAAEA3MZRiqdi6CwAAAGDRGEqxVBxyBAAAAGDRGEqxaN4FL+l66w4AAAAA3cVQiqXYbR0AAAAAoNsYSrEUvE8KAAAAYEkYSrEo3oXlknZYdwAAAADoNoZSLBZXwQAAAABYMoZSLNYu6wAAAAAA3cdQisXaYx0AAAAAoPsYSrFg3oX1km6w7gAAAADQfQylWAyuggEAAABQC4ZSLAZXwQAAAACoBUMpFsS7sExcBQMAAACgJgylWKitktZYRwAAAADoB4ZSLNRt1gEAAAAA+oOhFAvFVTAAAAAAasNQipF5F66WtMW6AwAAAEB/MJRiIbgKBgAAAECtGEqxELusAwAAAAD0C0MpRlJdBbPTugMAAABAvzCUYlQ3S3LWEQAAAAD6haEUo0qsAwAAAAD0D0MpRsVVMAAAAABqx1CKK/IurJN0o3UHAAAAgP5hKMUouAoGAAAAwFgwlGIUt1kHAAAAAOgnhlLMq7oKhpVSAAAAAGPBUIoruUlcBQMAAABgTBhKcSWskgIAAAAYG4ZSXAnvkwIAAAAYG4ZSzMm74CTdbN0BAAAAoL8YSjGfneK/EQAAAABjxMCB+STWAQAAAAD6jaEUs+IqGAAAAABNYCjFXLZIWmcdAQAAAKDfGEoxlz3WAQAAAAD6j6EUc+EqGAAAAABjx1CK1/AurJV0i3UHAAAAgP5jKMVsuAoGAAAAQCMYPDAbtu4CAAAAaARDKWbDVTAAAAAAGsFQist4F7ZIutq6AwAAAIjMjHWAFYZSvBqrpAAAAEDD8iI9a91ghaEUr5ZYBwAAAACIB0Mpvqe6CmardQcAAAAQmTPWAZYYSnGp7eK/CQAAAKBpp6wDLDGA4FJs3QUAAACad9I6wBJDKS7FIUcAAABA8wrrAEsMpZAkeRdukLTeugMAAACI0AnrAEsMpbiIVVIAAADAxlHrAEsMpbjoNusAAAAAIFJ/bx1giaEU8i6slnSrdQcAAAAQKVZKEb0dkpZbRwAAAACRetE6wBJDKSS27gIAAABWTuRFOrSOsMRQCknaYx0AAAAAROp56wBrDKWR8y5cJ8lbdwAAAACROmwdYI2hFFwFAwAAANj5U+sAawylSKwDAAAAgIgdsg6w9n3WAbDjXVgl6R8lrbBuAQAAACL0Yl6kE9YR1lgpjdsOMZACAAAAVvZaB7QBQ2ncuAoGAAAAsDNtHdAGDKVx45AjAAAAwMZZSQesI9qAoTRS3oXNkjZadwAAAACRejIv0hnriDZgKI3XHusAAAAAIGJfsA5oC4bSePE+KQAAAGDjrKQnrCPagqE0QtVVMFPWHQAAAECkHsuL9Jx1RFswlMZpSlwFAwAAAFh51DqgTRhK48TWXQAAAMDGS3mRZtYRbcJQGicOOQIAAABs/LZ1QNswlEbGu3CNpE3WHQAAAECEzkj6nHVE2zCUxodVUgAAAMDGZ/MiPWUd0TYMpfHhfVIAAACgeeclPWQd0UYMpRHxLqwUV8EAAAAAFj6fF+kx64g2YiiNyzZJK60jAAAAgMicl3S/dURbMZTGJbEOAAAAACL0GVZJ58ZQGpfd1gEAAABAZE5Lus86os0YSiPhXdgkabN1BwAAABCZj+ZFOrSOaDOG0niwSgoAAAA06yVJv2kd0XYMpfHgKhgAAACgWe/Ni/S8dUTbMZRGwLuwQtJ26w4AAAAgIp/Ni/SAdUQXMJTGYZukVdYRAAAAQCSOSwrWEV3BUBoHroIBAAAAmvOuvEhPW0d0BUNpHDjkCAAAAGjGf86LdL91RJcwlPacd2GDpGutOwAAAIAIPCvpHuuIrmEo7T9WSQEAAIDxKyS9OS/SGeuQrmEo7T/eJwUAAADG64Kkt+ZFesw6pIsYSnuMq2AAAACARvxKXqT7rCO6iqG0326VtNo6AgAAAOix38yL9FPWEV3GUNpvt1kHAAAAAD32dUl3WUd0HUNpv3HIEQAAADAemcr3SC9Yh3Td91kHYDy8C17SP1h3AAAAAD30tKQfz4v0rHVIH7BS2l+skgIAAAD1OyRpFwNpfRhK+4urYAAAAIB6ZZJenxfpaeuQPmH7bg95F5ZL+kdx8i4AAABQl6+rfId0xjqkb1gp7aetYiAFAAAA6vIpSW9mIB2P5dYBGAuuggEAAACW7oKku/Ii/U3rkD5jKO2nPdYBAAAAQMcNVW7X3W8d0ne8U9oz3oX1kv6ndQcAAADQYc9KelNepLl1SAx4p7R/uAoGAAAAWLyPS/pRBtLmsH23f3ifFAAAAFi4XNK78iLNrENiw/bdHvEuLJP0fyWttW4BAAAAOuQzkj7M/aM2WCntl61iIAUAAABGdUTSe/MiPWgdEjPeKe0Xtu4CAAAAV3ZK0l2SfoCB1B4rpf3CVTAAAADA3M5J+qyk+/IiLaxjUOKd0p7wLlwl6X9bdwAAAAAtdF7S51UOo8etY3A5Vkr7g6tgAAAAgMudVrky+hBXvLQXQ2l/8D4pAAAAUDoi6RFJn8uL9Ix1DObH9t0eqK6C+T+SnHULAAAAYOS0pMckPcrhRd3CSmk/3CwGUgAAAMTnjKQnJP2hpMfzIp0x7sEiMJT2Q2IdAAAAADTggqTnJe2V9N8kHcyL9LxtEpaKobQfOOQIAAAAfXRM5RB6WNKfSTrEO6L9wzulHeddWKfyfVIAAACgK85KmpE0lFRUX8cl/b2ko9XXi3mRnjYrBAAAAAAAAAAAAAAAAAAAAAAAAAAAAAAAAAAAAAAAAAAAAAAAAAAAAAAAAAAAAAAAANB+/x8oTej0BOlkhAAAAABJRU5ErkJggg==;" vertex="1" parent="1">
          <mxGeometry x="-347" y="534" width="57.08" height="53.78" as="geometry" />
        </mxCell>
        <mxCell id="4ZC3k0Vkt_Njtrgb3o6p-12" value="" style="image;points=[];aspect=fixed;html=1;align=center;shadow=0;dashed=0;image=img/lib/allied_telesis/computer_and_terminals/Server_Desktop.svg;" vertex="1" parent="1">
          <mxGeometry x="-588" y="1162" width="76.52" height="97" as="geometry" />
        </mxCell>
        <mxCell id="4ZC3k0Vkt_Njtrgb3o6p-13" value="" style="image;html=1;image=img/lib/clip_art/networking/Switch_128x128.png" vertex="1" parent="1">
          <mxGeometry x="1057" y="776" width="80" height="80" as="geometry" />
        </mxCell>
        <mxCell id="4ZC3k0Vkt_Njtrgb3o6p-14" value="" style="image;html=1;image=img/lib/clip_art/networking/Switch_128x128.png" vertex="1" parent="1">
          <mxGeometry x="-175.26" y="896" width="80" height="80" as="geometry" />
        </mxCell>
        <mxCell id="4ZC3k0Vkt_Njtrgb3o6p-15" value="" style="image;points=[];aspect=fixed;html=1;align=center;shadow=0;dashed=0;image=img/lib/allied_telesis/computer_and_terminals/Server_Desktop.svg;" vertex="1" parent="1">
          <mxGeometry x="-255" y="1147" width="76.52" height="97" as="geometry" />
        </mxCell>
        <mxCell id="4ZC3k0Vkt_Njtrgb3o6p-16" value="" style="image;points=[];aspect=fixed;html=1;align=center;shadow=0;dashed=0;image=img/lib/allied_telesis/computer_and_terminals/Server_Desktop.svg;" vertex="1" parent="1">
          <mxGeometry x="131" y="1158.5" width="76.52" height="97" as="geometry" />
        </mxCell>
        <mxCell id="4ZC3k0Vkt_Njtrgb3o6p-19" value="" style="image;sketch=0;aspect=fixed;html=1;points=[];align=center;fontSize=12;image=img/lib/mscae/NetworkInterfaceCard.svg;" vertex="1" parent="1">
          <mxGeometry x="-53" y="396" width="44" height="50" as="geometry" />
        </mxCell>
        <mxCell id="4ZC3k0Vkt_Njtrgb3o6p-20" value="" style="image;sketch=0;aspect=fixed;html=1;points=[];align=center;fontSize=12;image=img/lib/mscae/NetworkInterfaceCard.svg;" vertex="1" parent="1">
          <mxGeometry x="2.5" y="636" width="44" height="50" as="geometry" />
        </mxCell>
        <mxCell id="4ZC3k0Vkt_Njtrgb3o6p-21" value="" style="endArrow=classic;startArrow=classic;html=1;rounded=0;exitX=0.977;exitY=0.68;exitDx=0;exitDy=0;exitPerimeter=0;edgeStyle=orthogonalEdgeStyle;curved=1;flowAnimation=1;fontColor=#E4FDE1;strokeColor=#028090;fontStyle=1;opacity=80;strokeWidth=3;" edge="1" parent="1" source="4ZC3k0Vkt_Njtrgb3o6p-19" target="4ZC3k0Vkt_Njtrgb3o6p-3">
          <mxGeometry width="50" height="50" relative="1" as="geometry">
            <mxPoint x="94.51999999999998" y="480" as="sourcePoint" />
            <mxPoint x="102" y="385" as="targetPoint" />
            <Array as="points">
              <mxPoint x="161" y="430" />
            </Array>
          </mxGeometry>
        </mxCell>
        <mxCell id="4ZC3k0Vkt_Njtrgb3o6p-22" value="Text" style="edgeLabel;html=1;align=center;verticalAlign=middle;resizable=0;points=[];" vertex="1" connectable="0" parent="4ZC3k0Vkt_Njtrgb3o6p-21">
          <mxGeometry x="0.4049" y="-2" relative="1" as="geometry">
            <mxPoint as="offset" />
          </mxGeometry>
        </mxCell>
        <mxCell id="4ZC3k0Vkt_Njtrgb3o6p-23" value="" style="endArrow=classic;startArrow=classic;html=1;rounded=0;edgeStyle=orthogonalEdgeStyle;curved=1;flowAnimation=1;fontColor=#E4FDE1;strokeColor=#028090;fontStyle=1;opacity=80;strokeWidth=3;entryX=0.69;entryY=1.012;entryDx=0;entryDy=0;entryPerimeter=0;exitX=0.943;exitY=0.1;exitDx=0;exitDy=0;exitPerimeter=0;" edge="1" parent="1" source="4ZC3k0Vkt_Njtrgb3o6p-20" target="4ZC3k0Vkt_Njtrgb3o6p-3">
          <mxGeometry width="50" height="50" relative="1" as="geometry">
            <mxPoint x="36" y="579" as="sourcePoint" />
            <mxPoint x="154.01" y="473" as="targetPoint" />
          </mxGeometry>
        </mxCell>
        <mxCell id="4ZC3k0Vkt_Njtrgb3o6p-24" value="Text" style="edgeLabel;html=1;align=center;verticalAlign=middle;resizable=0;points=[];" vertex="1" connectable="0" parent="4ZC3k0Vkt_Njtrgb3o6p-23">
          <mxGeometry x="0.4049" y="-2" relative="1" as="geometry">
            <mxPoint as="offset" />
          </mxGeometry>
        </mxCell>
        <mxCell id="4ZC3k0Vkt_Njtrgb3o6p-26" value="" style="endArrow=classic;startArrow=classic;html=1;rounded=0;edgeStyle=orthogonalEdgeStyle;curved=1;flowAnimation=1;fontColor=#E4FDE1;strokeColor=#028090;fontStyle=1;opacity=80;strokeWidth=3;" edge="1" parent="1" source="4ZC3k0Vkt_Njtrgb3o6p-4" target="4ZC3k0Vkt_Njtrgb3o6p-19">
          <mxGeometry width="50" height="50" relative="1" as="geometry">
            <mxPoint x="-100" y="561" as="sourcePoint" />
            <mxPoint x="-2" y="518" as="targetPoint" />
          </mxGeometry>
        </mxCell>
        <mxCell id="4ZC3k0Vkt_Njtrgb3o6p-27" value="Text" style="edgeLabel;html=1;align=center;verticalAlign=middle;resizable=0;points=[];" vertex="1" connectable="0" parent="4ZC3k0Vkt_Njtrgb3o6p-26">
          <mxGeometry x="0.4049" y="-2" relative="1" as="geometry">
            <mxPoint x="3" y="80" as="offset" />
          </mxGeometry>
        </mxCell>
        <mxCell id="4ZC3k0Vkt_Njtrgb3o6p-28" value="" style="endArrow=classic;startArrow=classic;html=1;rounded=0;edgeStyle=orthogonalEdgeStyle;curved=1;flowAnimation=1;fontColor=#E4FDE1;strokeColor=#028090;fontStyle=1;opacity=80;strokeWidth=3;entryX=0.091;entryY=0.54;entryDx=0;entryDy=0;entryPerimeter=0;" edge="1" parent="1" source="4ZC3k0Vkt_Njtrgb3o6p-4" target="4ZC3k0Vkt_Njtrgb3o6p-20">
          <mxGeometry width="50" height="50" relative="1" as="geometry">
            <mxPoint x="-83" y="598.98" as="sourcePoint" />
            <mxPoint x="60.989999999999995" y="428.98" as="targetPoint" />
          </mxGeometry>
        </mxCell>
        <mxCell id="4ZC3k0Vkt_Njtrgb3o6p-29" value="Text" style="edgeLabel;html=1;align=center;verticalAlign=middle;resizable=0;points=[];" vertex="1" connectable="0" parent="4ZC3k0Vkt_Njtrgb3o6p-28">
          <mxGeometry x="0.4049" y="-2" relative="1" as="geometry">
            <mxPoint as="offset" />
          </mxGeometry>
        </mxCell>
        <mxCell id="4ZC3k0Vkt_Njtrgb3o6p-30" value="" style="endArrow=classic;startArrow=classic;html=1;rounded=0;edgeStyle=orthogonalEdgeStyle;curved=1;flowAnimation=1;fontColor=#E4FDE1;strokeColor=#028090;fontStyle=1;opacity=80;strokeWidth=3;" edge="1" parent="1" source="4ZC3k0Vkt_Njtrgb3o6p-14" target="4ZC3k0Vkt_Njtrgb3o6p-4">
          <mxGeometry width="50" height="50" relative="1" as="geometry">
            <mxPoint x="-272" y="766.98" as="sourcePoint" />
            <mxPoint x="-128.01" y="596.98" as="targetPoint" />
            <Array as="points">
              <mxPoint x="-132" y="676" />
              <mxPoint x="-128" y="676" />
            </Array>
          </mxGeometry>
        </mxCell>
        <mxCell id="4ZC3k0Vkt_Njtrgb3o6p-31" value="Text" style="edgeLabel;html=1;align=center;verticalAlign=middle;resizable=0;points=[];" vertex="1" connectable="0" parent="4ZC3k0Vkt_Njtrgb3o6p-30">
          <mxGeometry x="0.4049" y="-2" relative="1" as="geometry">
            <mxPoint as="offset" />
          </mxGeometry>
        </mxCell>
        <mxCell id="4ZC3k0Vkt_Njtrgb3o6p-32" value="" style="endArrow=classic;startArrow=classic;html=1;rounded=0;edgeStyle=orthogonalEdgeStyle;curved=1;flowAnimation=1;fontColor=#E4FDE1;strokeColor=#028090;fontStyle=1;opacity=80;strokeWidth=3;" edge="1" parent="1" source="4ZC3k0Vkt_Njtrgb3o6p-12" target="4ZC3k0Vkt_Njtrgb3o6p-14">
          <mxGeometry width="50" height="50" relative="1" as="geometry">
            <mxPoint x="-329.7" y="1144" as="sourcePoint" />
            <mxPoint x="-325.7" y="1007" as="targetPoint" />
            <Array as="points">
              <mxPoint x="-330" y="1079" />
              <mxPoint x="-326" y="1079" />
              <mxPoint x="-326" y="936" />
            </Array>
          </mxGeometry>
        </mxCell>
        <mxCell id="4ZC3k0Vkt_Njtrgb3o6p-33" value="Text" style="edgeLabel;html=1;align=center;verticalAlign=middle;resizable=0;points=[];" vertex="1" connectable="0" parent="4ZC3k0Vkt_Njtrgb3o6p-32">
          <mxGeometry x="0.4049" y="-2" relative="1" as="geometry">
            <mxPoint as="offset" />
          </mxGeometry>
        </mxCell>
        <mxCell id="4ZC3k0Vkt_Njtrgb3o6p-35" value="" style="endArrow=classic;startArrow=classic;html=1;rounded=0;edgeStyle=orthogonalEdgeStyle;curved=1;flowAnimation=1;fontColor=#E4FDE1;strokeColor=#028090;fontStyle=1;opacity=80;strokeWidth=3;" edge="1" parent="1" source="4ZC3k0Vkt_Njtrgb3o6p-15">
          <mxGeometry width="50" height="50" relative="1" as="geometry">
            <mxPoint x="-137.11" y="1088" as="sourcePoint" />
            <mxPoint x="-133.11" y="951" as="targetPoint" />
            <Array as="points">
              <mxPoint x="-137" y="1195" />
              <mxPoint x="-137" y="1023" />
              <mxPoint x="-133" y="1023" />
            </Array>
          </mxGeometry>
        </mxCell>
        <mxCell id="4ZC3k0Vkt_Njtrgb3o6p-36" value="Text" style="edgeLabel;html=1;align=center;verticalAlign=middle;resizable=0;points=[];" vertex="1" connectable="0" parent="4ZC3k0Vkt_Njtrgb3o6p-35">
          <mxGeometry x="0.4049" y="-2" relative="1" as="geometry">
            <mxPoint as="offset" />
          </mxGeometry>
        </mxCell>
        <mxCell id="4ZC3k0Vkt_Njtrgb3o6p-39" value="" style="endArrow=classic;startArrow=classic;html=1;rounded=0;edgeStyle=orthogonalEdgeStyle;curved=1;flowAnimation=1;fontColor=#E4FDE1;strokeColor=#028090;fontStyle=1;opacity=80;strokeWidth=3;" edge="1" parent="1" source="4ZC3k0Vkt_Njtrgb3o6p-16" target="4ZC3k0Vkt_Njtrgb3o6p-14">
          <mxGeometry width="50" height="50" relative="1" as="geometry">
            <mxPoint x="25" y="1209" as="sourcePoint" />
            <mxPoint x="75.36999999999998" y="959" as="targetPoint" />
            <Array as="points">
              <mxPoint x="72" y="1219" />
              <mxPoint x="72" y="1031" />
              <mxPoint x="75" y="1031" />
              <mxPoint x="75" y="936" />
            </Array>
          </mxGeometry>
        </mxCell>
        <mxCell id="4ZC3k0Vkt_Njtrgb3o6p-40" value="Text" style="edgeLabel;html=1;align=center;verticalAlign=middle;resizable=0;points=[];" vertex="1" connectable="0" parent="4ZC3k0Vkt_Njtrgb3o6p-39">
          <mxGeometry x="0.4049" y="-2" relative="1" as="geometry">
            <mxPoint as="offset" />
          </mxGeometry>
        </mxCell>
        <mxCell id="4ZC3k0Vkt_Njtrgb3o6p-44" value="&lt;h1 style=&quot;margin-top: 0px;&quot;&gt;&lt;font style=&quot;color: rgb(151, 208, 119);&quot;&gt;1G Switch&lt;/font&gt;&lt;/h1&gt;&lt;p&gt;&lt;font style=&quot;color: rgb(151, 208, 119);&quot;&gt;192.168.1.50/24&lt;/font&gt;&lt;/p&gt;&lt;p&gt;&lt;font style=&quot;color: rgb(151, 208, 119);&quot;&gt;192.168.100.1/24&lt;/font&gt;&lt;/p&gt;" style="text;html=1;whiteSpace=wrap;overflow=hidden;rounded=0;" vertex="1" parent="1">
          <mxGeometry x="-101" y="831" width="180" height="120" as="geometry" />
        </mxCell>
        <mxCell id="4ZC3k0Vkt_Njtrgb3o6p-45" value="&lt;h1 style=&quot;margin-top: 0px;&quot;&gt;&lt;span style=&quot;color: light-dark(rgb(151, 208, 119), rgb(41, 90, 13)); background-color: transparent;&quot;&gt;Proxmox&amp;nbsp;&lt;/span&gt;&lt;/h1&gt;&lt;h1 style=&quot;margin-top: 0px;&quot;&gt;&lt;br&gt;&lt;/h1&gt;" style="text;html=1;whiteSpace=wrap;overflow=hidden;rounded=0;" vertex="1" parent="1">
          <mxGeometry x="-600" y="1253" width="112" height="45" as="geometry" />
        </mxCell>
        <mxCell id="4ZC3k0Vkt_Njtrgb3o6p-46" value="" style="shape=image;verticalLabelPosition=bottom;labelBackgroundColor=default;verticalAlign=top;aspect=fixed;imageAspect=0;editableCssRules=.*;image=data:image/svg+xml,PHN2ZyB4bWxucz0iaHR0cDovL3d3dy53My5vcmcvMjAwMC9zdmciIHZpZXdCb3g9IjAgMCAxMDI0IDEwMjQiIHdpZHRoPSIxMDI0IiBoZWlnaHQ9IjEwMjQiPjxjaXJjbGUgcj0iNTEyIiBmaWxsPSIjZTU3MDAwIiBjeT0iNTEyIiBjeD0iNTEyIi8+PGcgdHJhbnNmb3JtPSJtYXRyaXgoLjg1Mjg2NTk0IDAgMCAuODUyODY1OTQgLTIyMDQuNzk2NCAtOTcwLjA2NDk1KSIgZmlsbD0iI2ZmZiI+PHBhdGggdHJhbnNmb3JtPSJtYXRyaXgoLS45OTc5MTk3OSAwIDAgLjk5NzkxOTc5IDE0NTIuMzU4NiA3NDYuMDQ3ODQpIiBkPSJtLTE3MzYuNyA5NzcuMSAxOTcuNy0yMTcuNGMtNy43LTcuNy0xNi42LTEzLjctMjYuOC0xOC4xcy0yMS4xLTYuNi0zMi45LTYuN2MtMTIuNC4xLTIzLjggMi42LTM0LjIgNy40cy0xOS4zIDExLjUtMjcgMTkuOWwtNzYuOCA4My45LTc2LjMtODMuOWMtNy45LTguNC0xNy4xLTE1LjEtMjcuNi0xOS45cy0yMS45LTcuMy0zNC4xLTcuNGMtMTEuNy4xLTIyLjcgMi4zLTMyLjkgNi43cy0xOS4xIDEwLjQtMjYuOCAxOC4xeiIvPjxwYXRoIHRyYW5zZm9ybT0ibWF0cml4KC45OTc5MTk3OSAwIDAgLS45OTc5MTk3OSA5MDAuODk2MDQgMTIzMC4zNTc2KSIgZD0ibTIyODkuNC01MjUuMSAxOTcuNi0yMTcuNGMtNy43LTcuNy0xNi42LTEzLjctMjYuOC0xOC4xcy0yMS4xLTYuNi0zMi45LTYuN2MtMTIuNC4xLTIzLjggMi42LTM0LjIgNy40cy0xOS4zIDExLjUtMjcgMTkuOWwtNzYuOCA4My45LTc2LjMtODMuOWMtNy45LTguNC0xNy4xLTE1LjEtMjcuNi0xOS45cy0yMS45LTcuMy0zNC4xLTcuNGMtMTEuNy4xLTIyLjcgMi4zLTMyLjkgNi43cy0xOS4xIDEwLjQtMjYuOCAxOC4xeiIvPjxwYXRoIGQ9Im0zMTY4LjkgMTczNy43LTE0OC42LTE2M2MtOC42LTkuMi0xOC43LTE2LjUtMzAuMi0yMS44cy0yMy45LTgtMzcuMi04LjFjLTEyLjguMS0yNC44IDIuNS0zNS45IDcuM3MtMjAuOSAxMS40LTI5LjMgMTkuN2wxNTAuOCAxNjUuNy0xNTAuOCAxNjUuN2M4LjQgOC42IDE4LjEgMTUuNCAyOS4zIDIwLjIgMTEuMSA0LjggMjMuMSA3LjMgMzUuOSA3LjQgMTMuNC0uMSAyNS44LTIuOCAzNy40LTguMXMyMS42LTEyLjUgMzAtMjEuOHoiLz48cGF0aCBkPSJtMzIwMi4xIDE3MzcuNyAxNDguNi0xNjNjOC42LTkuMiAxOC43LTE2LjUgMzAuMi0yMS44czIzLjktOCAzNy4yLTguMWMxMi44LjEgMjQuOCAyLjUgMzUuOSA3LjNzMjAuOSAxMS40IDI5LjMgMTkuN2wtMTUwLjggMTY1LjcgMTUwLjggMTY1LjdjLTguNCA4LjYtMTguMSAxNS40LTI5LjMgMjAuMnMtMjMuMSA3LjMtMzUuOSA3LjRjLTEzLjQtLjEtMjUuOC0yLjgtMzcuNC04LjFzLTIxLjYtMTIuNS0zMC0yMS44eiIvPjwvZz48L3N2Zz4=;" vertex="1" parent="1">
          <mxGeometry x="-646" y="1188.5" width="44" height="44" as="geometry" />
        </mxCell>
        <mxCell id="4ZC3k0Vkt_Njtrgb3o6p-47" value="" style="shape=image;verticalLabelPosition=bottom;labelBackgroundColor=default;verticalAlign=top;aspect=fixed;imageAspect=0;editableCssRules=.*;image=data:image/svg+xml,PHN2ZyB4bWxucz0iaHR0cDovL3d3dy53My5vcmcvMjAwMC9zdmciIHZpZXdCb3g9IjAgMCAxMDI0IDEwMjQiIHdpZHRoPSIxMDI0IiBoZWlnaHQ9IjEwMjQiPjxjaXJjbGUgcj0iNTEyIiBmaWxsPSIjZTU3MDAwIiBjeT0iNTEyIiBjeD0iNTEyIi8+PGcgdHJhbnNmb3JtPSJtYXRyaXgoLjg1Mjg2NTk0IDAgMCAuODUyODY1OTQgLTIyMDQuNzk2NCAtOTcwLjA2NDk1KSIgZmlsbD0iI2ZmZiI+PHBhdGggdHJhbnNmb3JtPSJtYXRyaXgoLS45OTc5MTk3OSAwIDAgLjk5NzkxOTc5IDE0NTIuMzU4NiA3NDYuMDQ3ODQpIiBkPSJtLTE3MzYuNyA5NzcuMSAxOTcuNy0yMTcuNGMtNy43LTcuNy0xNi42LTEzLjctMjYuOC0xOC4xcy0yMS4xLTYuNi0zMi45LTYuN2MtMTIuNC4xLTIzLjggMi42LTM0LjIgNy40cy0xOS4zIDExLjUtMjcgMTkuOWwtNzYuOCA4My45LTc2LjMtODMuOWMtNy45LTguNC0xNy4xLTE1LjEtMjcuNi0xOS45cy0yMS45LTcuMy0zNC4xLTcuNGMtMTEuNy4xLTIyLjcgMi4zLTMyLjkgNi43cy0xOS4xIDEwLjQtMjYuOCAxOC4xeiIvPjxwYXRoIHRyYW5zZm9ybT0ibWF0cml4KC45OTc5MTk3OSAwIDAgLS45OTc5MTk3OSA5MDAuODk2MDQgMTIzMC4zNTc2KSIgZD0ibTIyODkuNC01MjUuMSAxOTcuNi0yMTcuNGMtNy43LTcuNy0xNi42LTEzLjctMjYuOC0xOC4xcy0yMS4xLTYuNi0zMi45LTYuN2MtMTIuNC4xLTIzLjggMi42LTM0LjIgNy40cy0xOS4zIDExLjUtMjcgMTkuOWwtNzYuOCA4My45LTc2LjMtODMuOWMtNy45LTguNC0xNy4xLTE1LjEtMjcuNi0xOS45cy0yMS45LTcuMy0zNC4xLTcuNGMtMTEuNy4xLTIyLjcgMi4zLTMyLjkgNi43cy0xOS4xIDEwLjQtMjYuOCAxOC4xeiIvPjxwYXRoIGQ9Im0zMTY4LjkgMTczNy43LTE0OC42LTE2M2MtOC42LTkuMi0xOC43LTE2LjUtMzAuMi0yMS44cy0yMy45LTgtMzcuMi04LjFjLTEyLjguMS0yNC44IDIuNS0zNS45IDcuM3MtMjAuOSAxMS40LTI5LjMgMTkuN2wxNTAuOCAxNjUuNy0xNTAuOCAxNjUuN2M4LjQgOC42IDE4LjEgMTUuNCAyOS4zIDIwLjIgMTEuMSA0LjggMjMuMSA3LjMgMzUuOSA3LjQgMTMuNC0uMSAyNS44LTIuOCAzNy40LTguMXMyMS42LTEyLjUgMzAtMjEuOHoiLz48cGF0aCBkPSJtMzIwMi4xIDE3MzcuNyAxNDguNi0xNjNjOC42LTkuMiAxOC43LTE2LjUgMzAuMi0yMS44czIzLjktOCAzNy4yLTguMWMxMi44LjEgMjQuOCAyLjUgMzUuOSA3LjNzMjAuOSAxMS40IDI5LjMgMTkuN2wtMTUwLjggMTY1LjcgMTUwLjggMTY1LjdjLTguNCA4LjYtMTguMSAxNS40LTI5LjMgMjAuMnMtMjMuMSA3LjMtMzUuOSA3LjRjLTEzLjQtLjEtMjUuOC0yLjgtMzcuNC04LjFzLTIxLjYtMTIuNS0zMC0yMS44eiIvPjwvZz48L3N2Zz4=;" vertex="1" parent="1">
          <mxGeometry x="-306" y="1187.5" width="44" height="44" as="geometry" />
        </mxCell>
        <mxCell id="4ZC3k0Vkt_Njtrgb3o6p-48" value="" style="shape=image;verticalLabelPosition=bottom;labelBackgroundColor=default;verticalAlign=top;aspect=fixed;imageAspect=0;editableCssRules=.*;image=data:image/svg+xml,PHN2ZyB4bWxucz0iaHR0cDovL3d3dy53My5vcmcvMjAwMC9zdmciIHZpZXdCb3g9IjAgMCAxMDI0IDEwMjQiIHdpZHRoPSIxMDI0IiBoZWlnaHQ9IjEwMjQiPjxjaXJjbGUgcj0iNTEyIiBmaWxsPSIjZTU3MDAwIiBjeT0iNTEyIiBjeD0iNTEyIi8+PGcgdHJhbnNmb3JtPSJtYXRyaXgoLjg1Mjg2NTk0IDAgMCAuODUyODY1OTQgLTIyMDQuNzk2NCAtOTcwLjA2NDk1KSIgZmlsbD0iI2ZmZiI+PHBhdGggdHJhbnNmb3JtPSJtYXRyaXgoLS45OTc5MTk3OSAwIDAgLjk5NzkxOTc5IDE0NTIuMzU4NiA3NDYuMDQ3ODQpIiBkPSJtLTE3MzYuNyA5NzcuMSAxOTcuNy0yMTcuNGMtNy43LTcuNy0xNi42LTEzLjctMjYuOC0xOC4xcy0yMS4xLTYuNi0zMi45LTYuN2MtMTIuNC4xLTIzLjggMi42LTM0LjIgNy40cy0xOS4zIDExLjUtMjcgMTkuOWwtNzYuOCA4My45LTc2LjMtODMuOWMtNy45LTguNC0xNy4xLTE1LjEtMjcuNi0xOS45cy0yMS45LTcuMy0zNC4xLTcuNGMtMTEuNy4xLTIyLjcgMi4zLTMyLjkgNi43cy0xOS4xIDEwLjQtMjYuOCAxOC4xeiIvPjxwYXRoIHRyYW5zZm9ybT0ibWF0cml4KC45OTc5MTk3OSAwIDAgLS45OTc5MTk3OSA5MDAuODk2MDQgMTIzMC4zNTc2KSIgZD0ibTIyODkuNC01MjUuMSAxOTcuNi0yMTcuNGMtNy43LTcuNy0xNi42LTEzLjctMjYuOC0xOC4xcy0yMS4xLTYuNi0zMi45LTYuN2MtMTIuNC4xLTIzLjggMi42LTM0LjIgNy40cy0xOS4zIDExLjUtMjcgMTkuOWwtNzYuOCA4My45LTc2LjMtODMuOWMtNy45LTguNC0xNy4xLTE1LjEtMjcuNi0xOS45cy0yMS45LTcuMy0zNC4xLTcuNGMtMTEuNy4xLTIyLjcgMi4zLTMyLjkgNi43cy0xOS4xIDEwLjQtMjYuOCAxOC4xeiIvPjxwYXRoIGQ9Im0zMTY4LjkgMTczNy43LTE0OC42LTE2M2MtOC42LTkuMi0xOC43LTE2LjUtMzAuMi0yMS44cy0yMy45LTgtMzcuMi04LjFjLTEyLjguMS0yNC44IDIuNS0zNS45IDcuM3MtMjAuOSAxMS40LTI5LjMgMTkuN2wxNTAuOCAxNjUuNy0xNTAuOCAxNjUuN2M4LjQgOC42IDE4LjEgMTUuNCAyOS4zIDIwLjIgMTEuMSA0LjggMjMuMSA3LjMgMzUuOSA3LjQgMTMuNC0uMSAyNS44LTIuOCAzNy40LTguMXMyMS42LTEyLjUgMzAtMjEuOHoiLz48cGF0aCBkPSJtMzIwMi4xIDE3MzcuNyAxNDguNi0xNjNjOC42LTkuMiAxOC43LTE2LjUgMzAuMi0yMS44czIzLjktOCAzNy4yLTguMWMxMi44LjEgMjQuOCAyLjUgMzUuOSA3LjNzMjAuOSAxMS40IDI5LjMgMTkuN2wtMTUwLjggMTY1LjcgMTUwLjggMTY1LjdjLTguNCA4LjYtMTguMSAxNS40LTI5LjMgMjAuMnMtMjMuMSA3LjMtMzUuOSA3LjRjLTEzLjQtLjEtMjUuOC0yLjgtMzcuNC04LjFzLTIxLjYtMTIuNS0zMC0yMS44eiIvPjwvZz48L3N2Zz4=;" vertex="1" parent="1">
          <mxGeometry x="80" y="1185" width="44" height="44" as="geometry" />
        </mxCell>
        <mxCell id="4ZC3k0Vkt_Njtrgb3o6p-52" value="&lt;div&gt;&lt;font style=&quot;color: rgb(151, 208, 119);&quot;&gt;Host: russia.machinesarehere.in&lt;/font&gt;&lt;/div&gt;&lt;div&gt;&lt;br&gt;&lt;/div&gt;&lt;div&gt;&lt;font style=&quot;color: rgb(151, 208, 119);&quot;&gt;192.168.100.10/24&lt;/font&gt;&lt;/div&gt;" style="text;html=1;align=center;verticalAlign=middle;whiteSpace=wrap;rounded=0;" vertex="1" parent="1">
          <mxGeometry x="-668" y="1253" width="267" height="135" as="geometry" />
        </mxCell>
        <mxCell id="4ZC3k0Vkt_Njtrgb3o6p-53" value="&lt;div&gt;&lt;font style=&quot;color: rgb(151, 208, 119);&quot;&gt;Host: singapore.machinesarehere.in&lt;/font&gt;&lt;/div&gt;&lt;div&gt;&lt;br&gt;&lt;/div&gt;&lt;div&gt;&lt;font style=&quot;color: rgb(151, 208, 119);&quot;&gt;192.168.100.11/24&lt;/font&gt;&lt;/div&gt;" style="text;html=1;align=center;verticalAlign=middle;whiteSpace=wrap;rounded=0;" vertex="1" parent="1">
          <mxGeometry x="-355" y="1255" width="267" height="135" as="geometry" />
        </mxCell>
        <mxCell id="4ZC3k0Vkt_Njtrgb3o6p-55" value="&lt;h1 style=&quot;margin-top: 0px;&quot;&gt;&lt;span style=&quot;color: light-dark(rgb(151, 208, 119), rgb(41, 90, 13)); background-color: transparent;&quot;&gt;Proxmox&amp;nbsp;&lt;/span&gt;&lt;/h1&gt;&lt;h1 style=&quot;margin-top: 0px;&quot;&gt;&lt;br&gt;&lt;/h1&gt;" style="text;html=1;whiteSpace=wrap;overflow=hidden;rounded=0;" vertex="1" parent="1">
          <mxGeometry x="-287.26" y="1255" width="112" height="45" as="geometry" />
        </mxCell>
        <mxCell id="4ZC3k0Vkt_Njtrgb3o6p-56" value="&lt;h1 style=&quot;margin-top: 0px;&quot;&gt;&lt;span style=&quot;color: light-dark(rgb(151, 208, 119), rgb(41, 90, 13)); background-color: transparent;&quot;&gt;Proxmox&amp;nbsp;&lt;/span&gt;&lt;/h1&gt;&lt;h1 style=&quot;margin-top: 0px;&quot;&gt;&lt;br&gt;&lt;/h1&gt;" style="text;html=1;whiteSpace=wrap;overflow=hidden;rounded=0;" vertex="1" parent="1">
          <mxGeometry x="117" y="1255.5" width="112" height="45" as="geometry" />
        </mxCell>
        <mxCell id="4ZC3k0Vkt_Njtrgb3o6p-57" value="&lt;div&gt;&lt;font style=&quot;color: rgb(151, 208, 119);&quot;&gt;Host: china.machinesarehere.in&lt;/font&gt;&lt;/div&gt;&lt;div&gt;&lt;br&gt;&lt;/div&gt;&lt;div&gt;&lt;font style=&quot;color: rgb(151, 208, 119);&quot;&gt;192.168.100.12/24&lt;/font&gt;&lt;/div&gt;" style="text;html=1;align=center;verticalAlign=middle;whiteSpace=wrap;rounded=0;" vertex="1" parent="1">
          <mxGeometry x="46.5" y="1261.5" width="267" height="135" as="geometry" />
        </mxCell>
        <mxCell id="4ZC3k0Vkt_Njtrgb3o6p-58" value="&lt;div&gt;&lt;font color=&quot;#97d077&quot;&gt;NIC 2&lt;/font&gt;&lt;/div&gt;&lt;div&gt;&lt;font color=&quot;#97d077&quot;&gt;2.5G&lt;/font&gt;&lt;/div&gt;&lt;div&gt;&lt;span style=&quot;color: light-dark(rgb(151, 208, 119), rgb(41, 90, 13)); background-color: transparent;&quot;&gt;VLAN 100 - 192.168.100.0/24&lt;/span&gt;&lt;/div&gt;" style="text;html=1;align=center;verticalAlign=middle;whiteSpace=wrap;rounded=0;" vertex="1" parent="1">
          <mxGeometry x="-109" y="647" width="267" height="135" as="geometry" />
        </mxCell>
        <mxCell id="4ZC3k0Vkt_Njtrgb3o6p-59" value="&lt;div&gt;&lt;font color=&quot;#97d077&quot;&gt;NIC 1&lt;/font&gt;&lt;/div&gt;&lt;div&gt;&lt;font style=&quot;color: rgb(151, 208, 119);&quot;&gt;1G&lt;/font&gt;&lt;/div&gt;&lt;div&gt;&lt;font style=&quot;color: rgb(151, 208, 119);&quot;&gt;192.168.1.2/24&lt;/font&gt;&lt;/div&gt;" style="text;html=1;align=center;verticalAlign=middle;whiteSpace=wrap;rounded=0;" vertex="1" parent="1">
          <mxGeometry x="-249" y="358" width="267" height="135" as="geometry" />
        </mxCell>
        <mxCell id="4ZC3k0Vkt_Njtrgb3o6p-61" value="" style="shape=image;verticalLabelPosition=bottom;labelBackgroundColor=default;verticalAlign=top;aspect=fixed;imageAspect=0;editableCssRules=.*;image=data:image/svg+xml,PHN2ZyB4bWxucz0iaHR0cDovL3d3dy53My5vcmcvMjAwMC9zdmciIHdpZHRoPSIyNTUuNDMyNDY0NTk5NjA5MzgiIHZpZXdCb3g9IjAuNTMxNTIwMTg3ODU0NzY2OCAwLjE2NTE1ODk4NzA0NTI4ODA5IDI1NS40MzI0NjQ1OTk2MDkzOCAyNDguNzMyODk0ODk3NDYwOTQiIHByZXNlcnZlQXNwZWN0UmF0aW89InhNaWRZTWlkIiBoZWlnaHQ9IjI0OC43MzI4OTQ4OTc0NjA5NCI+PHBhdGggZmlsbD0iIzMyNmRlNiIgZD0ibTgyLjA4NTE2MTMgMjQ0LjkzNDE5NGMtNS45NDU4MDY1IDAtMTEuNTYxMjkwMy0yLjY0MjU4MS0xNS4zNi03LjQzMjI1OWwtNTcuODA2NDUxNjItNzEuODQ1MTYxYy0zLjc5ODcwOTY4LTQuNzg5Njc3LTUuMjg1MTYxMjktMTAuOTAwNjQ1LTMuNzk4NzA5NjgtMTYuODQ2NDUxbDIwLjY0NTE2MTMtODkuNjgyNTgxMWMxLjMyMTI5MDMtNS45NDU4MDY0IDUuMjg1MTYxMy0xMC43MzU0ODM4IDEwLjczNTQ4MzktMTMuMzc4MDY0NWw4My41NzE2MTI4LTM5Ljk2OTAzMjI0YzIuNjQyNTgxLTEuMzIxMjkwMzIgNS42MTU0ODQtMS45ODE5MzU0OCA4LjU4ODM4Ny0xLjk4MTkzNTQ4czUuOTQ1ODA3LjY2MDY0NTE2IDguNTg4Mzg3IDEuOTgxOTM1NDhsODMuNTcxNjEzIDM5LjgwMzg3MDk0YzUuNDUwMzIzIDIuNjQyNTgwNyA5LjQxNDE5NCA3LjQzMjI1ODEgMTAuNzM1NDg0IDEzLjM3ODA2NDVsMjAuNjQ1MTYxIDg5LjY4MjU4MDRjMS4zMjEyOTEgNS45NDU4MDcgMCAxMi4wNTY3NzQtMy43OTg3MDkgMTYuODQ2NDUybC01Ny44MDY0NTIgNzEuODQ1MTYxYy0zLjc5ODcxIDQuNjI0NTE2LTkuNDE0MTk0IDcuNDMyMjU4LTE1LjM2IDcuNDMyMjU4eiIvPjxnIGZpbGw9IiNmZmYiPjxwYXRoIGQ9Im0xMjguNDk1NDg0IDcuOTI3NzQxOTRjMi4zMTIyNTggMCA0LjYyNDUxNi40OTU0ODM4NyA2Ljc3MTYxMyAxLjQ4NjQ1MTYxbDgzLjU3MTYxMyAzOS44MDM4NzA5NWM0LjI5NDE5MyAyLjE0NzA5NjggNy41OTc0MTkgNi4xMTA5Njc4IDguNTg4Mzg3IDEwLjczNTQ4MzlsMjAuNjQ1MTYxIDg5LjY4MjU4MDZjMS4xNTYxMjkgNC43ODk2NzcgMCA5Ljc0NDUxNi0zLjEzODA2NCAxMy41NDMyMjZsLTU3LjgwNjQ1MiA3MS44NDUxNjFjLTIuOTcyOTAzIDMuNzk4NzEtNy41OTc0MTkgNS45NDU4MDctMTIuMzg3MDk3IDUuOTQ1ODA3aC05Mi42NTU0ODM3Yy00Ljc4OTY3NzQgMC05LjQxNDE5MzYtMi4xNDcwOTctMTIuMzg3MDk2OC01Ljk0NTgwN2wtNTcuODA2NDUxNi03MS44NDUxNjFjLTIuOTcyOTAzMjItMy43OTg3MS00LjEyOTAzMjI1LTguNzUzNTQ5LTMuMTM4MDY0NTEtMTMuNTQzMjI2bDIwLjY0NTE2MTMxLTg5LjY4MjU4MDZjMS4xNTYxMjktNC43ODk2Nzc0IDQuMjk0MTkzNS04Ljc1MzU0ODQgOC41ODgzODcxLTEwLjczNTQ4MzlsODMuNTcxNjEzMi0zOS45NjkwMzIyNGMyLjE0NzA5Ni0uODI1ODA2NDUgNC42MjQ1MTYtMS4zMjEyOTAzMiA2LjkzNjc3NC0xLjMyMTI5MDMyem0wLTcuNzYyNTgwNjVjLTMuNDY4Mzg3IDAtNi45MzY3NzQuODI1ODA2NDUtMTAuMjQgMi4zMTIyNTgwNmwtODMuNTcxNjEzIDM5Ljk2OTAzMjI1Yy02LjYwNjQ1MTYgMy4xMzgwNjQ1LTExLjIzMDk2NzggOC45MTg3MDk3LTEyLjg4MjU4MDcgMTYuMDIwNjQ1MmwtMjAuNjQ1MTYxMjcgODkuNjgyNTgwMmMtMS42NTE2MTI5IDcuMTAxOTM2IDAgMTQuMzY5MDMzIDQuNjI0NTE2MTMgMjAuMTQ5Njc4bDU3LjgwNjQ1MTY0IDcxLjg0NTE2MWM0LjQ1OTM1NDggNS42MTU0ODQgMTEuMjMwOTY3NyA4Ljc1MzU0OSAxOC4zMzI5MDMyIDguNzUzNTQ5aDkyLjY1NTQ4NGM3LjEwMTkzNSAwIDEzLjg3MzU0OC0zLjEzODA2NSAxOC4zMzI5MDMtOC43NTM1NDlsNTcuODA2NDUyLTcxLjg0NTE2MWM0LjYyNDUxNi01LjYxNTQ4NCA2LjI3NjEyOS0xMy4wNDc3NDIgNC42MjQ1MTYtMjAuMTQ5Njc4bC0yMC42NDUxNjEtODkuNjgyNTgwMmMtMS42NTE2MTMtNy4xMDE5MzU1LTYuMjc2MTI5LTEyLjg4MjU4MDctMTIuODgyNTgxLTE2LjAyMDY0NTJsLTgzLjI0MTI5LTM5Ljk2OTAzMjI1Yy0zLjEzODA2NS0xLjQ4NjQ1MTYxLTYuNjA2NDUyLTIuMzEyMjU4MDYtMTAuMDc0ODM5LTIuMzEyMjU4MDZ6Ii8+PHBhdGggZD0ibTIxMi4yMzIyNTggMTQyLjUzNDE5NGMtLjE2NTE2MSAwLS4xNjUxNjEgMCAwIDBoLS4xNjUxNjFjLS4xNjUxNjIgMC0uMzMwMzIzIDAtLjMzMDMyMy0uMTY1MTYyLS4zMzAzMjIgMC0uNjYwNjQ1LS4xNjUxNjEtLjk5MDk2OC0uMTY1MTYxLTEuMTU2MTI5LS4xNjUxNjEtMi4xNDcwOTYtLjMzMDMyMy0zLjEzODA2NC0uMzMwMzIzLS40OTU0ODQgMC0uOTkwOTY4IDAtMS42NTE2MTMtLjE2NTE2MWgtLjE2NTE2MWMtMy40NjgzODctLjMzMDMyMi02LjI3NjEyOS0uNjYwNjQ1LTguOTE4NzEtMS40ODY0NTItMS4xNTYxMjktLjQ5NTQ4My0xLjQ4NjQ1Mi0xLjE1NjEyOS0xLjgxNjc3NC0xLjgxNjc3NCAwLS4xNjUxNjEtLjE2NTE2MS0uMTY1MTYxLS4xNjUxNjEtLjMzMDMyMmwtMi4xNDcwOTctLjY2MDY0NWMuOTkwOTY4LTcuNTk3NDIuNjYwNjQ1LTE1LjUyNTE2Mi0xLjE1NjEyOS0yMy4yODc3NDItMS44MTY3NzQtNy43NjI1ODEtNC45NTQ4MzktMTUuMDI5Njc3OC05LjI0OTAzMi0yMS42MzYxMjk0bDEuNjUxNjEyLTEuNDg2NDUxNnYtLjMzMDMyMjZjMC0uODI1ODA2NS4xNjUxNjItMS42NTE2MTI5LjgyNTgwNy0yLjQ3NzQxOTQgMS45ODE5MzUtMS44MTY3NzQyIDQuNDU5MzU1LTMuMzAzMjI1OCA3LjQzMjI1OC01LjEyLjQ5NTQ4NC0uMzMwMzIyNS45OTA5NjgtLjQ5NTQ4MzggMS40ODY0NTItLjgyNTgwNjQuOTkwOTY3LS40OTU0ODM5IDEuODE2Nzc0LS45OTA5Njc4IDIuODA3NzQxLTEuNjUxNjEyOS4xNjUxNjItLjE2NTE2MTMuNDk1NDg0LS4zMzAzMjI2LjgyNTgwNy0uNjYwNjQ1Mi4xNjUxNjEtLjE2NTE2MTMuMzMwMzIzLS4xNjUxNjEzLjMzMDMyMy0uMzMwMzIyNiAyLjMxMjI1OC0xLjk4MTkzNTQgMi44MDc3NDEtNS4yODUxNjEzIDEuMTU2MTI5LTcuNDMyMjU4LS44MjU4MDctMS4xNTYxMjkxLTIuMzEyMjU5LTEuODE2Nzc0Mi0zLjc5ODcxLTEuODE2Nzc0Mi0xLjMyMTI5IDAtMi40Nzc0MTkuNDk1NDgzOC0zLjYzMzU0OSAxLjMyMTI5MDMtLjE2NTE2MS4xNjUxNjEzLS4xNjUxNjEuMTY1MTYxMy0uMzMwMzIyLjMzMDMyMjYtLjMzMDMyMy4xNjUxNjEzLS40OTU0ODQuNDk1NDgzOS0uODI1ODA3LjY2MDY0NTEtLjgyNTgwNi44MjU4MDY1LTEuNDg2NDUxIDEuNDg2NDUxNy0yLjE0NzA5NiAyLjMxMjI1ODEtLjMzMDMyMy4zMzAzMjI2LS42NjA2NDUuODI1ODA2NS0xLjE1NjEyOSAxLjE1NjEyOS0yLjMxMjI1OCAyLjQ3NzQxOTQtNC40NTkzNTUgNC40NTkzNTQ5LTYuNjA2NDUyIDUuOTQ1ODA2NS0uNDk1NDg0LjMzMDMyMjYtLjk5MDk2OC40OTU0ODM5LTEuNDg2NDUyLjQ5NTQ4MzktLjMzMDMyMiAwLS42NjA2NDUgMC0uOTkwOTY3LS4xNjUxNjEzaC0uMzMwMzIzbC0xLjk4MTkzNSAxLjMyMTI5MDNjLTIuMTQ3MDk3LTIuMzEyMjU4MS00LjQ1OTM1NS00LjI5NDE5MzYtNi43NzE2MTMtNi4yNzYxMjktOS45MDk2NzgtNy43NjI1ODA3LTIxLjk2NjQ1Mi0xMi41NTIyNTgxLTM0LjUxODcxLTEzLjcwODM4NzFsLS4xNjUxNjEtMi4xNDcwOTY4Yy0uMTY1MTYyLS4xNjUxNjEzLS4xNjUxNjItLjE2NTE2MTMtLjMzMDMyMy0uMzMwMzIyNi0uNDk1NDg0LS40OTU0ODM5LTEuMTU2MTI5LS45OTA5Njc3LTEuMzIxMjktMi4xNDcwOTY4LS4xNjUxNjEtMi42NDI1ODA2LjE2NTE2MS01LjYxNTQ4MzguNDk1NDg0LTguOTE4NzA5NnYtLjE2NTE2MTNjMC0uNDk1NDgzOS4xNjUxNjEtMS4xNTYxMjkxLjMzMDMyMi0xLjY1MTYxMjkuMTY1MTYyLS45OTA5Njc4LjMzMDMyMy0xLjk4MTkzNTUuNDk1NDg0LTMuMTM4MDY0NnYtLjk5MDk2NzctLjQ5NTQ4MzljMC0yLjk3MjkwMzItMi4zMTIyNTgtNS40NTAzMjI1LTUuMTItNS40NTAzMjI1LTEuMzIxMjkgMC0yLjY0MjU4LjY2MDY0NTEtMy42MzM1NDggMS42NTE2MTI5LS45OTA5NjguOTkwOTY3Ny0xLjQ4NjQ1MiAyLjMxMjI1OC0xLjQ4NjQ1MiAzLjc5ODcwOTZ2LjMzMDMyMjYuOTkwOTY3OGMwIDEuMTU2MTI5LjE2NTE2MSAyLjE0NzA5NjcuNDk1NDg0IDMuMTM4MDY0NS4xNjUxNjEuNDk1NDgzOC4xNjUxNjEuOTkwOTY3Ny4zMzAzMjMgMS42NTE2MTI5di4xNjUxNjEzYy4zMzAzMjIgMy4zMDMyMjU4LjgyNTgwNiA2LjI3NjEyOS40OTU0ODMgOC45MTg3MDk2LS4xNjUxNjEgMS4xNTYxMjkxLS44MjU4MDYgMS42NTE2MTI5LTEuMzIxMjkgMi4xNDcwOTY4LS4xNjUxNjEuMTY1MTYxMy0uMTY1MTYxLjE2NTE2MTMtLjMzMDMyMi4zMzAzMjI2bC0uMTY1MTYyIDIuMTQ3MDk2OGMtMi45NzI5MDMuMzMwMzIyNi01Ljk0NTgwNi42NjA2NDUxLTguOTE4NzA5IDEuMzIxMjkwMy0xMi43MTc0MiAyLjgwNzc0MTktMjMuOTQ4Mzg3NSA5LjI0OTAzMjMtMzIuNzAxOTM1OSAxOC40OTgwNjQ1bC0xLjY1MTYxMjktMS4xNTYxMjloLS4zMzAzMjI2Yy0uMzMwMzIyNSAwLS42NjA2NDUxLjE2NTE2MTMtLjk5MDk2NzcuMTY1MTYxMy0uNDk1NDgzOSAwLS45OTA5Njc3LS4xNjUxNjEzLTEuNDg2NDUxNi0uNDk1NDgzOS0yLjE0NzA5NjgtMS40ODY0NTE2LTQuMjk0MTkzNi0zLjYzMzU0ODQtNi42MDY0NTE2LTYuMTEwOTY3Ny0uMzMwMzIyNi0uMzMwMzIyNi0uNjYwNjQ1Mi0uODI1ODA2NS0xLjE1NjEyOTEtMS4xNTYxMjkxLS42NjA2NDUxLS44MjU4MDY0LTEuMzIxMjkwMy0xLjQ4NjQ1MTYtMi4xNDcwOTY3LTIuMzEyMjU4LS4xNjUxNjEzLS4xNjUxNjEzLS40OTU0ODM5LS4zMzAzMjI2LS44MjU4MDY1LS42NjA2NDUyLS4xNjUxNjEzLS4xNjUxNjEzLS4zMzAzMjI2LS4xNjUxNjEzLS4zMzAzMjI2LS4zMzAzMjI2LS45OTA5Njc3LS44MjU4MDY0LTIuMzEyMjU4LTEuMzIxMjkwMy0zLjYzMzU0ODMtMS4zMjEyOTAzLTEuNDg2NDUxNyAwLTIuOTcyOTAzMy42NjA2NDUyLTMuNzk4NzA5NyAxLjgxNjc3NDItMS42NTE2MTI5IDIuMTQ3MDk2OC0xLjE1NjEyOTEgNS40NTAzMjI2IDEuMTU2MTI5IDcuNDMyMjU4MS4xNjUxNjEzIDAgLjE2NTE2MTMuMTY1MTYxMi4zMzAzMjI2LjE2NTE2MTIuMzMwMzIyNi4xNjUxNjEzLjQ5NTQ4MzkuNDk1NDgzOS44MjU4MDY0LjY2MDY0NTIuOTkwOTY3OC42NjA2NDUyIDEuODE2Nzc0MiAxLjE1NjEyOSAyLjgwNzc0MiAxLjY1MTYxMjkuNDk1NDgzOC4xNjUxNjEzLjk5MDk2NzcuNDk1NDgzOSAxLjQ4NjQ1MTYuODI1ODA2NSAyLjk3MjkwMzIgMS44MTY3NzQyIDUuNDUwMzIyNiAzLjMwMzIyNTggNy40MzIyNTgxIDUuMTIuODI1ODA2NC44MjU4MDY0LjgyNTgwNjQgMS42NTE2MTI5LjgyNTgwNjQgMi40Nzc0MTkzdi4zMzAzMjI2bDEuNjUxNjEyOSAxLjQ4NjQ1MTZjLS4zMzAzMjI2LjQ5NTQ4MzktLjY2MDY0NTIuODI1ODA2NS0uODI1ODA2NCAxLjMyMTI5MDMtOC4yNTgwNjQ2IDEzLjA0Nzc0Mi0xMS4zOTYxMjkxIDI4LjQwNzc0Mi05LjI0OTAzMjMgNDMuNjAyNTgxbC0yLjE0NzA5NjguNjYwNjQ1YzAgLjE2NTE2MS0uMTY1MTYxMy4xNjUxNjEtLjE2NTE2MTMuMzMwMzIyLS4zMzAzMjI1LjY2MDY0Ni0uODI1ODA2NCAxLjMyMTI5MS0xLjgxNjc3NDIgMS44MTY3NzUtMi40Nzc0MTkzLjgyNTgwNi01LjQ1MDMyMjUgMS4xNTYxMjktOC45MTg3MDk2IDEuNDg2NDUxaC0uMTY1MTYxM2MtLjQ5NTQ4MzkgMC0xLjE1NjEyOTEgMC0xLjY1MTYxMjkuMTY1MTYyLS45OTA5Njc4IDAtMS45ODE5MzU1LjE2NTE2MS0zLjEzODA2NDUuMzMwMzIyLS4zMzAzMjI2IDAtLjY2MDY0NTIuMTY1MTYxLS45OTA5Njc4LjE2NTE2MS0uMTY1MTYxMyAwLS4zMzAzMjI2IDAtLjQ5NTQ4MzkuMTY1MTYyLTIuOTcyOTAzMi42NjA2NDUtNC43ODk2Nzc0IDMuNDY4Mzg3LTQuMjk0MTkzNSA2LjExMDk2Ny40OTU0ODM5IDIuMzEyMjU4IDIuNjQyNTgwNiAzLjc5ODcxIDUuMjg1MTYxMyAzLjc5ODcxLjQ5NTQ4MzkgMCAuODI1ODA2NCAwIDEuMzIxMjkwMy0uMTY1MTYxLjE2NTE2MTMgMCAuMzMwMzIyNiAwIC4zMzAzMjI2LS4xNjUxNjEuMzMwMzIyNiAwIC42NjA2NDUxLS4xNjUxNjIuOTkwOTY3Ny0uMTY1MTYyIDEuMTU2MTI5MS0uMzMwMzIyIDEuOTgxOTM1NS0uNjYwNjQ1IDIuOTcyOTAzMy0xLjE1NjEyOS40OTU0ODM4LS4xNjUxNjEuOTkwOTY3Ny0uNDk1NDg0IDEuNDg2NDUxNi0uNjYwNjQ1aC4xNjUxNjEzYzMuMTM4MDY0NS0xLjE1NjEyOSA1Ljk0NTgwNjQtMi4xNDcwOTcgOC41ODgzODcxLTIuNDc3NDE5aC4zMzAzMjI1Yy45OTA5Njc4IDAgMS42NTE2MTI5LjQ5NTQ4NCAyLjE0NzA5NjguODI1ODA2LjE2NTE2MTMgMCAuMTY1MTYxMy4xNjUxNjEuMzMwMzIyNi4xNjUxNjFsMi4zMTIyNTgxLS4zMzAzMjJjMy45NjM4NzA5IDEyLjIyMTkzNSAxMS41NjEyOTAzIDIzLjEyMjU4IDIxLjYzNjEyOSAzMS4wNTAzMjIgMi4zMTIyNTggMS44MTY3NzUgNC42MjQ1MTYxIDMuMzAzMjI2IDcuMTAxOTM1NSA0Ljc4OTY3OGwtLjk5MDk2NzggMi4xNDcwOTdjMCAuMTY1MTYxLjE2NTE2MTMuMTY1MTYxLjE2NTE2MTMuMzMwMzIyLjMzMDMyMjYuNjYwNjQ1LjY2MDY0NTIgMS40ODY0NTIuMzMwMzIyNiAyLjY0MjU4MS0uOTkwOTY3NyAyLjQ3NzQxOS0yLjQ3NzQxOTQgNC45NTQ4MzktNC4yOTQxOTM2IDcuNzYyNTh2LjE2NTE2MmMtLjMzMDMyMjUuNDk1NDg0LS42NjA2NDUxLjgyNTgwNi0uOTkwOTY3NyAxLjMyMTI5LS42NjA2NDUyLjgyNTgwNy0xLjE1NjEyOSAxLjY1MTYxMy0xLjgxNjc3NDIgMi42NDI1ODEtLjE2NTE2MTMuMTY1MTYxLS4zMzAzMjI2LjQ5NTQ4NC0uNDk1NDgzOS44MjU4MDYgMCAuMTY1MTYxLS4xNjUxNjEyLjMzMDMyMy0uMTY1MTYxMi4zMzAzMjMtMS4zMjEyOTA0IDIuODA3NzQyLS4zMzAzMjI2IDUuOTQ1ODA2IDIuMTQ3MDk2NyA3LjEwMTkzNS42NjA2NDUyLjMzMDMyMyAxLjMyMTI5MDMuNDk1NDg0IDEuOTgxOTM1NS40OTU0ODQgMS45ODE5MzU1IDAgMy45NjM4NzEtMS4zMjEyOSA0Ljk1NDgzODctMy4xMzgwNjQgMC0uMTY1MTYyLjE2NTE2MTMtLjMzMDMyMy4xNjUxNjEzLS4zMzAzMjMuMTY1MTYxMy0uMzMwMzIzLjMzMDMyMjYtLjY2MDY0NS40OTU0ODM5LS44MjU4MDYuNDk1NDgzOS0xLjE1NjEyOS42NjA2NDUxLTEuOTgxOTM2Ljk5MDk2NzctMi45NzI5MDQuMTY1MTYxMy0uNDk1NDg0LjMzMDMyMjYtLjk5MDk2Ny40OTU0ODM5LTEuNDg2NDUxIDEuMTU2MTI4OC0zLjMwMzIyNiAxLjk4MTkzNTgtNS45NDU4MDcgMy40NjgzODY4LTguMjU4MDY1LjY2MDY0NS0uOTkwOTY4IDEuNDg2NDUyLTEuMTU2MTI5IDIuMTQ3MDk3LTEuNDg2NDUxLjE2NTE2MSAwIC4xNjUxNjEgMCAuMzMwMzIzLS4xNjUxNjJsMS4xNTYxMjktMi4xNDcwOTZjNy4yNjcwOTYgMi44MDc3NDEgMTUuMTk0ODM4IDQuMjk0MTkzIDIzLjEyMjU4IDQuMjk0MTkzIDQuNzg5Njc4IDAgOS43NDQ1MTYtLjQ5NTQ4NCAxNC4zNjkwMzMtMS42NTE2MTMgMi45NzI5MDMtLjY2MDY0NSA1Ljc4MDY0NS0xLjQ4NjQ1MSA4LjU4ODM4Ny0yLjQ3NzQxOWwuOTkwOTY3IDEuODE2Nzc0Yy4xNjUxNjIgMCAuMTY1MTYyIDAgLjMzMDMyMy4xNjUxNjEuODI1ODA2LjE2NTE2MiAxLjQ4NjQ1Mi40OTU0ODQgMi4xNDcwOTcgMS40ODY0NTIgMS4zMjEyOSAyLjMxMjI1OCAyLjMxMjI1OCA1LjEyIDMuNDY4Mzg3IDguMjU4MDY0di4xNjUxNjJjLjE2NTE2MS40OTU0ODQuMzMwMzIyLjk5MDk2Ny40OTU0ODQgMS40ODY0NTEuMzMwMzIyLjk5MDk2OC40OTU0ODQgMS45ODE5MzYuOTkwOTY3IDIuOTcyOTA0LjE2NTE2Mi4zMzAzMjIuMzMwMzIzLjQ5NTQ4My40OTU0ODQuODI1ODA2IDAgLjE2NTE2MS4xNjUxNjIuMzMwMzIzLjE2NTE2Mi4zMzAzMjMuOTkwOTY3IDEuOTgxOTM1IDIuOTcyOTAzIDMuMTM4MDY0IDQuOTU0ODM4IDMuMTM4MDY0LjY2MDY0NiAwIDEuMzIxMjkxLS4xNjUxNjEgMS45ODE5MzYtLjQ5NTQ4NCAxLjE1NjEyOS0uNjYwNjQ1IDIuMTQ3MDk3LTEuNjUxNjEzIDIuNDc3NDE5LTIuOTcyOTAzLjMzMDMyMy0xLjMyMTI5LjMzMDMyMy0yLjgwNzc0Mi0uMzMwMzIyLTQuMTI5MDMyIDAtLjE2NTE2Mi0uMTY1MTYyLS4xNjUxNjItLjE2NTE2Mi0uMzMwMzIzLS4xNjUxNjEtLjMzMDMyMi0uMzMwMzIyLS42NjA2NDUtLjQ5NTQ4NC0uODI1ODA2LS40OTU0ODMtLjk5MDk2OC0xLjE1NjEyOS0xLjgxNjc3NC0xLjgxNjc3NC0yLjY0MjU4MS0uMzMwMzIyLS40OTU0ODQtLjY2MDY0NS0uODI1ODA2LS45OTA5NjctMS4zMjEyOXYtLjE2NTE2MmMtMS44MTY3NzUtMi44MDc3NDEtMy40NjgzODgtNS4yODUxNjEtNC4yOTQxOTQtNy43NjI1OC0uMzMwMzIzLTEuMTU2MTI5IDAtMS44MTY3NzQuMTY1MTYxLTIuNjQyNTgxIDAtLjE2NTE2MS4xNjUxNjItLjE2NTE2MS4xNjUxNjItLjMzMDMyMmwtLjgyNTgwNy0xLjk4MTkzNmM4Ljc1MzU0OC01LjEyIDE2LjE4NTgwNy0xMi4zODcwOTcgMjEuODAxMjktMjEuMzA1ODA2IDIuOTcyOTA0LTQuNjI0NTE2IDUuMjg1MTYyLTkuNzQ0NTE2IDYuOTM2Nzc1LTE0Ljg2NDUxNmwxLjk4MTkzNS4zMzAzMjJjLjE2NTE2MSAwIC4xNjUxNjEtLjE2NTE2MS4zMzAzMjMtLjE2NTE2MS42NjA2NDUtLjMzMDMyMyAxLjE1NjEyOS0uODI1ODA3IDIuMTQ3MDk2LS44MjU4MDdoLjMzMDMyM2MyLjY0MjU4MS4zMzAzMjMgNS40NTAzMjMgMS4zMjEyOTEgOC41ODgzODcgMi40Nzc0MmguMTY1MTYxYy40OTU0ODQuMTY1MTYxLjk5MDk2OC40OTU0ODQgMS40ODY0NTIuNjYwNjQ1Ljk5MDk2OC40OTU0ODQgMS44MTY3NzQuODI1ODA2IDIuOTcyOTAzIDEuMTU2MTI5LjMzMDMyMyAwIC42NjA2NDUuMTY1MTYxLjk5MDk2OC4xNjUxNjEuMTY1MTYxIDAgLjMzMDMyMyAwIC40OTU0ODQuMTY1MTYyLjQ5NTQ4NC4xNjUxNjEuODI1ODA2LjE2NTE2MSAxLjMyMTI5LjE2NTE2MSAyLjQ3NzQyIDAgNC42MjQ1MTYtMS42NTE2MTMgNS4yODUxNjEtMy43OTg3MSAwLTEuOTgxOTM1LTEuODE2Nzc0LTQuNjI0NTE2LTQuNzg5Njc3LTUuNDUwMzIyem0tNzYuNDY5Njc3LTguMDkyOTA0LTcuMjY3MDk3IDMuNDY4Mzg3LTcuMjY3MDk3LTMuNDY4Mzg3LTEuODE2Nzc0LTcuNzYyNTggNC45NTQ4MzktNi4yNzYxMjloOC4wOTI5MDNsNC45NTQ4MzkgNi4yNzYxMjl6bTQzLjEwNzA5Ni0xNy4xNzY3NzRjMS4zMjEyOTEgNS42MTU0ODQgMS42NTE2MTMgMTEuMjMwOTY4IDEuMTU2MTI5IDE2LjY4MTI5bC0yNS4yNjk2NzctNy4yNjcwOTZjLTIuMzEyMjU4LS42NjA2NDUtMy42MzM1NDgtMi45NzI5MDQtMy4xMzgwNjQtNS4yODUxNjIuMTY1MTYxLS42NjA2NDUuNDk1NDgzLTEuMzIxMjkuOTkwOTY3LTEuODE2Nzc0bDE5Ljk4NDUxNi0xOC4wMDI1OGMyLjgwNzc0MiA0LjYyNDUxNiA0Ljk1NDgzOSA5LjkwOTY3NyA2LjI3NjEyOSAxNS42OTAzMjJ6bS0xNC4yMDM4NzEtMjUuNTk5OTk5OS0yMS42MzYxMjkgMTUuMzU5OTk5OWMtMS44MTY3NzQgMS4xNTYxMjktNC4yOTQxOTMuODI1ODA3LTUuNzgwNjQ1LS45OTA5NjgtLjQ5NTQ4NC0uNDk1NDgzLS42NjA2NDUtMS4xNTYxMjktLjgyNTgwNi0xLjgxNjc3NGwtMS40ODY0NTItMjYuOTIxMjkwMWMxMS4zOTYxMjkgMS4zMjEyOTAzIDIxLjgwMTI5MSA2LjQ0MTI5MDMgMjkuNzI5MDMyIDE0LjM2OTAzMjJ6bS00Ny44OTY3NzQtMTMuNTQzMjI1OGMxLjgxNjc3NC0uMzMwMzIyNiAzLjQ2ODM4Ny0uNjYwNjQ1MSA1LjI4NTE2Mi0uOTkwOTY3N2wtMS40ODY0NTIgMjYuNDI1ODA2NGMtLjE2NTE2MSAyLjMxMjI1OC0xLjk4MTkzNiA0LjI5NDE5NC00LjQ1OTM1NSA0LjI5NDE5NC0uNjYwNjQ1IDAtMS40ODY0NTItLjE2NTE2Mi0xLjk4MTkzNS0uNDk1NDg0bC0yMS45NjY0NTItMTUuNjkwMzIyOWM2Ljc3MTYxMjktNi43NzE2MTI5IDE1LjE5NDgzOS0xMS4zOTYxMjkgMjQuNjA5MDMyLTEzLjU0MzIyNTh6bS0zMi41MzY3NzM5IDIzLjQ1MjkwMzcgMTkuNjU0MTkzOSAxNy41MDcwOTZjMS44MTY3NzQgMS40ODY0NTIgMS45ODE5MzUgNC4yOTQxOTQuNDk1NDgzIDYuMTEwOTY4LS40OTU0ODMuNjYwNjQ1LTEuMTU2MTI5IDEuMTU2MTI5LTEuOTgxOTM1IDEuMzIxMjlsLTI1LjYgNy40MzIyNThjLS45OTA5Njc3LTExLjIzMDk2NyAxLjQ4NjQ1MTYtMjIuNjI3MDk2IDcuNDMyMjU4MS0zMi4zNzE2MTJ6bS00LjQ1OTM1NDkgNDQuNzU4NzA5IDI2LjI2MDY0NDgtNC40NTkzNTVjMi4xNDcwOTctLjE2NTE2MSA0LjEyOTAzMyAxLjMyMTI5MSA0LjYyNDUxNyAzLjQ2ODM4Ny4xNjUxNjEuOTkwOTY4LjE2NTE2MSAxLjgxNjc3NS0uMTY1MTYyIDIuNjQyNTgxbC0xMC4wNzQ4MzggMjQuMjc4NzFjLTkuMjQ5MDMyNy01Ljk0NTgwNy0xNi42ODEyOTA4LTE1LjAyOTY3OC0yMC42NDUxNjE4LTI1LjkzMDMyM3ptNjAuMjgzODcwOCAzMi44NjcwOTdjLTMuNzk4NzA5LjgyNTgwNi03LjU5NzQxOSAxLjMyMTI5LTExLjU2MTI5IDEuMzIxMjktNS43ODA2NDUgMC0xMS4zOTYxMjktLjk5MDk2Ny0xNi42ODEyOS0yLjY0MjU4bDEzLjA0Nzc0MS0yMy42MTgwNjVjMS4zMjEyOTEtMS40ODY0NTEgMy40NjgzODgtMi4xNDcwOTcgNS4yODUxNjItMS4xNTYxMjkuODI1ODA2LjQ5NTQ4NCAxLjQ4NjQ1MSAxLjE1NjEyOSAxLjk4MTkzNSAxLjgxNjc3NGwxMi43MTc0MiAyMi45NTc0MmMtMS40ODY0NTIuNDk1NDg0LTMuMTM4MDY1LjgyNTgwNi00Ljc4OTY3OCAxLjMyMTI5em0zMi4yMDY0NTItMjIuOTU3NDE5Yy00LjEyOTAzMiA2LjYwNjQ1MS05LjU3OTM1NSAxMS44OTE2MTMtMTUuODU1NDg0IDE2LjAyMDY0NWwtMTAuNDA1MTYxLTI0LjkzOTM1NWMtLjQ5NTQ4NC0xLjk4MTkzNi4zMzAzMjItNC4xMjkwMzIgMi4zMTIyNTgtNS4xMi42NjA2NDUtLjMzMDMyMyAxLjQ4NjQ1MS0uNDk1NDg0IDIuMzEyMjU4LS40OTU0ODRsMjYuNDI1ODA2IDQuNDU5MzU1Yy0uOTkwOTY4IDMuNjMzNTQ4LTIuNjQyNTggNi45MzY3NzQtNC43ODk2NzcgMTAuMDc0ODM5eiIvPjwvZz48L3N2Zz4=;" vertex="1" parent="1">
          <mxGeometry x="-488" y="1449" width="46.09" height="45" as="geometry" />
        </mxCell>
        <mxCell id="4ZC3k0Vkt_Njtrgb3o6p-62" value="" style="image;sketch=0;aspect=fixed;html=1;points=[];align=center;fontSize=12;image=img/lib/mscae/VM_Linux.svg;" vertex="1" parent="1">
          <mxGeometry x="18" y="1317" width="50" height="46" as="geometry" />
        </mxCell>
        <mxCell id="4ZC3k0Vkt_Njtrgb3o6p-63" value="" style="image;sketch=0;aspect=fixed;html=1;points=[];align=center;fontSize=12;image=img/lib/mscae/VM_Linux.svg;" vertex="1" parent="1">
          <mxGeometry x="-578" y="1438" width="80.43" height="74" as="geometry" />
        </mxCell>
        <mxCell id="4ZC3k0Vkt_Njtrgb3o6p-64" value="" style="shape=image;verticalLabelPosition=bottom;labelBackgroundColor=default;verticalAlign=top;aspect=fixed;imageAspect=0;editableCssRules=.*;image=data:image/svg+xml,PHN2ZyB4bWxucz0iaHR0cDovL3d3dy53My5vcmcvMjAwMC9zdmciIHdpZHRoPSIyNTUuNDMyNDY0NTk5NjA5MzgiIHZpZXdCb3g9IjAuNTMxNTIwMTg3ODU0NzY2OCAwLjE2NTE1ODk4NzA0NTI4ODA5IDI1NS40MzI0NjQ1OTk2MDkzOCAyNDguNzMyODk0ODk3NDYwOTQiIHByZXNlcnZlQXNwZWN0UmF0aW89InhNaWRZTWlkIiBoZWlnaHQ9IjI0OC43MzI4OTQ4OTc0NjA5NCI+PHBhdGggZmlsbD0iIzMyNmRlNiIgZD0ibTgyLjA4NTE2MTMgMjQ0LjkzNDE5NGMtNS45NDU4MDY1IDAtMTEuNTYxMjkwMy0yLjY0MjU4MS0xNS4zNi03LjQzMjI1OWwtNTcuODA2NDUxNjItNzEuODQ1MTYxYy0zLjc5ODcwOTY4LTQuNzg5Njc3LTUuMjg1MTYxMjktMTAuOTAwNjQ1LTMuNzk4NzA5NjgtMTYuODQ2NDUxbDIwLjY0NTE2MTMtODkuNjgyNTgxMWMxLjMyMTI5MDMtNS45NDU4MDY0IDUuMjg1MTYxMy0xMC43MzU0ODM4IDEwLjczNTQ4MzktMTMuMzc4MDY0NWw4My41NzE2MTI4LTM5Ljk2OTAzMjI0YzIuNjQyNTgxLTEuMzIxMjkwMzIgNS42MTU0ODQtMS45ODE5MzU0OCA4LjU4ODM4Ny0xLjk4MTkzNTQ4czUuOTQ1ODA3LjY2MDY0NTE2IDguNTg4Mzg3IDEuOTgxOTM1NDhsODMuNTcxNjEzIDM5LjgwMzg3MDk0YzUuNDUwMzIzIDIuNjQyNTgwNyA5LjQxNDE5NCA3LjQzMjI1ODEgMTAuNzM1NDg0IDEzLjM3ODA2NDVsMjAuNjQ1MTYxIDg5LjY4MjU4MDRjMS4zMjEyOTEgNS45NDU4MDcgMCAxMi4wNTY3NzQtMy43OTg3MDkgMTYuODQ2NDUybC01Ny44MDY0NTIgNzEuODQ1MTYxYy0zLjc5ODcxIDQuNjI0NTE2LTkuNDE0MTk0IDcuNDMyMjU4LTE1LjM2IDcuNDMyMjU4eiIvPjxnIGZpbGw9IiNmZmYiPjxwYXRoIGQ9Im0xMjguNDk1NDg0IDcuOTI3NzQxOTRjMi4zMTIyNTggMCA0LjYyNDUxNi40OTU0ODM4NyA2Ljc3MTYxMyAxLjQ4NjQ1MTYxbDgzLjU3MTYxMyAzOS44MDM4NzA5NWM0LjI5NDE5MyAyLjE0NzA5NjggNy41OTc0MTkgNi4xMTA5Njc4IDguNTg4Mzg3IDEwLjczNTQ4MzlsMjAuNjQ1MTYxIDg5LjY4MjU4MDZjMS4xNTYxMjkgNC43ODk2NzcgMCA5Ljc0NDUxNi0zLjEzODA2NCAxMy41NDMyMjZsLTU3LjgwNjQ1MiA3MS44NDUxNjFjLTIuOTcyOTAzIDMuNzk4NzEtNy41OTc0MTkgNS45NDU4MDctMTIuMzg3MDk3IDUuOTQ1ODA3aC05Mi42NTU0ODM3Yy00Ljc4OTY3NzQgMC05LjQxNDE5MzYtMi4xNDcwOTctMTIuMzg3MDk2OC01Ljk0NTgwN2wtNTcuODA2NDUxNi03MS44NDUxNjFjLTIuOTcyOTAzMjItMy43OTg3MS00LjEyOTAzMjI1LTguNzUzNTQ5LTMuMTM4MDY0NTEtMTMuNTQzMjI2bDIwLjY0NTE2MTMxLTg5LjY4MjU4MDZjMS4xNTYxMjktNC43ODk2Nzc0IDQuMjk0MTkzNS04Ljc1MzU0ODQgOC41ODgzODcxLTEwLjczNTQ4MzlsODMuNTcxNjEzMi0zOS45NjkwMzIyNGMyLjE0NzA5Ni0uODI1ODA2NDUgNC42MjQ1MTYtMS4zMjEyOTAzMiA2LjkzNjc3NC0xLjMyMTI5MDMyem0wLTcuNzYyNTgwNjVjLTMuNDY4Mzg3IDAtNi45MzY3NzQuODI1ODA2NDUtMTAuMjQgMi4zMTIyNTgwNmwtODMuNTcxNjEzIDM5Ljk2OTAzMjI1Yy02LjYwNjQ1MTYgMy4xMzgwNjQ1LTExLjIzMDk2NzggOC45MTg3MDk3LTEyLjg4MjU4MDcgMTYuMDIwNjQ1MmwtMjAuNjQ1MTYxMjcgODkuNjgyNTgwMmMtMS42NTE2MTI5IDcuMTAxOTM2IDAgMTQuMzY5MDMzIDQuNjI0NTE2MTMgMjAuMTQ5Njc4bDU3LjgwNjQ1MTY0IDcxLjg0NTE2MWM0LjQ1OTM1NDggNS42MTU0ODQgMTEuMjMwOTY3NyA4Ljc1MzU0OSAxOC4zMzI5MDMyIDguNzUzNTQ5aDkyLjY1NTQ4NGM3LjEwMTkzNSAwIDEzLjg3MzU0OC0zLjEzODA2NSAxOC4zMzI5MDMtOC43NTM1NDlsNTcuODA2NDUyLTcxLjg0NTE2MWM0LjYyNDUxNi01LjYxNTQ4NCA2LjI3NjEyOS0xMy4wNDc3NDIgNC42MjQ1MTYtMjAuMTQ5Njc4bC0yMC42NDUxNjEtODkuNjgyNTgwMmMtMS42NTE2MTMtNy4xMDE5MzU1LTYuMjc2MTI5LTEyLjg4MjU4MDctMTIuODgyNTgxLTE2LjAyMDY0NTJsLTgzLjI0MTI5LTM5Ljk2OTAzMjI1Yy0zLjEzODA2NS0xLjQ4NjQ1MTYxLTYuNjA2NDUyLTIuMzEyMjU4MDYtMTAuMDc0ODM5LTIuMzEyMjU4MDZ6Ii8+PHBhdGggZD0ibTIxMi4yMzIyNTggMTQyLjUzNDE5NGMtLjE2NTE2MSAwLS4xNjUxNjEgMCAwIDBoLS4xNjUxNjFjLS4xNjUxNjIgMC0uMzMwMzIzIDAtLjMzMDMyMy0uMTY1MTYyLS4zMzAzMjIgMC0uNjYwNjQ1LS4xNjUxNjEtLjk5MDk2OC0uMTY1MTYxLTEuMTU2MTI5LS4xNjUxNjEtMi4xNDcwOTYtLjMzMDMyMy0zLjEzODA2NC0uMzMwMzIzLS40OTU0ODQgMC0uOTkwOTY4IDAtMS42NTE2MTMtLjE2NTE2MWgtLjE2NTE2MWMtMy40NjgzODctLjMzMDMyMi02LjI3NjEyOS0uNjYwNjQ1LTguOTE4NzEtMS40ODY0NTItMS4xNTYxMjktLjQ5NTQ4My0xLjQ4NjQ1Mi0xLjE1NjEyOS0xLjgxNjc3NC0xLjgxNjc3NCAwLS4xNjUxNjEtLjE2NTE2MS0uMTY1MTYxLS4xNjUxNjEtLjMzMDMyMmwtMi4xNDcwOTctLjY2MDY0NWMuOTkwOTY4LTcuNTk3NDIuNjYwNjQ1LTE1LjUyNTE2Mi0xLjE1NjEyOS0yMy4yODc3NDItMS44MTY3NzQtNy43NjI1ODEtNC45NTQ4MzktMTUuMDI5Njc3OC05LjI0OTAzMi0yMS42MzYxMjk0bDEuNjUxNjEyLTEuNDg2NDUxNnYtLjMzMDMyMjZjMC0uODI1ODA2NS4xNjUxNjItMS42NTE2MTI5LjgyNTgwNy0yLjQ3NzQxOTQgMS45ODE5MzUtMS44MTY3NzQyIDQuNDU5MzU1LTMuMzAzMjI1OCA3LjQzMjI1OC01LjEyLjQ5NTQ4NC0uMzMwMzIyNS45OTA5NjgtLjQ5NTQ4MzggMS40ODY0NTItLjgyNTgwNjQuOTkwOTY3LS40OTU0ODM5IDEuODE2Nzc0LS45OTA5Njc4IDIuODA3NzQxLTEuNjUxNjEyOS4xNjUxNjItLjE2NTE2MTMuNDk1NDg0LS4zMzAzMjI2LjgyNTgwNy0uNjYwNjQ1Mi4xNjUxNjEtLjE2NTE2MTMuMzMwMzIzLS4xNjUxNjEzLjMzMDMyMy0uMzMwMzIyNiAyLjMxMjI1OC0xLjk4MTkzNTQgMi44MDc3NDEtNS4yODUxNjEzIDEuMTU2MTI5LTcuNDMyMjU4LS44MjU4MDctMS4xNTYxMjkxLTIuMzEyMjU5LTEuODE2Nzc0Mi0zLjc5ODcxLTEuODE2Nzc0Mi0xLjMyMTI5IDAtMi40Nzc0MTkuNDk1NDgzOC0zLjYzMzU0OSAxLjMyMTI5MDMtLjE2NTE2MS4xNjUxNjEzLS4xNjUxNjEuMTY1MTYxMy0uMzMwMzIyLjMzMDMyMjYtLjMzMDMyMy4xNjUxNjEzLS40OTU0ODQuNDk1NDgzOS0uODI1ODA3LjY2MDY0NTEtLjgyNTgwNi44MjU4MDY1LTEuNDg2NDUxIDEuNDg2NDUxNy0yLjE0NzA5NiAyLjMxMjI1ODEtLjMzMDMyMy4zMzAzMjI2LS42NjA2NDUuODI1ODA2NS0xLjE1NjEyOSAxLjE1NjEyOS0yLjMxMjI1OCAyLjQ3NzQxOTQtNC40NTkzNTUgNC40NTkzNTQ5LTYuNjA2NDUyIDUuOTQ1ODA2NS0uNDk1NDg0LjMzMDMyMjYtLjk5MDk2OC40OTU0ODM5LTEuNDg2NDUyLjQ5NTQ4MzktLjMzMDMyMiAwLS42NjA2NDUgMC0uOTkwOTY3LS4xNjUxNjEzaC0uMzMwMzIzbC0xLjk4MTkzNSAxLjMyMTI5MDNjLTIuMTQ3MDk3LTIuMzEyMjU4MS00LjQ1OTM1NS00LjI5NDE5MzYtNi43NzE2MTMtNi4yNzYxMjktOS45MDk2NzgtNy43NjI1ODA3LTIxLjk2NjQ1Mi0xMi41NTIyNTgxLTM0LjUxODcxLTEzLjcwODM4NzFsLS4xNjUxNjEtMi4xNDcwOTY4Yy0uMTY1MTYyLS4xNjUxNjEzLS4xNjUxNjItLjE2NTE2MTMtLjMzMDMyMy0uMzMwMzIyNi0uNDk1NDg0LS40OTU0ODM5LTEuMTU2MTI5LS45OTA5Njc3LTEuMzIxMjktMi4xNDcwOTY4LS4xNjUxNjEtMi42NDI1ODA2LjE2NTE2MS01LjYxNTQ4MzguNDk1NDg0LTguOTE4NzA5NnYtLjE2NTE2MTNjMC0uNDk1NDgzOS4xNjUxNjEtMS4xNTYxMjkxLjMzMDMyMi0xLjY1MTYxMjkuMTY1MTYyLS45OTA5Njc4LjMzMDMyMy0xLjk4MTkzNTUuNDk1NDg0LTMuMTM4MDY0NnYtLjk5MDk2NzctLjQ5NTQ4MzljMC0yLjk3MjkwMzItMi4zMTIyNTgtNS40NTAzMjI1LTUuMTItNS40NTAzMjI1LTEuMzIxMjkgMC0yLjY0MjU4LjY2MDY0NTEtMy42MzM1NDggMS42NTE2MTI5LS45OTA5NjguOTkwOTY3Ny0xLjQ4NjQ1MiAyLjMxMjI1OC0xLjQ4NjQ1MiAzLjc5ODcwOTZ2LjMzMDMyMjYuOTkwOTY3OGMwIDEuMTU2MTI5LjE2NTE2MSAyLjE0NzA5NjcuNDk1NDg0IDMuMTM4MDY0NS4xNjUxNjEuNDk1NDgzOC4xNjUxNjEuOTkwOTY3Ny4zMzAzMjMgMS42NTE2MTI5di4xNjUxNjEzYy4zMzAzMjIgMy4zMDMyMjU4LjgyNTgwNiA2LjI3NjEyOS40OTU0ODMgOC45MTg3MDk2LS4xNjUxNjEgMS4xNTYxMjkxLS44MjU4MDYgMS42NTE2MTI5LTEuMzIxMjkgMi4xNDcwOTY4LS4xNjUxNjEuMTY1MTYxMy0uMTY1MTYxLjE2NTE2MTMtLjMzMDMyMi4zMzAzMjI2bC0uMTY1MTYyIDIuMTQ3MDk2OGMtMi45NzI5MDMuMzMwMzIyNi01Ljk0NTgwNi42NjA2NDUxLTguOTE4NzA5IDEuMzIxMjkwMy0xMi43MTc0MiAyLjgwNzc0MTktMjMuOTQ4Mzg3NSA5LjI0OTAzMjMtMzIuNzAxOTM1OSAxOC40OTgwNjQ1bC0xLjY1MTYxMjktMS4xNTYxMjloLS4zMzAzMjI2Yy0uMzMwMzIyNSAwLS42NjA2NDUxLjE2NTE2MTMtLjk5MDk2NzcuMTY1MTYxMy0uNDk1NDgzOSAwLS45OTA5Njc3LS4xNjUxNjEzLTEuNDg2NDUxNi0uNDk1NDgzOS0yLjE0NzA5NjgtMS40ODY0NTE2LTQuMjk0MTkzNi0zLjYzMzU0ODQtNi42MDY0NTE2LTYuMTEwOTY3Ny0uMzMwMzIyNi0uMzMwMzIyNi0uNjYwNjQ1Mi0uODI1ODA2NS0xLjE1NjEyOTEtMS4xNTYxMjkxLS42NjA2NDUxLS44MjU4MDY0LTEuMzIxMjkwMy0xLjQ4NjQ1MTYtMi4xNDcwOTY3LTIuMzEyMjU4LS4xNjUxNjEzLS4xNjUxNjEzLS40OTU0ODM5LS4zMzAzMjI2LS44MjU4MDY1LS42NjA2NDUyLS4xNjUxNjEzLS4xNjUxNjEzLS4zMzAzMjI2LS4xNjUxNjEzLS4zMzAzMjI2LS4zMzAzMjI2LS45OTA5Njc3LS44MjU4MDY0LTIuMzEyMjU4LTEuMzIxMjkwMy0zLjYzMzU0ODMtMS4zMjEyOTAzLTEuNDg2NDUxNyAwLTIuOTcyOTAzMy42NjA2NDUyLTMuNzk4NzA5NyAxLjgxNjc3NDItMS42NTE2MTI5IDIuMTQ3MDk2OC0xLjE1NjEyOTEgNS40NTAzMjI2IDEuMTU2MTI5IDcuNDMyMjU4MS4xNjUxNjEzIDAgLjE2NTE2MTMuMTY1MTYxMi4zMzAzMjI2LjE2NTE2MTIuMzMwMzIyNi4xNjUxNjEzLjQ5NTQ4MzkuNDk1NDgzOS44MjU4MDY0LjY2MDY0NTIuOTkwOTY3OC42NjA2NDUyIDEuODE2Nzc0MiAxLjE1NjEyOSAyLjgwNzc0MiAxLjY1MTYxMjkuNDk1NDgzOC4xNjUxNjEzLjk5MDk2NzcuNDk1NDgzOSAxLjQ4NjQ1MTYuODI1ODA2NSAyLjk3MjkwMzIgMS44MTY3NzQyIDUuNDUwMzIyNiAzLjMwMzIyNTggNy40MzIyNTgxIDUuMTIuODI1ODA2NC44MjU4MDY0LjgyNTgwNjQgMS42NTE2MTI5LjgyNTgwNjQgMi40Nzc0MTkzdi4zMzAzMjI2bDEuNjUxNjEyOSAxLjQ4NjQ1MTZjLS4zMzAzMjI2LjQ5NTQ4MzktLjY2MDY0NTIuODI1ODA2NS0uODI1ODA2NCAxLjMyMTI5MDMtOC4yNTgwNjQ2IDEzLjA0Nzc0Mi0xMS4zOTYxMjkxIDI4LjQwNzc0Mi05LjI0OTAzMjMgNDMuNjAyNTgxbC0yLjE0NzA5NjguNjYwNjQ1YzAgLjE2NTE2MS0uMTY1MTYxMy4xNjUxNjEtLjE2NTE2MTMuMzMwMzIyLS4zMzAzMjI1LjY2MDY0Ni0uODI1ODA2NCAxLjMyMTI5MS0xLjgxNjc3NDIgMS44MTY3NzUtMi40Nzc0MTkzLjgyNTgwNi01LjQ1MDMyMjUgMS4xNTYxMjktOC45MTg3MDk2IDEuNDg2NDUxaC0uMTY1MTYxM2MtLjQ5NTQ4MzkgMC0xLjE1NjEyOTEgMC0xLjY1MTYxMjkuMTY1MTYyLS45OTA5Njc4IDAtMS45ODE5MzU1LjE2NTE2MS0zLjEzODA2NDUuMzMwMzIyLS4zMzAzMjI2IDAtLjY2MDY0NTIuMTY1MTYxLS45OTA5Njc4LjE2NTE2MS0uMTY1MTYxMyAwLS4zMzAzMjI2IDAtLjQ5NTQ4MzkuMTY1MTYyLTIuOTcyOTAzMi42NjA2NDUtNC43ODk2Nzc0IDMuNDY4Mzg3LTQuMjk0MTkzNSA2LjExMDk2Ny40OTU0ODM5IDIuMzEyMjU4IDIuNjQyNTgwNiAzLjc5ODcxIDUuMjg1MTYxMyAzLjc5ODcxLjQ5NTQ4MzkgMCAuODI1ODA2NCAwIDEuMzIxMjkwMy0uMTY1MTYxLjE2NTE2MTMgMCAuMzMwMzIyNiAwIC4zMzAzMjI2LS4xNjUxNjEuMzMwMzIyNiAwIC42NjA2NDUxLS4xNjUxNjIuOTkwOTY3Ny0uMTY1MTYyIDEuMTU2MTI5MS0uMzMwMzIyIDEuOTgxOTM1NS0uNjYwNjQ1IDIuOTcyOTAzMy0xLjE1NjEyOS40OTU0ODM4LS4xNjUxNjEuOTkwOTY3Ny0uNDk1NDg0IDEuNDg2NDUxNi0uNjYwNjQ1aC4xNjUxNjEzYzMuMTM4MDY0NS0xLjE1NjEyOSA1Ljk0NTgwNjQtMi4xNDcwOTcgOC41ODgzODcxLTIuNDc3NDE5aC4zMzAzMjI1Yy45OTA5Njc4IDAgMS42NTE2MTI5LjQ5NTQ4NCAyLjE0NzA5NjguODI1ODA2LjE2NTE2MTMgMCAuMTY1MTYxMy4xNjUxNjEuMzMwMzIyNi4xNjUxNjFsMi4zMTIyNTgxLS4zMzAzMjJjMy45NjM4NzA5IDEyLjIyMTkzNSAxMS41NjEyOTAzIDIzLjEyMjU4IDIxLjYzNjEyOSAzMS4wNTAzMjIgMi4zMTIyNTggMS44MTY3NzUgNC42MjQ1MTYxIDMuMzAzMjI2IDcuMTAxOTM1NSA0Ljc4OTY3OGwtLjk5MDk2NzggMi4xNDcwOTdjMCAuMTY1MTYxLjE2NTE2MTMuMTY1MTYxLjE2NTE2MTMuMzMwMzIyLjMzMDMyMjYuNjYwNjQ1LjY2MDY0NTIgMS40ODY0NTIuMzMwMzIyNiAyLjY0MjU4MS0uOTkwOTY3NyAyLjQ3NzQxOS0yLjQ3NzQxOTQgNC45NTQ4MzktNC4yOTQxOTM2IDcuNzYyNTh2LjE2NTE2MmMtLjMzMDMyMjUuNDk1NDg0LS42NjA2NDUxLjgyNTgwNi0uOTkwOTY3NyAxLjMyMTI5LS42NjA2NDUyLjgyNTgwNy0xLjE1NjEyOSAxLjY1MTYxMy0xLjgxNjc3NDIgMi42NDI1ODEtLjE2NTE2MTMuMTY1MTYxLS4zMzAzMjI2LjQ5NTQ4NC0uNDk1NDgzOS44MjU4MDYgMCAuMTY1MTYxLS4xNjUxNjEyLjMzMDMyMy0uMTY1MTYxMi4zMzAzMjMtMS4zMjEyOTA0IDIuODA3NzQyLS4zMzAzMjI2IDUuOTQ1ODA2IDIuMTQ3MDk2NyA3LjEwMTkzNS42NjA2NDUyLjMzMDMyMyAxLjMyMTI5MDMuNDk1NDg0IDEuOTgxOTM1NS40OTU0ODQgMS45ODE5MzU1IDAgMy45NjM4NzEtMS4zMjEyOSA0Ljk1NDgzODctMy4xMzgwNjQgMC0uMTY1MTYyLjE2NTE2MTMtLjMzMDMyMy4xNjUxNjEzLS4zMzAzMjMuMTY1MTYxMy0uMzMwMzIzLjMzMDMyMjYtLjY2MDY0NS40OTU0ODM5LS44MjU4MDYuNDk1NDgzOS0xLjE1NjEyOS42NjA2NDUxLTEuOTgxOTM2Ljk5MDk2NzctMi45NzI5MDQuMTY1MTYxMy0uNDk1NDg0LjMzMDMyMjYtLjk5MDk2Ny40OTU0ODM5LTEuNDg2NDUxIDEuMTU2MTI4OC0zLjMwMzIyNiAxLjk4MTkzNTgtNS45NDU4MDcgMy40NjgzODY4LTguMjU4MDY1LjY2MDY0NS0uOTkwOTY4IDEuNDg2NDUyLTEuMTU2MTI5IDIuMTQ3MDk3LTEuNDg2NDUxLjE2NTE2MSAwIC4xNjUxNjEgMCAuMzMwMzIzLS4xNjUxNjJsMS4xNTYxMjktMi4xNDcwOTZjNy4yNjcwOTYgMi44MDc3NDEgMTUuMTk0ODM4IDQuMjk0MTkzIDIzLjEyMjU4IDQuMjk0MTkzIDQuNzg5Njc4IDAgOS43NDQ1MTYtLjQ5NTQ4NCAxNC4zNjkwMzMtMS42NTE2MTMgMi45NzI5MDMtLjY2MDY0NSA1Ljc4MDY0NS0xLjQ4NjQ1MSA4LjU4ODM4Ny0yLjQ3NzQxOWwuOTkwOTY3IDEuODE2Nzc0Yy4xNjUxNjIgMCAuMTY1MTYyIDAgLjMzMDMyMy4xNjUxNjEuODI1ODA2LjE2NTE2MiAxLjQ4NjQ1Mi40OTU0ODQgMi4xNDcwOTcgMS40ODY0NTIgMS4zMjEyOSAyLjMxMjI1OCAyLjMxMjI1OCA1LjEyIDMuNDY4Mzg3IDguMjU4MDY0di4xNjUxNjJjLjE2NTE2MS40OTU0ODQuMzMwMzIyLjk5MDk2Ny40OTU0ODQgMS40ODY0NTEuMzMwMzIyLjk5MDk2OC40OTU0ODQgMS45ODE5MzYuOTkwOTY3IDIuOTcyOTA0LjE2NTE2Mi4zMzAzMjIuMzMwMzIzLjQ5NTQ4My40OTU0ODQuODI1ODA2IDAgLjE2NTE2MS4xNjUxNjIuMzMwMzIzLjE2NTE2Mi4zMzAzMjMuOTkwOTY3IDEuOTgxOTM1IDIuOTcyOTAzIDMuMTM4MDY0IDQuOTU0ODM4IDMuMTM4MDY0LjY2MDY0NiAwIDEuMzIxMjkxLS4xNjUxNjEgMS45ODE5MzYtLjQ5NTQ4NCAxLjE1NjEyOS0uNjYwNjQ1IDIuMTQ3MDk3LTEuNjUxNjEzIDIuNDc3NDE5LTIuOTcyOTAzLjMzMDMyMy0xLjMyMTI5LjMzMDMyMy0yLjgwNzc0Mi0uMzMwMzIyLTQuMTI5MDMyIDAtLjE2NTE2Mi0uMTY1MTYyLS4xNjUxNjItLjE2NTE2Mi0uMzMwMzIzLS4xNjUxNjEtLjMzMDMyMi0uMzMwMzIyLS42NjA2NDUtLjQ5NTQ4NC0uODI1ODA2LS40OTU0ODMtLjk5MDk2OC0xLjE1NjEyOS0xLjgxNjc3NC0xLjgxNjc3NC0yLjY0MjU4MS0uMzMwMzIyLS40OTU0ODQtLjY2MDY0NS0uODI1ODA2LS45OTA5NjctMS4zMjEyOXYtLjE2NTE2MmMtMS44MTY3NzUtMi44MDc3NDEtMy40NjgzODgtNS4yODUxNjEtNC4yOTQxOTQtNy43NjI1OC0uMzMwMzIzLTEuMTU2MTI5IDAtMS44MTY3NzQuMTY1MTYxLTIuNjQyNTgxIDAtLjE2NTE2MS4xNjUxNjItLjE2NTE2MS4xNjUxNjItLjMzMDMyMmwtLjgyNTgwNy0xLjk4MTkzNmM4Ljc1MzU0OC01LjEyIDE2LjE4NTgwNy0xMi4zODcwOTcgMjEuODAxMjktMjEuMzA1ODA2IDIuOTcyOTA0LTQuNjI0NTE2IDUuMjg1MTYyLTkuNzQ0NTE2IDYuOTM2Nzc1LTE0Ljg2NDUxNmwxLjk4MTkzNS4zMzAzMjJjLjE2NTE2MSAwIC4xNjUxNjEtLjE2NTE2MS4zMzAzMjMtLjE2NTE2MS42NjA2NDUtLjMzMDMyMyAxLjE1NjEyOS0uODI1ODA3IDIuMTQ3MDk2LS44MjU4MDdoLjMzMDMyM2MyLjY0MjU4MS4zMzAzMjMgNS40NTAzMjMgMS4zMjEyOTEgOC41ODgzODcgMi40Nzc0MmguMTY1MTYxYy40OTU0ODQuMTY1MTYxLjk5MDk2OC40OTU0ODQgMS40ODY0NTIuNjYwNjQ1Ljk5MDk2OC40OTU0ODQgMS44MTY3NzQuODI1ODA2IDIuOTcyOTAzIDEuMTU2MTI5LjMzMDMyMyAwIC42NjA2NDUuMTY1MTYxLjk5MDk2OC4xNjUxNjEuMTY1MTYxIDAgLjMzMDMyMyAwIC40OTU0ODQuMTY1MTYyLjQ5NTQ4NC4xNjUxNjEuODI1ODA2LjE2NTE2MSAxLjMyMTI5LjE2NTE2MSAyLjQ3NzQyIDAgNC42MjQ1MTYtMS42NTE2MTMgNS4yODUxNjEtMy43OTg3MSAwLTEuOTgxOTM1LTEuODE2Nzc0LTQuNjI0NTE2LTQuNzg5Njc3LTUuNDUwMzIyem0tNzYuNDY5Njc3LTguMDkyOTA0LTcuMjY3MDk3IDMuNDY4Mzg3LTcuMjY3MDk3LTMuNDY4Mzg3LTEuODE2Nzc0LTcuNzYyNTggNC45NTQ4MzktNi4yNzYxMjloOC4wOTI5MDNsNC45NTQ4MzkgNi4yNzYxMjl6bTQzLjEwNzA5Ni0xNy4xNzY3NzRjMS4zMjEyOTEgNS42MTU0ODQgMS42NTE2MTMgMTEuMjMwOTY4IDEuMTU2MTI5IDE2LjY4MTI5bC0yNS4yNjk2NzctNy4yNjcwOTZjLTIuMzEyMjU4LS42NjA2NDUtMy42MzM1NDgtMi45NzI5MDQtMy4xMzgwNjQtNS4yODUxNjIuMTY1MTYxLS42NjA2NDUuNDk1NDgzLTEuMzIxMjkuOTkwOTY3LTEuODE2Nzc0bDE5Ljk4NDUxNi0xOC4wMDI1OGMyLjgwNzc0MiA0LjYyNDUxNiA0Ljk1NDgzOSA5LjkwOTY3NyA2LjI3NjEyOSAxNS42OTAzMjJ6bS0xNC4yMDM4NzEtMjUuNTk5OTk5OS0yMS42MzYxMjkgMTUuMzU5OTk5OWMtMS44MTY3NzQgMS4xNTYxMjktNC4yOTQxOTMuODI1ODA3LTUuNzgwNjQ1LS45OTA5NjgtLjQ5NTQ4NC0uNDk1NDgzLS42NjA2NDUtMS4xNTYxMjktLjgyNTgwNi0xLjgxNjc3NGwtMS40ODY0NTItMjYuOTIxMjkwMWMxMS4zOTYxMjkgMS4zMjEyOTAzIDIxLjgwMTI5MSA2LjQ0MTI5MDMgMjkuNzI5MDMyIDE0LjM2OTAzMjJ6bS00Ny44OTY3NzQtMTMuNTQzMjI1OGMxLjgxNjc3NC0uMzMwMzIyNiAzLjQ2ODM4Ny0uNjYwNjQ1MSA1LjI4NTE2Mi0uOTkwOTY3N2wtMS40ODY0NTIgMjYuNDI1ODA2NGMtLjE2NTE2MSAyLjMxMjI1OC0xLjk4MTkzNiA0LjI5NDE5NC00LjQ1OTM1NSA0LjI5NDE5NC0uNjYwNjQ1IDAtMS40ODY0NTItLjE2NTE2Mi0xLjk4MTkzNS0uNDk1NDg0bC0yMS45NjY0NTItMTUuNjkwMzIyOWM2Ljc3MTYxMjktNi43NzE2MTI5IDE1LjE5NDgzOS0xMS4zOTYxMjkgMjQuNjA5MDMyLTEzLjU0MzIyNTh6bS0zMi41MzY3NzM5IDIzLjQ1MjkwMzcgMTkuNjU0MTkzOSAxNy41MDcwOTZjMS44MTY3NzQgMS40ODY0NTIgMS45ODE5MzUgNC4yOTQxOTQuNDk1NDgzIDYuMTEwOTY4LS40OTU0ODMuNjYwNjQ1LTEuMTU2MTI5IDEuMTU2MTI5LTEuOTgxOTM1IDEuMzIxMjlsLTI1LjYgNy40MzIyNThjLS45OTA5Njc3LTExLjIzMDk2NyAxLjQ4NjQ1MTYtMjIuNjI3MDk2IDcuNDMyMjU4MS0zMi4zNzE2MTJ6bS00LjQ1OTM1NDkgNDQuNzU4NzA5IDI2LjI2MDY0NDgtNC40NTkzNTVjMi4xNDcwOTctLjE2NTE2MSA0LjEyOTAzMyAxLjMyMTI5MSA0LjYyNDUxNyAzLjQ2ODM4Ny4xNjUxNjEuOTkwOTY4LjE2NTE2MSAxLjgxNjc3NS0uMTY1MTYyIDIuNjQyNTgxbC0xMC4wNzQ4MzggMjQuMjc4NzFjLTkuMjQ5MDMyNy01Ljk0NTgwNy0xNi42ODEyOTA4LTE1LjAyOTY3OC0yMC42NDUxNjE4LTI1LjkzMDMyM3ptNjAuMjgzODcwOCAzMi44NjcwOTdjLTMuNzk4NzA5LjgyNTgwNi03LjU5NzQxOSAxLjMyMTI5LTExLjU2MTI5IDEuMzIxMjktNS43ODA2NDUgMC0xMS4zOTYxMjktLjk5MDk2Ny0xNi42ODEyOS0yLjY0MjU4bDEzLjA0Nzc0MS0yMy42MTgwNjVjMS4zMjEyOTEtMS40ODY0NTEgMy40NjgzODgtMi4xNDcwOTcgNS4yODUxNjItMS4xNTYxMjkuODI1ODA2LjQ5NTQ4NCAxLjQ4NjQ1MSAxLjE1NjEyOSAxLjk4MTkzNSAxLjgxNjc3NGwxMi43MTc0MiAyMi45NTc0MmMtMS40ODY0NTIuNDk1NDg0LTMuMTM4MDY1LjgyNTgwNi00Ljc4OTY3OCAxLjMyMTI5em0zMi4yMDY0NTItMjIuOTU3NDE5Yy00LjEyOTAzMiA2LjYwNjQ1MS05LjU3OTM1NSAxMS44OTE2MTMtMTUuODU1NDg0IDE2LjAyMDY0NWwtMTAuNDA1MTYxLTI0LjkzOTM1NWMtLjQ5NTQ4NC0xLjk4MTkzNi4zMzAzMjItNC4xMjkwMzIgMi4zMTIyNTgtNS4xMi42NjA2NDUtLjMzMDMyMyAxLjQ4NjQ1MS0uNDk1NDg0IDIuMzEyMjU4LS40OTU0ODRsMjYuNDI1ODA2IDQuNDU5MzU1Yy0uOTkwOTY4IDMuNjMzNTQ4LTIuNjQyNTggNi45MzY3NzQtNC43ODk2NzcgMTAuMDc0ODM5eiIvPjwvZz48L3N2Zz4=;" vertex="1" parent="1">
          <mxGeometry x="-301.09000000000003" y="1443.5" width="46.09" height="45" as="geometry" />
        </mxCell>
        <mxCell id="4ZC3k0Vkt_Njtrgb3o6p-65" value="" style="image;sketch=0;aspect=fixed;html=1;points=[];align=center;fontSize=12;image=img/lib/mscae/VM_Linux.svg;" vertex="1" parent="1">
          <mxGeometry x="-245.91000000000003" y="1429" width="80.43" height="74" as="geometry" />
        </mxCell>
        <mxCell id="4ZC3k0Vkt_Njtrgb3o6p-66" value="" style="shape=image;verticalLabelPosition=bottom;labelBackgroundColor=default;verticalAlign=top;aspect=fixed;imageAspect=0;editableCssRules=.*;image=data:image/svg+xml,PHN2ZyB4bWxucz0iaHR0cDovL3d3dy53My5vcmcvMjAwMC9zdmciIHdpZHRoPSIyNTUuNDMyNDY0NTk5NjA5MzgiIHZpZXdCb3g9IjAuNTMxNTIwMTg3ODU0NzY2OCAwLjE2NTE1ODk4NzA0NTI4ODA5IDI1NS40MzI0NjQ1OTk2MDkzOCAyNDguNzMyODk0ODk3NDYwOTQiIHByZXNlcnZlQXNwZWN0UmF0aW89InhNaWRZTWlkIiBoZWlnaHQ9IjI0OC43MzI4OTQ4OTc0NjA5NCI+PHBhdGggZmlsbD0iIzMyNmRlNiIgZD0ibTgyLjA4NTE2MTMgMjQ0LjkzNDE5NGMtNS45NDU4MDY1IDAtMTEuNTYxMjkwMy0yLjY0MjU4MS0xNS4zNi03LjQzMjI1OWwtNTcuODA2NDUxNjItNzEuODQ1MTYxYy0zLjc5ODcwOTY4LTQuNzg5Njc3LTUuMjg1MTYxMjktMTAuOTAwNjQ1LTMuNzk4NzA5NjgtMTYuODQ2NDUxbDIwLjY0NTE2MTMtODkuNjgyNTgxMWMxLjMyMTI5MDMtNS45NDU4MDY0IDUuMjg1MTYxMy0xMC43MzU0ODM4IDEwLjczNTQ4MzktMTMuMzc4MDY0NWw4My41NzE2MTI4LTM5Ljk2OTAzMjI0YzIuNjQyNTgxLTEuMzIxMjkwMzIgNS42MTU0ODQtMS45ODE5MzU0OCA4LjU4ODM4Ny0xLjk4MTkzNTQ4czUuOTQ1ODA3LjY2MDY0NTE2IDguNTg4Mzg3IDEuOTgxOTM1NDhsODMuNTcxNjEzIDM5LjgwMzg3MDk0YzUuNDUwMzIzIDIuNjQyNTgwNyA5LjQxNDE5NCA3LjQzMjI1ODEgMTAuNzM1NDg0IDEzLjM3ODA2NDVsMjAuNjQ1MTYxIDg5LjY4MjU4MDRjMS4zMjEyOTEgNS45NDU4MDcgMCAxMi4wNTY3NzQtMy43OTg3MDkgMTYuODQ2NDUybC01Ny44MDY0NTIgNzEuODQ1MTYxYy0zLjc5ODcxIDQuNjI0NTE2LTkuNDE0MTk0IDcuNDMyMjU4LTE1LjM2IDcuNDMyMjU4eiIvPjxnIGZpbGw9IiNmZmYiPjxwYXRoIGQ9Im0xMjguNDk1NDg0IDcuOTI3NzQxOTRjMi4zMTIyNTggMCA0LjYyNDUxNi40OTU0ODM4NyA2Ljc3MTYxMyAxLjQ4NjQ1MTYxbDgzLjU3MTYxMyAzOS44MDM4NzA5NWM0LjI5NDE5MyAyLjE0NzA5NjggNy41OTc0MTkgNi4xMTA5Njc4IDguNTg4Mzg3IDEwLjczNTQ4MzlsMjAuNjQ1MTYxIDg5LjY4MjU4MDZjMS4xNTYxMjkgNC43ODk2NzcgMCA5Ljc0NDUxNi0zLjEzODA2NCAxMy41NDMyMjZsLTU3LjgwNjQ1MiA3MS44NDUxNjFjLTIuOTcyOTAzIDMuNzk4NzEtNy41OTc0MTkgNS45NDU4MDctMTIuMzg3MDk3IDUuOTQ1ODA3aC05Mi42NTU0ODM3Yy00Ljc4OTY3NzQgMC05LjQxNDE5MzYtMi4xNDcwOTctMTIuMzg3MDk2OC01Ljk0NTgwN2wtNTcuODA2NDUxNi03MS44NDUxNjFjLTIuOTcyOTAzMjItMy43OTg3MS00LjEyOTAzMjI1LTguNzUzNTQ5LTMuMTM4MDY0NTEtMTMuNTQzMjI2bDIwLjY0NTE2MTMxLTg5LjY4MjU4MDZjMS4xNTYxMjktNC43ODk2Nzc0IDQuMjk0MTkzNS04Ljc1MzU0ODQgOC41ODgzODcxLTEwLjczNTQ4MzlsODMuNTcxNjEzMi0zOS45NjkwMzIyNGMyLjE0NzA5Ni0uODI1ODA2NDUgNC42MjQ1MTYtMS4zMjEyOTAzMiA2LjkzNjc3NC0xLjMyMTI5MDMyem0wLTcuNzYyNTgwNjVjLTMuNDY4Mzg3IDAtNi45MzY3NzQuODI1ODA2NDUtMTAuMjQgMi4zMTIyNTgwNmwtODMuNTcxNjEzIDM5Ljk2OTAzMjI1Yy02LjYwNjQ1MTYgMy4xMzgwNjQ1LTExLjIzMDk2NzggOC45MTg3MDk3LTEyLjg4MjU4MDcgMTYuMDIwNjQ1MmwtMjAuNjQ1MTYxMjcgODkuNjgyNTgwMmMtMS42NTE2MTI5IDcuMTAxOTM2IDAgMTQuMzY5MDMzIDQuNjI0NTE2MTMgMjAuMTQ5Njc4bDU3LjgwNjQ1MTY0IDcxLjg0NTE2MWM0LjQ1OTM1NDggNS42MTU0ODQgMTEuMjMwOTY3NyA4Ljc1MzU0OSAxOC4zMzI5MDMyIDguNzUzNTQ5aDkyLjY1NTQ4NGM3LjEwMTkzNSAwIDEzLjg3MzU0OC0zLjEzODA2NSAxOC4zMzI5MDMtOC43NTM1NDlsNTcuODA2NDUyLTcxLjg0NTE2MWM0LjYyNDUxNi01LjYxNTQ4NCA2LjI3NjEyOS0xMy4wNDc3NDIgNC42MjQ1MTYtMjAuMTQ5Njc4bC0yMC42NDUxNjEtODkuNjgyNTgwMmMtMS42NTE2MTMtNy4xMDE5MzU1LTYuMjc2MTI5LTEyLjg4MjU4MDctMTIuODgyNTgxLTE2LjAyMDY0NTJsLTgzLjI0MTI5LTM5Ljk2OTAzMjI1Yy0zLjEzODA2NS0xLjQ4NjQ1MTYxLTYuNjA2NDUyLTIuMzEyMjU4MDYtMTAuMDc0ODM5LTIuMzEyMjU4MDZ6Ii8+PHBhdGggZD0ibTIxMi4yMzIyNTggMTQyLjUzNDE5NGMtLjE2NTE2MSAwLS4xNjUxNjEgMCAwIDBoLS4xNjUxNjFjLS4xNjUxNjIgMC0uMzMwMzIzIDAtLjMzMDMyMy0uMTY1MTYyLS4zMzAzMjIgMC0uNjYwNjQ1LS4xNjUxNjEtLjk5MDk2OC0uMTY1MTYxLTEuMTU2MTI5LS4xNjUxNjEtMi4xNDcwOTYtLjMzMDMyMy0zLjEzODA2NC0uMzMwMzIzLS40OTU0ODQgMC0uOTkwOTY4IDAtMS42NTE2MTMtLjE2NTE2MWgtLjE2NTE2MWMtMy40NjgzODctLjMzMDMyMi02LjI3NjEyOS0uNjYwNjQ1LTguOTE4NzEtMS40ODY0NTItMS4xNTYxMjktLjQ5NTQ4My0xLjQ4NjQ1Mi0xLjE1NjEyOS0xLjgxNjc3NC0xLjgxNjc3NCAwLS4xNjUxNjEtLjE2NTE2MS0uMTY1MTYxLS4xNjUxNjEtLjMzMDMyMmwtMi4xNDcwOTctLjY2MDY0NWMuOTkwOTY4LTcuNTk3NDIuNjYwNjQ1LTE1LjUyNTE2Mi0xLjE1NjEyOS0yMy4yODc3NDItMS44MTY3NzQtNy43NjI1ODEtNC45NTQ4MzktMTUuMDI5Njc3OC05LjI0OTAzMi0yMS42MzYxMjk0bDEuNjUxNjEyLTEuNDg2NDUxNnYtLjMzMDMyMjZjMC0uODI1ODA2NS4xNjUxNjItMS42NTE2MTI5LjgyNTgwNy0yLjQ3NzQxOTQgMS45ODE5MzUtMS44MTY3NzQyIDQuNDU5MzU1LTMuMzAzMjI1OCA3LjQzMjI1OC01LjEyLjQ5NTQ4NC0uMzMwMzIyNS45OTA5NjgtLjQ5NTQ4MzggMS40ODY0NTItLjgyNTgwNjQuOTkwOTY3LS40OTU0ODM5IDEuODE2Nzc0LS45OTA5Njc4IDIuODA3NzQxLTEuNjUxNjEyOS4xNjUxNjItLjE2NTE2MTMuNDk1NDg0LS4zMzAzMjI2LjgyNTgwNy0uNjYwNjQ1Mi4xNjUxNjEtLjE2NTE2MTMuMzMwMzIzLS4xNjUxNjEzLjMzMDMyMy0uMzMwMzIyNiAyLjMxMjI1OC0xLjk4MTkzNTQgMi44MDc3NDEtNS4yODUxNjEzIDEuMTU2MTI5LTcuNDMyMjU4LS44MjU4MDctMS4xNTYxMjkxLTIuMzEyMjU5LTEuODE2Nzc0Mi0zLjc5ODcxLTEuODE2Nzc0Mi0xLjMyMTI5IDAtMi40Nzc0MTkuNDk1NDgzOC0zLjYzMzU0OSAxLjMyMTI5MDMtLjE2NTE2MS4xNjUxNjEzLS4xNjUxNjEuMTY1MTYxMy0uMzMwMzIyLjMzMDMyMjYtLjMzMDMyMy4xNjUxNjEzLS40OTU0ODQuNDk1NDgzOS0uODI1ODA3LjY2MDY0NTEtLjgyNTgwNi44MjU4MDY1LTEuNDg2NDUxIDEuNDg2NDUxNy0yLjE0NzA5NiAyLjMxMjI1ODEtLjMzMDMyMy4zMzAzMjI2LS42NjA2NDUuODI1ODA2NS0xLjE1NjEyOSAxLjE1NjEyOS0yLjMxMjI1OCAyLjQ3NzQxOTQtNC40NTkzNTUgNC40NTkzNTQ5LTYuNjA2NDUyIDUuOTQ1ODA2NS0uNDk1NDg0LjMzMDMyMjYtLjk5MDk2OC40OTU0ODM5LTEuNDg2NDUyLjQ5NTQ4MzktLjMzMDMyMiAwLS42NjA2NDUgMC0uOTkwOTY3LS4xNjUxNjEzaC0uMzMwMzIzbC0xLjk4MTkzNSAxLjMyMTI5MDNjLTIuMTQ3MDk3LTIuMzEyMjU4MS00LjQ1OTM1NS00LjI5NDE5MzYtNi43NzE2MTMtNi4yNzYxMjktOS45MDk2NzgtNy43NjI1ODA3LTIxLjk2NjQ1Mi0xMi41NTIyNTgxLTM0LjUxODcxLTEzLjcwODM4NzFsLS4xNjUxNjEtMi4xNDcwOTY4Yy0uMTY1MTYyLS4xNjUxNjEzLS4xNjUxNjItLjE2NTE2MTMtLjMzMDMyMy0uMzMwMzIyNi0uNDk1NDg0LS40OTU0ODM5LTEuMTU2MTI5LS45OTA5Njc3LTEuMzIxMjktMi4xNDcwOTY4LS4xNjUxNjEtMi42NDI1ODA2LjE2NTE2MS01LjYxNTQ4MzguNDk1NDg0LTguOTE4NzA5NnYtLjE2NTE2MTNjMC0uNDk1NDgzOS4xNjUxNjEtMS4xNTYxMjkxLjMzMDMyMi0xLjY1MTYxMjkuMTY1MTYyLS45OTA5Njc4LjMzMDMyMy0xLjk4MTkzNTUuNDk1NDg0LTMuMTM4MDY0NnYtLjk5MDk2NzctLjQ5NTQ4MzljMC0yLjk3MjkwMzItMi4zMTIyNTgtNS40NTAzMjI1LTUuMTItNS40NTAzMjI1LTEuMzIxMjkgMC0yLjY0MjU4LjY2MDY0NTEtMy42MzM1NDggMS42NTE2MTI5LS45OTA5NjguOTkwOTY3Ny0xLjQ4NjQ1MiAyLjMxMjI1OC0xLjQ4NjQ1MiAzLjc5ODcwOTZ2LjMzMDMyMjYuOTkwOTY3OGMwIDEuMTU2MTI5LjE2NTE2MSAyLjE0NzA5NjcuNDk1NDg0IDMuMTM4MDY0NS4xNjUxNjEuNDk1NDgzOC4xNjUxNjEuOTkwOTY3Ny4zMzAzMjMgMS42NTE2MTI5di4xNjUxNjEzYy4zMzAzMjIgMy4zMDMyMjU4LjgyNTgwNiA2LjI3NjEyOS40OTU0ODMgOC45MTg3MDk2LS4xNjUxNjEgMS4xNTYxMjkxLS44MjU4MDYgMS42NTE2MTI5LTEuMzIxMjkgMi4xNDcwOTY4LS4xNjUxNjEuMTY1MTYxMy0uMTY1MTYxLjE2NTE2MTMtLjMzMDMyMi4zMzAzMjI2bC0uMTY1MTYyIDIuMTQ3MDk2OGMtMi45NzI5MDMuMzMwMzIyNi01Ljk0NTgwNi42NjA2NDUxLTguOTE4NzA5IDEuMzIxMjkwMy0xMi43MTc0MiAyLjgwNzc0MTktMjMuOTQ4Mzg3NSA5LjI0OTAzMjMtMzIuNzAxOTM1OSAxOC40OTgwNjQ1bC0xLjY1MTYxMjktMS4xNTYxMjloLS4zMzAzMjI2Yy0uMzMwMzIyNSAwLS42NjA2NDUxLjE2NTE2MTMtLjk5MDk2NzcuMTY1MTYxMy0uNDk1NDgzOSAwLS45OTA5Njc3LS4xNjUxNjEzLTEuNDg2NDUxNi0uNDk1NDgzOS0yLjE0NzA5NjgtMS40ODY0NTE2LTQuMjk0MTkzNi0zLjYzMzU0ODQtNi42MDY0NTE2LTYuMTEwOTY3Ny0uMzMwMzIyNi0uMzMwMzIyNi0uNjYwNjQ1Mi0uODI1ODA2NS0xLjE1NjEyOTEtMS4xNTYxMjkxLS42NjA2NDUxLS44MjU4MDY0LTEuMzIxMjkwMy0xLjQ4NjQ1MTYtMi4xNDcwOTY3LTIuMzEyMjU4LS4xNjUxNjEzLS4xNjUxNjEzLS40OTU0ODM5LS4zMzAzMjI2LS44MjU4MDY1LS42NjA2NDUyLS4xNjUxNjEzLS4xNjUxNjEzLS4zMzAzMjI2LS4xNjUxNjEzLS4zMzAzMjI2LS4zMzAzMjI2LS45OTA5Njc3LS44MjU4MDY0LTIuMzEyMjU4LTEuMzIxMjkwMy0zLjYzMzU0ODMtMS4zMjEyOTAzLTEuNDg2NDUxNyAwLTIuOTcyOTAzMy42NjA2NDUyLTMuNzk4NzA5NyAxLjgxNjc3NDItMS42NTE2MTI5IDIuMTQ3MDk2OC0xLjE1NjEyOTEgNS40NTAzMjI2IDEuMTU2MTI5IDcuNDMyMjU4MS4xNjUxNjEzIDAgLjE2NTE2MTMuMTY1MTYxMi4zMzAzMjI2LjE2NTE2MTIuMzMwMzIyNi4xNjUxNjEzLjQ5NTQ4MzkuNDk1NDgzOS44MjU4MDY0LjY2MDY0NTIuOTkwOTY3OC42NjA2NDUyIDEuODE2Nzc0MiAxLjE1NjEyOSAyLjgwNzc0MiAxLjY1MTYxMjkuNDk1NDgzOC4xNjUxNjEzLjk5MDk2NzcuNDk1NDgzOSAxLjQ4NjQ1MTYuODI1ODA2NSAyLjk3MjkwMzIgMS44MTY3NzQyIDUuNDUwMzIyNiAzLjMwMzIyNTggNy40MzIyNTgxIDUuMTIuODI1ODA2NC44MjU4MDY0LjgyNTgwNjQgMS42NTE2MTI5LjgyNTgwNjQgMi40Nzc0MTkzdi4zMzAzMjI2bDEuNjUxNjEyOSAxLjQ4NjQ1MTZjLS4zMzAzMjI2LjQ5NTQ4MzktLjY2MDY0NTIuODI1ODA2NS0uODI1ODA2NCAxLjMyMTI5MDMtOC4yNTgwNjQ2IDEzLjA0Nzc0Mi0xMS4zOTYxMjkxIDI4LjQwNzc0Mi05LjI0OTAzMjMgNDMuNjAyNTgxbC0yLjE0NzA5NjguNjYwNjQ1YzAgLjE2NTE2MS0uMTY1MTYxMy4xNjUxNjEtLjE2NTE2MTMuMzMwMzIyLS4zMzAzMjI1LjY2MDY0Ni0uODI1ODA2NCAxLjMyMTI5MS0xLjgxNjc3NDIgMS44MTY3NzUtMi40Nzc0MTkzLjgyNTgwNi01LjQ1MDMyMjUgMS4xNTYxMjktOC45MTg3MDk2IDEuNDg2NDUxaC0uMTY1MTYxM2MtLjQ5NTQ4MzkgMC0xLjE1NjEyOTEgMC0xLjY1MTYxMjkuMTY1MTYyLS45OTA5Njc4IDAtMS45ODE5MzU1LjE2NTE2MS0zLjEzODA2NDUuMzMwMzIyLS4zMzAzMjI2IDAtLjY2MDY0NTIuMTY1MTYxLS45OTA5Njc4LjE2NTE2MS0uMTY1MTYxMyAwLS4zMzAzMjI2IDAtLjQ5NTQ4MzkuMTY1MTYyLTIuOTcyOTAzMi42NjA2NDUtNC43ODk2Nzc0IDMuNDY4Mzg3LTQuMjk0MTkzNSA2LjExMDk2Ny40OTU0ODM5IDIuMzEyMjU4IDIuNjQyNTgwNiAzLjc5ODcxIDUuMjg1MTYxMyAzLjc5ODcxLjQ5NTQ4MzkgMCAuODI1ODA2NCAwIDEuMzIxMjkwMy0uMTY1MTYxLjE2NTE2MTMgMCAuMzMwMzIyNiAwIC4zMzAzMjI2LS4xNjUxNjEuMzMwMzIyNiAwIC42NjA2NDUxLS4xNjUxNjIuOTkwOTY3Ny0uMTY1MTYyIDEuMTU2MTI5MS0uMzMwMzIyIDEuOTgxOTM1NS0uNjYwNjQ1IDIuOTcyOTAzMy0xLjE1NjEyOS40OTU0ODM4LS4xNjUxNjEuOTkwOTY3Ny0uNDk1NDg0IDEuNDg2NDUxNi0uNjYwNjQ1aC4xNjUxNjEzYzMuMTM4MDY0NS0xLjE1NjEyOSA1Ljk0NTgwNjQtMi4xNDcwOTcgOC41ODgzODcxLTIuNDc3NDE5aC4zMzAzMjI1Yy45OTA5Njc4IDAgMS42NTE2MTI5LjQ5NTQ4NCAyLjE0NzA5NjguODI1ODA2LjE2NTE2MTMgMCAuMTY1MTYxMy4xNjUxNjEuMzMwMzIyNi4xNjUxNjFsMi4zMTIyNTgxLS4zMzAzMjJjMy45NjM4NzA5IDEyLjIyMTkzNSAxMS41NjEyOTAzIDIzLjEyMjU4IDIxLjYzNjEyOSAzMS4wNTAzMjIgMi4zMTIyNTggMS44MTY3NzUgNC42MjQ1MTYxIDMuMzAzMjI2IDcuMTAxOTM1NSA0Ljc4OTY3OGwtLjk5MDk2NzggMi4xNDcwOTdjMCAuMTY1MTYxLjE2NTE2MTMuMTY1MTYxLjE2NTE2MTMuMzMwMzIyLjMzMDMyMjYuNjYwNjQ1LjY2MDY0NTIgMS40ODY0NTIuMzMwMzIyNiAyLjY0MjU4MS0uOTkwOTY3NyAyLjQ3NzQxOS0yLjQ3NzQxOTQgNC45NTQ4MzktNC4yOTQxOTM2IDcuNzYyNTh2LjE2NTE2MmMtLjMzMDMyMjUuNDk1NDg0LS42NjA2NDUxLjgyNTgwNi0uOTkwOTY3NyAxLjMyMTI5LS42NjA2NDUyLjgyNTgwNy0xLjE1NjEyOSAxLjY1MTYxMy0xLjgxNjc3NDIgMi42NDI1ODEtLjE2NTE2MTMuMTY1MTYxLS4zMzAzMjI2LjQ5NTQ4NC0uNDk1NDgzOS44MjU4MDYgMCAuMTY1MTYxLS4xNjUxNjEyLjMzMDMyMy0uMTY1MTYxMi4zMzAzMjMtMS4zMjEyOTA0IDIuODA3NzQyLS4zMzAzMjI2IDUuOTQ1ODA2IDIuMTQ3MDk2NyA3LjEwMTkzNS42NjA2NDUyLjMzMDMyMyAxLjMyMTI5MDMuNDk1NDg0IDEuOTgxOTM1NS40OTU0ODQgMS45ODE5MzU1IDAgMy45NjM4NzEtMS4zMjEyOSA0Ljk1NDgzODctMy4xMzgwNjQgMC0uMTY1MTYyLjE2NTE2MTMtLjMzMDMyMy4xNjUxNjEzLS4zMzAzMjMuMTY1MTYxMy0uMzMwMzIzLjMzMDMyMjYtLjY2MDY0NS40OTU0ODM5LS44MjU4MDYuNDk1NDgzOS0xLjE1NjEyOS42NjA2NDUxLTEuOTgxOTM2Ljk5MDk2NzctMi45NzI5MDQuMTY1MTYxMy0uNDk1NDg0LjMzMDMyMjYtLjk5MDk2Ny40OTU0ODM5LTEuNDg2NDUxIDEuMTU2MTI4OC0zLjMwMzIyNiAxLjk4MTkzNTgtNS45NDU4MDcgMy40NjgzODY4LTguMjU4MDY1LjY2MDY0NS0uOTkwOTY4IDEuNDg2NDUyLTEuMTU2MTI5IDIuMTQ3MDk3LTEuNDg2NDUxLjE2NTE2MSAwIC4xNjUxNjEgMCAuMzMwMzIzLS4xNjUxNjJsMS4xNTYxMjktMi4xNDcwOTZjNy4yNjcwOTYgMi44MDc3NDEgMTUuMTk0ODM4IDQuMjk0MTkzIDIzLjEyMjU4IDQuMjk0MTkzIDQuNzg5Njc4IDAgOS43NDQ1MTYtLjQ5NTQ4NCAxNC4zNjkwMzMtMS42NTE2MTMgMi45NzI5MDMtLjY2MDY0NSA1Ljc4MDY0NS0xLjQ4NjQ1MSA4LjU4ODM4Ny0yLjQ3NzQxOWwuOTkwOTY3IDEuODE2Nzc0Yy4xNjUxNjIgMCAuMTY1MTYyIDAgLjMzMDMyMy4xNjUxNjEuODI1ODA2LjE2NTE2MiAxLjQ4NjQ1Mi40OTU0ODQgMi4xNDcwOTcgMS40ODY0NTIgMS4zMjEyOSAyLjMxMjI1OCAyLjMxMjI1OCA1LjEyIDMuNDY4Mzg3IDguMjU4MDY0di4xNjUxNjJjLjE2NTE2MS40OTU0ODQuMzMwMzIyLjk5MDk2Ny40OTU0ODQgMS40ODY0NTEuMzMwMzIyLjk5MDk2OC40OTU0ODQgMS45ODE5MzYuOTkwOTY3IDIuOTcyOTA0LjE2NTE2Mi4zMzAzMjIuMzMwMzIzLjQ5NTQ4My40OTU0ODQuODI1ODA2IDAgLjE2NTE2MS4xNjUxNjIuMzMwMzIzLjE2NTE2Mi4zMzAzMjMuOTkwOTY3IDEuOTgxOTM1IDIuOTcyOTAzIDMuMTM4MDY0IDQuOTU0ODM4IDMuMTM4MDY0LjY2MDY0NiAwIDEuMzIxMjkxLS4xNjUxNjEgMS45ODE5MzYtLjQ5NTQ4NCAxLjE1NjEyOS0uNjYwNjQ1IDIuMTQ3MDk3LTEuNjUxNjEzIDIuNDc3NDE5LTIuOTcyOTAzLjMzMDMyMy0xLjMyMTI5LjMzMDMyMy0yLjgwNzc0Mi0uMzMwMzIyLTQuMTI5MDMyIDAtLjE2NTE2Mi0uMTY1MTYyLS4xNjUxNjItLjE2NTE2Mi0uMzMwMzIzLS4xNjUxNjEtLjMzMDMyMi0uMzMwMzIyLS42NjA2NDUtLjQ5NTQ4NC0uODI1ODA2LS40OTU0ODMtLjk5MDk2OC0xLjE1NjEyOS0xLjgxNjc3NC0xLjgxNjc3NC0yLjY0MjU4MS0uMzMwMzIyLS40OTU0ODQtLjY2MDY0NS0uODI1ODA2LS45OTA5NjctMS4zMjEyOXYtLjE2NTE2MmMtMS44MTY3NzUtMi44MDc3NDEtMy40NjgzODgtNS4yODUxNjEtNC4yOTQxOTQtNy43NjI1OC0uMzMwMzIzLTEuMTU2MTI5IDAtMS44MTY3NzQuMTY1MTYxLTIuNjQyNTgxIDAtLjE2NTE2MS4xNjUxNjItLjE2NTE2MS4xNjUxNjItLjMzMDMyMmwtLjgyNTgwNy0xLjk4MTkzNmM4Ljc1MzU0OC01LjEyIDE2LjE4NTgwNy0xMi4zODcwOTcgMjEuODAxMjktMjEuMzA1ODA2IDIuOTcyOTA0LTQuNjI0NTE2IDUuMjg1MTYyLTkuNzQ0NTE2IDYuOTM2Nzc1LTE0Ljg2NDUxNmwxLjk4MTkzNS4zMzAzMjJjLjE2NTE2MSAwIC4xNjUxNjEtLjE2NTE2MS4zMzAzMjMtLjE2NTE2MS42NjA2NDUtLjMzMDMyMyAxLjE1NjEyOS0uODI1ODA3IDIuMTQ3MDk2LS44MjU4MDdoLjMzMDMyM2MyLjY0MjU4MS4zMzAzMjMgNS40NTAzMjMgMS4zMjEyOTEgOC41ODgzODcgMi40Nzc0MmguMTY1MTYxYy40OTU0ODQuMTY1MTYxLjk5MDk2OC40OTU0ODQgMS40ODY0NTIuNjYwNjQ1Ljk5MDk2OC40OTU0ODQgMS44MTY3NzQuODI1ODA2IDIuOTcyOTAzIDEuMTU2MTI5LjMzMDMyMyAwIC42NjA2NDUuMTY1MTYxLjk5MDk2OC4xNjUxNjEuMTY1MTYxIDAgLjMzMDMyMyAwIC40OTU0ODQuMTY1MTYyLjQ5NTQ4NC4xNjUxNjEuODI1ODA2LjE2NTE2MSAxLjMyMTI5LjE2NTE2MSAyLjQ3NzQyIDAgNC42MjQ1MTYtMS42NTE2MTMgNS4yODUxNjEtMy43OTg3MSAwLTEuOTgxOTM1LTEuODE2Nzc0LTQuNjI0NTE2LTQuNzg5Njc3LTUuNDUwMzIyem0tNzYuNDY5Njc3LTguMDkyOTA0LTcuMjY3MDk3IDMuNDY4Mzg3LTcuMjY3MDk3LTMuNDY4Mzg3LTEuODE2Nzc0LTcuNzYyNTggNC45NTQ4MzktNi4yNzYxMjloOC4wOTI5MDNsNC45NTQ4MzkgNi4yNzYxMjl6bTQzLjEwNzA5Ni0xNy4xNzY3NzRjMS4zMjEyOTEgNS42MTU0ODQgMS42NTE2MTMgMTEuMjMwOTY4IDEuMTU2MTI5IDE2LjY4MTI5bC0yNS4yNjk2NzctNy4yNjcwOTZjLTIuMzEyMjU4LS42NjA2NDUtMy42MzM1NDgtMi45NzI5MDQtMy4xMzgwNjQtNS4yODUxNjIuMTY1MTYxLS42NjA2NDUuNDk1NDgzLTEuMzIxMjkuOTkwOTY3LTEuODE2Nzc0bDE5Ljk4NDUxNi0xOC4wMDI1OGMyLjgwNzc0MiA0LjYyNDUxNiA0Ljk1NDgzOSA5LjkwOTY3NyA2LjI3NjEyOSAxNS42OTAzMjJ6bS0xNC4yMDM4NzEtMjUuNTk5OTk5OS0yMS42MzYxMjkgMTUuMzU5OTk5OWMtMS44MTY3NzQgMS4xNTYxMjktNC4yOTQxOTMuODI1ODA3LTUuNzgwNjQ1LS45OTA5NjgtLjQ5NTQ4NC0uNDk1NDgzLS42NjA2NDUtMS4xNTYxMjktLjgyNTgwNi0xLjgxNjc3NGwtMS40ODY0NTItMjYuOTIxMjkwMWMxMS4zOTYxMjkgMS4zMjEyOTAzIDIxLjgwMTI5MSA2LjQ0MTI5MDMgMjkuNzI5MDMyIDE0LjM2OTAzMjJ6bS00Ny44OTY3NzQtMTMuNTQzMjI1OGMxLjgxNjc3NC0uMzMwMzIyNiAzLjQ2ODM4Ny0uNjYwNjQ1MSA1LjI4NTE2Mi0uOTkwOTY3N2wtMS40ODY0NTIgMjYuNDI1ODA2NGMtLjE2NTE2MSAyLjMxMjI1OC0xLjk4MTkzNiA0LjI5NDE5NC00LjQ1OTM1NSA0LjI5NDE5NC0uNjYwNjQ1IDAtMS40ODY0NTItLjE2NTE2Mi0xLjk4MTkzNS0uNDk1NDg0bC0yMS45NjY0NTItMTUuNjkwMzIyOWM2Ljc3MTYxMjktNi43NzE2MTI5IDE1LjE5NDgzOS0xMS4zOTYxMjkgMjQuNjA5MDMyLTEzLjU0MzIyNTh6bS0zMi41MzY3NzM5IDIzLjQ1MjkwMzcgMTkuNjU0MTkzOSAxNy41MDcwOTZjMS44MTY3NzQgMS40ODY0NTIgMS45ODE5MzUgNC4yOTQxOTQuNDk1NDgzIDYuMTEwOTY4LS40OTU0ODMuNjYwNjQ1LTEuMTU2MTI5IDEuMTU2MTI5LTEuOTgxOTM1IDEuMzIxMjlsLTI1LjYgNy40MzIyNThjLS45OTA5Njc3LTExLjIzMDk2NyAxLjQ4NjQ1MTYtMjIuNjI3MDk2IDcuNDMyMjU4MS0zMi4zNzE2MTJ6bS00LjQ1OTM1NDkgNDQuNzU4NzA5IDI2LjI2MDY0NDgtNC40NTkzNTVjMi4xNDcwOTctLjE2NTE2MSA0LjEyOTAzMyAxLjMyMTI5MSA0LjYyNDUxNyAzLjQ2ODM4Ny4xNjUxNjEuOTkwOTY4LjE2NTE2MSAxLjgxNjc3NS0uMTY1MTYyIDIuNjQyNTgxbC0xMC4wNzQ4MzggMjQuMjc4NzFjLTkuMjQ5MDMyNy01Ljk0NTgwNy0xNi42ODEyOTA4LTE1LjAyOTY3OC0yMC42NDUxNjE4LTI1LjkzMDMyM3ptNjAuMjgzODcwOCAzMi44NjcwOTdjLTMuNzk4NzA5LjgyNTgwNi03LjU5NzQxOSAxLjMyMTI5LTExLjU2MTI5IDEuMzIxMjktNS43ODA2NDUgMC0xMS4zOTYxMjktLjk5MDk2Ny0xNi42ODEyOS0yLjY0MjU4bDEzLjA0Nzc0MS0yMy42MTgwNjVjMS4zMjEyOTEtMS40ODY0NTEgMy40NjgzODgtMi4xNDcwOTcgNS4yODUxNjItMS4xNTYxMjkuODI1ODA2LjQ5NTQ4NCAxLjQ4NjQ1MSAxLjE1NjEyOSAxLjk4MTkzNSAxLjgxNjc3NGwxMi43MTc0MiAyMi45NTc0MmMtMS40ODY0NTIuNDk1NDg0LTMuMTM4MDY1LjgyNTgwNi00Ljc4OTY3OCAxLjMyMTI5em0zMi4yMDY0NTItMjIuOTU3NDE5Yy00LjEyOTAzMiA2LjYwNjQ1MS05LjU3OTM1NSAxMS44OTE2MTMtMTUuODU1NDg0IDE2LjAyMDY0NWwtMTAuNDA1MTYxLTI0LjkzOTM1NWMtLjQ5NTQ4NC0xLjk4MTkzNi4zMzAzMjItNC4xMjkwMzIgMi4zMTIyNTgtNS4xMi42NjA2NDUtLjMzMDMyMyAxLjQ4NjQ1MS0uNDk1NDg0IDIuMzEyMjU4LS40OTU0ODRsMjYuNDI1ODA2IDQuNDU5MzU1Yy0uOTkwOTY4IDMuNjMzNTQ4LTIuNjQyNTggNi45MzY3NzQtNC43ODk2NzcgMTAuMDc0ODM5eiIvPjwvZz48L3N2Zz4=;" vertex="1" parent="1">
          <mxGeometry x="119.99999999999994" y="1458" width="46.09" height="45" as="geometry" />
        </mxCell>
        <mxCell id="4ZC3k0Vkt_Njtrgb3o6p-67" value="" style="image;sketch=0;aspect=fixed;html=1;points=[];align=center;fontSize=12;image=img/lib/mscae/VM_Linux.svg;" vertex="1" parent="1">
          <mxGeometry x="178.08999999999997" y="1449" width="80.43" height="74" as="geometry" />
        </mxCell>
        <mxCell id="4ZC3k0Vkt_Njtrgb3o6p-74" value="&lt;div&gt;&lt;font style=&quot;color: rgb(151, 208, 119);&quot;&gt;Host: master1.machinesarehere.in&lt;/font&gt;&lt;/div&gt;&lt;div&gt;&lt;br&gt;&lt;/div&gt;&lt;div&gt;&lt;font style=&quot;color: rgb(151, 208, 119);&quot;&gt;VLAN 100&amp;nbsp;&lt;/font&gt;&lt;/div&gt;&lt;div&gt;&lt;font style=&quot;color: rgb(151, 208, 119);&quot;&gt;10.100.0.10/16&lt;/font&gt;&lt;/div&gt;" style="text;html=1;align=center;verticalAlign=middle;whiteSpace=wrap;rounded=0;" vertex="1" parent="1">
          <mxGeometry x="-671.28" y="1523" width="267" height="135" as="geometry" />
        </mxCell>
        <mxCell id="4ZC3k0Vkt_Njtrgb3o6p-75" value="&lt;div&gt;&lt;font style=&quot;color: rgb(151, 208, 119);&quot;&gt;Host: Worker1.machinesarehere.in&lt;/font&gt;&lt;/div&gt;&lt;div&gt;&lt;br&gt;&lt;/div&gt;&lt;div&gt;&lt;font style=&quot;color: rgb(151, 208, 119);&quot;&gt;VLAN 100&amp;nbsp;&lt;/font&gt;&lt;/div&gt;&lt;div&gt;&lt;font style=&quot;color: rgb(151, 208, 119);&quot;&gt;10.100.0.11/16&lt;/font&gt;&lt;/div&gt;" style="text;html=1;align=center;verticalAlign=middle;whiteSpace=wrap;rounded=0;" vertex="1" parent="1">
          <mxGeometry x="-316" y="1523" width="267" height="135" as="geometry" />
        </mxCell>
        <mxCell id="4ZC3k0Vkt_Njtrgb3o6p-76" value="&lt;div&gt;&lt;font style=&quot;color: rgb(151, 208, 119);&quot;&gt;Host: Worker2.machinesarehere.in&lt;/font&gt;&lt;/div&gt;&lt;div&gt;&lt;br&gt;&lt;/div&gt;&lt;div&gt;&lt;font style=&quot;color: rgb(151, 208, 119);&quot;&gt;VLAN 100&amp;nbsp;&lt;/font&gt;&lt;/div&gt;&lt;div&gt;&lt;font style=&quot;color: rgb(151, 208, 119);&quot;&gt;10.100.0.12/16&lt;/font&gt;&lt;/div&gt;" style="text;html=1;align=center;verticalAlign=middle;whiteSpace=wrap;rounded=0;" vertex="1" parent="1">
          <mxGeometry x="68" y="1533" width="267" height="135" as="geometry" />
        </mxCell>
        <mxCell id="4ZC3k0Vkt_Njtrgb3o6p-78" value="" style="endArrow=classic;startArrow=classic;html=1;rounded=0;edgeStyle=orthogonalEdgeStyle;curved=1;flowAnimation=1;fontColor=#E4FDE1;strokeColor=#028090;fontStyle=1;opacity=80;strokeWidth=3;" edge="1" parent="1" source="4ZC3k0Vkt_Njtrgb3o6p-65">
          <mxGeometry width="50" height="50" relative="1" as="geometry">
            <mxPoint x="-72.52" y="1473" as="sourcePoint" />
            <mxPoint x="-171" y="1196" as="targetPoint" />
            <Array as="points">
              <mxPoint x="-31" y="1473" />
              <mxPoint x="-31" y="1301" />
              <mxPoint x="-28" y="1301" />
            </Array>
          </mxGeometry>
        </mxCell>
        <mxCell id="4ZC3k0Vkt_Njtrgb3o6p-79" value="Text" style="edgeLabel;html=1;align=center;verticalAlign=middle;resizable=0;points=[];" vertex="1" connectable="0" parent="4ZC3k0Vkt_Njtrgb3o6p-78">
          <mxGeometry x="0.4049" y="-2" relative="1" as="geometry">
            <mxPoint as="offset" />
          </mxGeometry>
        </mxCell>
        <mxCell id="4ZC3k0Vkt_Njtrgb3o6p-80" value="" style="endArrow=classic;startArrow=classic;html=1;rounded=0;edgeStyle=orthogonalEdgeStyle;curved=1;flowAnimation=1;fontColor=#E4FDE1;strokeColor=#028090;fontStyle=1;opacity=80;strokeWidth=3;" edge="1" parent="1" source="4ZC3k0Vkt_Njtrgb3o6p-67" target="4ZC3k0Vkt_Njtrgb3o6p-16">
          <mxGeometry width="50" height="50" relative="1" as="geometry">
            <mxPoint x="208" y="1468.93" as="sourcePoint" />
            <mxPoint x="202" y="1191.93" as="targetPoint" />
            <Array as="points">
              <mxPoint x="342" y="1469" />
              <mxPoint x="342" y="1297" />
              <mxPoint x="345" y="1297" />
              <mxPoint x="345" y="1207" />
            </Array>
          </mxGeometry>
        </mxCell>
        <mxCell id="4ZC3k0Vkt_Njtrgb3o6p-81" value="Text" style="edgeLabel;html=1;align=center;verticalAlign=middle;resizable=0;points=[];" vertex="1" connectable="0" parent="4ZC3k0Vkt_Njtrgb3o6p-80">
          <mxGeometry x="0.4049" y="-2" relative="1" as="geometry">
            <mxPoint as="offset" />
          </mxGeometry>
        </mxCell>
        <mxCell id="4ZC3k0Vkt_Njtrgb3o6p-82" value="" style="image;sketch=0;aspect=fixed;html=1;points=[];align=center;fontSize=12;image=img/lib/mscae/DNS_Private_Zones.svg;" vertex="1" parent="1">
          <mxGeometry x="-123" y="1378" width="50" height="50" as="geometry" />
        </mxCell>
        <mxCell id="4ZC3k0Vkt_Njtrgb3o6p-84" value="" style="image;aspect=fixed;html=1;points=[];align=center;fontSize=12;image=img/lib/azure2/networking/DNS_Security_Policy.svg;" vertex="1" parent="1">
          <mxGeometry x="-132" y="1369" width="68" height="68" as="geometry" />
        </mxCell>
        <mxCell id="4ZC3k0Vkt_Njtrgb3o6p-85" value="" style="image;aspect=fixed;html=1;points=[];align=center;fontSize=12;image=img/lib/azure2/networking/DNS_Security_Policy.svg;" vertex="1" parent="1">
          <mxGeometry x="-1203" y="1613" width="68" height="68" as="geometry" />
        </mxCell>
        <mxCell id="4ZC3k0Vkt_Njtrgb3o6p-86" value="" style="endArrow=classic;startArrow=classic;html=1;rounded=0;edgeStyle=orthogonalEdgeStyle;curved=1;flowAnimation=1;fontColor=#E4FDE1;strokeColor=#028090;fontStyle=1;opacity=80;strokeWidth=3;" edge="1" parent="1" source="4ZC3k0Vkt_Njtrgb3o6p-63" target="4ZC3k0Vkt_Njtrgb3o6p-12">
          <mxGeometry width="50" height="50" relative="1" as="geometry">
            <mxPoint x="-840" y="1508.5" as="sourcePoint" />
            <mxPoint x="-846" y="1231.5" as="targetPoint" />
            <Array as="points">
              <mxPoint x="-706" y="1509" />
              <mxPoint x="-706" y="1337" />
              <mxPoint x="-703" y="1337" />
              <mxPoint x="-703" y="1211" />
            </Array>
          </mxGeometry>
        </mxCell>
        <mxCell id="4ZC3k0Vkt_Njtrgb3o6p-87" value="Text" style="edgeLabel;html=1;align=center;verticalAlign=middle;resizable=0;points=[];" vertex="1" connectable="0" parent="4ZC3k0Vkt_Njtrgb3o6p-86">
          <mxGeometry x="0.4049" y="-2" relative="1" as="geometry">
            <mxPoint as="offset" />
          </mxGeometry>
        </mxCell>
        <mxCell id="4ZC3k0Vkt_Njtrgb3o6p-88" value="" style="shape=image;verticalLabelPosition=bottom;labelBackgroundColor=default;verticalAlign=top;aspect=fixed;imageAspect=0;image=data:image/webp,UklGRkwrAABXRUJQVlA4TEArAAAviUJXEP/nIJIkRar3r++FME1D/B9ZgNRIkiTJBsB8lz++BXB3hkNsG8mRpPyzPf/f5dg2kiSl2PfIP1AsXCCatqFqarkDAD94Dmr7QIMCBQoUaJAgQYEBByxYcMANbrBgwYIGCxIUGNBgwYAGDQIECFCgwIACBRIECBAgQIICAQLkvwUBrkUEmnj7qg7dpGmVVUOrNm2yyqqhTatsWmXVpk2brAipGlq1yapNm8WzHDD0NW1WLQpfZJWVL7LyVRa+8IWe8JkvsvKFLxbGgvn5tisrX8y/zL/oMT2mx/TY/MuSL3yRlR7zxUqT1c+7OLPyxfPr6/L58P2z0zvMlJipM4k601EyjhzNpn8pLJyZTPLtjxIRJdqZjpLx79ufz34+/ZnO9M+ZyWTqiDhTYqZEnek4K2CiIlJVRaWIamETUJhwHc4fH4+fD46Cto2c9hr+pH8PABFBMEkz1zM64Gaj8lISb8jkNQN9MJ3ABqT5JFofEXVt2xQ1Uh9C3JC4ZzTuOjN8ZC5y0AsRPK64RypUezezf7qJQZErVStE9B8WJLttm3t24p5eBAIQDfCL2rZtj9LoL2zvuym76cn2XlOP5N6CIqtCEjUGo2Ivh1KNisbeg3RBxI4NZobpYP4akOjAjEeGTxH9lwXbVttW+7gwyDZx8oq5DZRPurFttxEkSIIASfzIJ5axtNjNrQX/fx/GazOi/47YRpKiDKi4752Fnp6Gt3dt29PGtq1tFzozMzNz7wPvAXYcdMDlVDnMdg5beiR5MDOP0Rg3YGxjWZVYqrT/Ef2HBElu3GbhVMH3RSMEsAD0tm79/+JE0tXsXMNegH5fwKDt3bS797QEGSxCIAnSSaW8Uoy7MLQgM7MJ0u4uQAvSSKhKUtFdOKcqLf+icvawryL6D4mNJEVSHPXtwTBUZcG8OYaouv/U/afuP3X/qftP3X/q/lMnio/PflAk5J1zd3Hr7FtFQP498yu6Zurww6miH59+C8PM/oudSeDrj4t6vH/5Lka2RT4hCJtO3Lz0dtGON7+4DvNaUqBJkqBFatWEP8++UZTjjVO/odqd4BgyVyx/MP8QP3z6b/GNj75B5cQul6TIl0XRXGxUh6sfFdl47wLg3BQZgny1CFZcH8Tdc+8W0yxGZ39HZ5RPZR9x1IVK80ETfjvzd7GMz36EwXVwmOk9jhJsam/OgO8/K45ZjK7dLhuLcfxLreN08uz2WNnta+8XvXj7wk3YNmguSUoRzdHr3bh57u0il8XoDzR6aY4ipYriaG8j/jj1RvGKT77B/S9f//t2P5d9Man9qUp880mRig8uAyOx/3+/dHl0cKmtEeDyB8WoZ537E11rbMZi5JeSKXatC3+ee6PIxD+f/YrqxbjISu7VDexxfw1+O/VPMYkPv75XMb7LsGT+xbK743p8/fHfxSLevQAMbHIMRRZCFMNvOYFL7xWHnnXmD7SHOYEsmAheiHbi+hf/Fn849S0McwdpOkEW8EIdHjyvwXeniz2DXAHGYiJHFlgJToxNavHVx0Uc3jp/vaR7nRWSZOGV5LlNa+nNi28Va2LOTv2Kx6FsMLg8RHOJlXpcP/1mUSYY/GsYpvZeFWIhhwew8blq/PBp8cWleAlwbqUYUl6iUztjwJWPiisWo8//QmeUE0lCZpCEKK4N4OaFIsqTTv2AKtd+KhMMLj8l6HRiuQ4/ny2WWIyu3dVN7PAcKVexwt5COb779O8iiEvx3B2NbZPNzJDkK4rlt526u0WPOLU3Tt9AY4hj8+raXlUIvtqJW1+8XeSo86Sf3RdJBYjgaZ8RP50qXlguLwOj24eZYHBFXNj07rQO33xanHDlnLsO6yonUpmrMi6UKGyN4PaV94sQLsXfUOOL82xOSykNWiCjHbj++RtFhzpP+uldNhOEqzAxXNxVi18/+7e4UOepf1NQUuuVdc34vXE9rn1cHHAo/v3m2evoXBF4glSmCCa1OQhcLAqkNVz4HsbFg8PsBEmpF1LkVtrw+1nVn3n4/lUA02kp6dNKsSQdePT44TPVX6Fbo9EY+tdpLnOnZPFCbEx358uP1LtL8bPfoDNW6uorUDIVE3lldyZZet2BW+ffVu0Wo5KqXkulttPxRAuDn0gzyu6kWDbcij9Oq3Cr5ruX7sHQ6rD3ZLDbu2uBnignKPtCUGli2oBvP1XdweC/o6LB1me2ZrGZ7Y62KmBwS6SV3Uhwqe1RqOxVE554H5XjraLsLBhTNPPQ/cP/BZpSdqfIrNlx/bxqftJDr3/b7cWiWPe7wEhuB8DRUpxjlP0kRkiEa/DraVXseLz32W+hNSfibB8YIxF3gc41WlS2JYliuL2pB/hO/dY1+9ETX6AWcWKMlQBjXC3LgfGttKDw2XuS33YCl1RunNpjb8EJU8VYWTAmLA066Ob307TCp++csGrFjc/fVLEuxZe/j2ClBDMBs/R11wImP82Ryr7Qh5SvGj+eVqn84Nkv0BhTzpgZzGa7IzuGYz0TJanwzvTOdFlmDFVaofsjeFEqiJnDbLFbmsqgexbjOYVbkgRma1B769K76rMA4/crQUynWlnsVWy9jzUwuPdFVtlj0Fwy2oK/1OUY9z0P+HN1qplg/w16qoCmFSJNKXz6zlPzNaoyTu3pT1AbkmTMHnIt7C0GYGAjxSt89p4UY+NluPKJSkzjfwvuSZJzZhk5jsd6HUrG9sQkqWwJwoYT9y6qwDHuf+U76K7y00vPAWaro8cIPHbFWVrhliSRjhrx+1mV5+y569kvUZ9yyZkpyovN1mEAmqI0p3ALOyfsPtfjx0/+UXEuxcc/RDVK6VQ7N5gtVqtJBwxv8YLCLUksExstv3ftA9VmMXoNbpCIU80CDF+a2aiFZmY3zSp89s7wGzbg3DuqLNbnpW+jvcwFMxRBvpdJZigWR1cNUOdK5K4oreQsWNbXjN/OqC+e+QiNMfsJMxUSI88JufHJ7OhrMQA9q5zCneAJ+nBvrhzfqCyr5mPvwusnOWWmRlYsfKCC+oQ4N1X6zI1l0A5tcwp3gpO8uD2Ce5dU1BgPvPott7MRwvwWcQA0lnEP8FckTBWrvesxYJje4VhlX2iBXWvX3PjiLfUUDN6YcTJf0dnQRXXIiGjeBPqJsvGLMQDGcFxUeBYswxLeWvymhnbZ8UOtjJ+R+Y5TTJuohJleOsOHNXijLOfmSlM50LcmpEhli+L2pirxterJPHz0DSBIlPlSztc9oLveseRVGgKtmTS+0Gw3G3XAWOxQ4Z0EK24OAepmjPte/jY6S2XBBU/DCpoToXY+b77qAp2NhQv7uh4BD2fivMJDyakUF7Xgr3NvqJk0/vqQGS9iTrwgVAzSvQY759MGvLDHLrnhsLcZAFOIZZMKz4IVDxar8fMpddJ6rCjjTwQZB4z4vAkEsRRlfKf0xEVZY6/k2bvF3ttQBuQsW6Tsh3PczkT53W8++luNBIO7vZiMPXUh4wDwl6Lk6yOR9DTQt9ikO3usvbUaaCZivMJfJsmyW/0a1RGndt+z30VrKsl8c5kOHNTHxE1MdbMeqOmU7py02DsfAA+e7x8qvq4ZF27FDVWxbPqTn6AWWcgVSpo04B4zZWitbU/+h7auN/PFSf5X3aQH2iO8qPDMQ1JMLFThu89URBo/+tuczPkTKx8INhbMbF9vLVBukj6muc9cpwOcmwKj8Ok7dxibAtRBGdz7X/kWuitpvqWU26ACf0aKWRC7vaMKMLRJb1gd3bVA5USMVXxdM36jHzcuvv26n8V/1zNfoTHh0oKbPaygOsx27GCNX6a5sQKaRz3SDQB2W5seeOBL8KzC0xr4eMSE38/8+1r/iJfed+pRSuahRz5rwA3OLGhLikbL9caZ4uavr74caFtjRFrZL8NwB/NNr/eFKp4A3OlPjTecMl8HQHstObMrchs48GdSMVOlv/N/AENbIq/s8N1k+nAeuPM6H+7zOeCdGPrXXKXHDprjcqls81jTvK25VmS4l20sB8oagcm9QzqhZAf41jCAW6/z67h82Dpx0Rib/LsnGtfhRuapx/KF1uNa8QsTJv59mwGortCuRavQ4GYFxZozhd1JPbDQffN1fptXn7SFlqxZlcwMci4WLeAoNuFiWPDKI6A+Lpsysti6a0qgb7Y/wNaLnZmcMVhKmVV7lmqBgfUXQ6/3+FyxhQ8EsaCyZHB/wY010wC7RiVflqGSW629dVqU1psddgM2UjwXGwSc24ziFtlK8sxGN1AfiQuHfa/5MOLEhlW4g62i/Y0jXNSGTJjfy5wyNG0B/e0+KrnFYTVVoKS622a1WDOIJM0x0Ubg+W6KU9QgvBAbB/SzeyxDpp++9lP4K+mRh8ZU5DszL6SRyzLBDkCID2rwCprb/jhAa9YOkEuO95l6/hhVK8kUrZyQtMM9VwXg3BYy71QlwLha94DeSokdhNuORgYndhDC8zQE/OkOv9/RnbUDNGa/jldCknR6bwLoWxc4hTxKFKItQM9qdk1sdcDZMM68BSdMhPYi0tAtihAkOxgR+bID9GItwG7NBmeUGLPW9iMhCSG1OQSMxgRaAQ1G2BwAHvni2dKS6gH9wmxUgRcx4tmwhsooU8QOSRSb1uH1U6vV1loJ1HRk/3odAzKRTFMrJhimD3ha9qvFxCb/B2Z2xey/+2qBnf51EgKN5bwFHCXy3B+zFJU8clAzdWZdPq2WzLs6gldat/kDlw7GKMHL+QEsnwgacnaynC1YpUJgp7dPOgDQ3tBB3KJcNMpBCXSmbBL3kRwVNxsb0eLppnwX2UqK7HonYIrQbOYvmUqB/4RFBfppTtkhnpSYeQCqe/ps5qM58rMjv2EFJnbSHCHPdTm2RoAHC/GcJRlOTmT0WnOMqbY++aHEuAFvMKqhNqD8kLA7DlBVlw0lNzukQpACvWJChYtOUfILgzzcn6kERmPZfTkWiKikDpIjupVd3a5pZfaibF7pQg2uFjoZ/CdaSmcu6dD+zsQB+ntqgQqTzXoUx7ExpvcXStAVld2SrDwXbAIG18QUSZBKYKhk9BfSrF0tGlLqQgsutkcO/HlBBpdi1YbTi4kfDjjnURXesIgY2e1tD4H77TbLERxHghgbA/o25VTXjGKYjT6gNpxIZeONZIOznAqXi8p7l/5jOjhBlEUVeOMzKUUSbFrTyd4HognSi7OFOEMlN5VD86jbZpUIkRSS6y3A1C7PUfJ4HY6JjZWgbHYvJzRdRjhLU9g1arBwpmhPOyOUVi0Y7qzV55QeV1CdcHUINxAy7gHtBSe+h0peVt/rsEgg19nDEr5aVARlUdeMYFMHiwZgYEvIBBopCElYdptsGbX6G4FSETZItQ6A7mrfYucaA6i9UPLcL1XbkyKluNes23PsmS12h0RIMinEp/XoibIFL8lMidxqJ9AZ5bOfd5VE6NDEh3pBBwOPycDm4kK+7QOtaZm2i0LNO5rrdL4XKho1ioxRXoYz2WIAqjr7bDlIC4/YHgaebae4Ql4SbGprCKjx0iJJyg9vycj1PfDWtLKLCCQHNbhDVvK/f16Qvat9Ls/zMbVlvvkJGVDJjRZHDlIuRM4/o/rpAyFZuN7U3oQemMraReWIu9w94Ij6PG9qHdJGo9bCx+2F1rWkfEqRVHIC1Cf8nNx3TttA789jSCU3GbCZkryPu/hyOR774ixdqGBwdy0wuJGzUVEFMoFrdsDaPdpEw7h+7yeui3aRfDabbtWD9trOI6mYaRWuZsXZNmvnA5SWlK4dSk605vjdKaBjnc6/E5zItNZ7AeNKIieuSImEZp+4ahez6CuKHvBYwxPfAoZKclODKhZN3V7bdpBoVocbxoJM35WjqRRoXqXFJCF5k1ibT4HRbUHIb4sU+O0x4OFs7qZlFMo0G30mugOSb2C40McA7YAi7JC9KwO79DShNgHQWQkLvW07aoAq4NmWKH0jJywT7QAWjnNOs9JmWfG5cmiGd7IFBeSLvyTrn76sGFaYBMnDcA2ESc4tRID6TpEalPbI4dvQsdPvu89i1KB2dGH0CTSTu4eS/9tOpojn92EKcyKRr4bIR9oBx6rAJUhFc0bjjWgBCxinz0RMXviCn976hY9axCx0ylN6wYulALvgUR2VyMIMBJutoQLaQVckuOIeqUSdh+aoPGxvYwroW08xeVrzZX0AMAaodOYDh7IJ1TbxpRYw+iwxPdyA7ieiQnb76t+ki0ZBVbQzbyPYCnO7TbRoAWFsYS6MtVUP9M6Ggx6POxhZ6Ad6VmkmKbmgGLfhhHZkR7oTnGK43TEtML2bc/ZY8maFTEupzeah6dULTY76XsjIBXbzwuWLf54BnRVZmCiUFj64caMyIc7OyrJQgF0N1EwEQz5PVt5gcMYEDG+xUhOtCVqgVqqhcx1wrCQYPuE2AM5NhqeIE4BQTNuatQJGB21y94vKLxPR4b//vXDpwm+7eim0uZlNQhfNOVdGzSa00gTzPuFWh7keMAx7Az7Py/L5A2PVwJz0RGuK5hKzBtStECmaOP6mI6i1HqA1SucYPk8ChsV2foE+F/JoISunbI+J+KAZwiv//pmPyohbGOMi1z7QW5duaJuLSQ1emFrY7dqaK1D21BX0eo5Q0OfUoyaSTEn+QEmJsZFSODdF4bhp/OLmM+DRc5LPhA4pB2entEvvPyyuQ+jutSNwIkgxcscZYN3+2moTdt5JUQWb/oSXMrDLLvCww2GRPqPveAC0T0cCnqPlW15wAI41kU9IP/O/jX5gauc4J0RE0Om9KS0wtpM1ASiDJdIevwmwgLF6FCYy4q03SfbsAzYdrTHBM1RQKOvDErVeIgmdgmKeh97emlI8GgtGvJ5jKRyeagGGYinJvu1kio7UoMYV547emQ7rbQT61wUhQZIKYYkktX/A/WlSJcjIVMsGFBvRkeTe8iQEmsWxL+4e7RJpfZ7yULzW0qBFxbBr2e/2HA+3L+wZM+D+bJyjJVuSxP154Mkqx9Kv9ADRaxagPprIfnZVOKh9fHTNxq5yGIZxJRjkhLONFfh47xkTuluR1pd7I8SuiVl1IEyMPXWLzdJSidKe+WDQI0X+JZdTg8crcam+bYLima1hoH+b46iXf10HO6NAxdyukK0upTS8ndJq0bYdnlvoEqRZvvNYCdYdtNWeNuGUWgOiVJFGBl93gfbKvDjblrMYgnE6GDjOs456+0sL7RrYN9hM0I7k3XOvdQMzOzkFfLjUvrscpYM5C/orijWi+lzA1qYWOPL+E6HYuhPYYkK7FybYsYf6mCnKE61KUFoYEGM2AtUj/oAnH/KFphqAiZj0Mx+ieNpdj/te8pAW2Wgj0L2Wk4R4EiH34Be47unDmWBQYh0bUbz9dJ0JJpNW1rDikzo8Gy/TbjdVoGzQtez15ElLwZFqGNxxUbLjMZnanSzB0zVh0wnUummRIk8IXN1tJ14WFFhDsXJXUwkq99hsJuzUizbcFhDEFg6aIydHwTwTWfLkT/6VRSfQusyyefrtHPTrgZnd7NljnVhMQPE7iEqTD3oTQ75jMKZhQuc2NvbgLy0MTbX1VAG144Gw15NXhcKzvYBtS/oS1LTIrJsA52bOeX8qkPVy4uzMCTIC496W3z6a3Pg5wuynZJwQsjwBKocXg35PnuX2LnknaqEd35W+wR32RQCmvZydzZ9kXFaqw29l8ORDB2zAvgEgr97IKcRcmdprS1MFdH3PA35PIeQLekf0qHLvp5iExD+9YXTEaZI82QjVqg4beLKEyGw+W12Oin22WmJmZrA52h4Cpumwz1MoeZcXbTp0rbJpkpDEEtoOTj5OYzCT4MDFnrxgRe9RYMOhOhsxxqN9a8bCIbencHL7l2fagOHtNEecUKyW4eGnEfgTpIIy37LTEB5rVgqrrf5/6IZdEZ/bU1iFgxNGlE/t8dRJz+GlIVLG9hmhFU0xIcpenl/1ewWwZl2KsM+FlzyFl3/ZPVKCGl+CpWVM75/1K8Xi3v45cIARSaUWmhe6bCUo33+65gwBJqTxusngktcjCwWD8zagdZ0RaLmiL9DxvxXiN+1zAEutrMQQq8+8Zw+w4VhtjZlYHT31wP1n7oDPIxd5/TnZFSPbAk/JESMv5zT+ulIstqnLx8ClYRzxhgSK+KLMO6uA7cfrbKZht5p0KO9fzDxCVgqExh8Ds/tpJiE3fu37/Vs3MPSR1Wk2+sfAw+kbCNu6uhmK2IVDNVWifNeZGjuw5lTy7pyNBDxykzfiHapAs49NkYSc6Pntj587IrjxZPQvFmeaHYA86jiQ5L8LY5ew0c6RWzO83GkD1uyXZAH2nuoS1I8HIx4Zyh1YmXsK2NYFVk709YsHMPwsMTP6UWGqjP1TsKg/+I+WefMYWG5lSO8kqWCIbd0HdGOiktjTprZyeHHZ5/bIU6GlaRO0z2IsQ8mD3osXv/kUeDiTzr0asTgCeEXidJYoalKbvoWigz5WIPYkCZRrC1D05S4PLrNB41rHwlLAI1/5Qr7xCujns05wotD09PZd/L41jBuTiZSaXjnWu+h2PNfeaaIosUTsxTUUNZyVeXL1OfDTFrwRy3lJSLGpgqZhOuQv+AwpD29/QAdjhBJp4ggKstE7agmXxxNaTFEsgEOgb0BwbzSaGG+qpjy9jCUXIzPEO9+1v66A9kKqMqA8OwFqRv0Bj/zlDc2bgf6NlEAUkt7fBz47ipHH8yl93edTOFkL7qFDhSnKYjw39xDY45Z4itRWuXzt9xOdk7sXokgp1p2LYZ9HEQpGJpuAiViaJgpFz4W8Zm33p3LxaGGQEDJeBnSw5K23aCY7eQdFxzok8hdvXPhtG95xJnaDy6UP5H+NLHmUIl8kMGJA9XxCoApDb//PnkrceJHK6Cu+IBjaHScsegEQWZSomo2OX0WkPsATDy5f/8fPHFSLrjtnwEXSA0Z/unzN685BIZ3h54NAwwrN0Vna84o+q+wyhscWMoloYWAINZFQKXrtVpa8a5BIzT8bwZKTEhmKVAS/+Jelg9ZayAI/kWkEtH/7nysX/qsseYOB2Q5gYIvh00GMJJJ549zA+a9twKM3mqYsKivPGg2w7HqNf67kTzOemr03jL0eLkR8Tb504Q/H2rFW9rHOpzU05b/uJO3Vdc0ma4CpnRdRjBF5o6//Ozdwc1JLqPo6LxSyWlhzoaMPQxQUrrxtMqVe3QBsnTJP7tq+9KseMAowCIDFX29c+O8dKkv+Z1WoXF3UjOaJX8//8XNnBFfH05q+xguH03C9Z1DEoZKNVKGHElXSMX0aFU0UcQLgfy7cLHhqFQeINFf/ToXbG3H1AwbNeJ4YHJCPYuTpfE6JFhTVYCHvt5jCgW6w15qUWGnxnmnk5p8Vo6qFPAfwP1eu/XkDgC7oZPA7V1lamW8E8gPNf9NoSIq5pD4qJE5LDf+J1ucaqAOlPB+lOh9ep1R6+j6KdnsFYpGGCTHurVjf6GfZQoZh/c3rTKH3wsXv3X9BIK1oxhshiAVabLltdTB71nkbVfk10jxForGU+jIvTk0kngYn+O3lWOugBSsPyFV45xps3GcCFwd+4ZewF3tQhGKRJGq3plum7V70QKXbglScr13t5u0bDDFEcE15fhkRR0Am9iQxXMeZUuxo4yW6EKFDYutulJxgXMR/dm6w78uDGH50Jwq4WHWcEuJIIW+P8ao4FY+Xep+vFza8QWpm/tEIdrbwcpAiLyh2ADjdLhfgP+Pljlpgf5vU7SCkp2/wGxdweyrNG5/mmmNabzQ7Li5pJ8UrN5mm7gNHvSZ4kiTBVYWKBr8cVFhDopvKscUlSUE5D5I6Zj+1R3BjIpOJFmsHQM+b3BYXl3SwRFlczKReXENpvZ9YeKQY2d9Ygi1OIagkWNG1DWgKyCxFSG/fBXYfRp4t5GJRpYbweHt0Q4PmHT6kiwxvuzCeXRgbwZI9wJGL4GKHDdgxFQgoZAya4317gFM+QdRng4Se3otvSYppTR8VJN34jG9acLPbMtFPkGDC25VMzT4cwrKbFUkHDM96dgDWuUBQCXB8Vy1Q1crwDEVEz2/9F79rCePG60RKN5AKE0mAE0XVxWA1d0mDKYoaT0zeAj5pl0RyEZx13kfJsCsScMvdYhQK2Cux3s7k3ayQ0HPx91/oCC6Pq0YweKHSkQz3gOVymWaj0lMZJRIT1xFu6jJBwxHc/eWoHgsuy/tJkuDehdJqvxEdQkbvYP/nBzH6ZN74jcIlQ0/mWQ+vvKApQpfFWFZ9NoqNTkEifvdFZnuA1umwjDtZuf0YcMQjsxQhv17Iezju+zM5PfaxEDG/KRD+nCJD49DSRVGiyezMQ2BXW4hcw1kOT9RDa54PeeUaC+k3zvZuwTjbk9E78GPLWtx4lc7qsY8FiTW77fDnFBmaAn8xEWOUqJpJvL6N8PFOjjWhrtlIJcqdi0GfDF3bXF7GRLM/xAWDZJzv+5VdxsjYQtbIjilMrLmt+Hviyg69tUMCL95uSUqpE1cQbvALHLlF7XpaiqoJX0hmDUbgvTuAE3legQ/jnQ9C9tVRDD2aSxrBj4WK06uFpktIlDObTZiP+l1sqKxiyYXHo1hqYchFcH9gpgVonQmG5JUv01EL7PawLB0ko2dg4FsncHMmqUvbhc4Z4cg6GypvGbqtY2fkoVtpqdnp+8U45JVFEwotjhuBp/MRv1suFiM50FSOKkdeq0Eies7/+XNHGNcmNOM3Cp6q3k9aMlqrGNbR1Kpfz88BJUYlN5n0aRSd6QgxFHEMt8dpgGE4GJZLGR7XdpTUB7ppipSBPvkQRp8uZNXoivCe6er7i/9Pqlt/Bi37BFAW1Vxi/DLWNQV44rSGQGS+H3gyLocxGbH9EHDCFzKijMg4P/B1PfBwNqfpo/8l8KxnXYULtczckyFsdDPE+7Y3tDTTCjTP+AtcoIflztaUoaqNM4oREHH+Qt/3LRHcmNSMYPDVMUpUTcZn7qJon48n/gXfkm/sPjDgCgULuPiGaASDlzsCRjQ6GRcGf2GMOk+LKd1jtErmrVpSsRfXUVTf+Y4LNUmTLWcl9KPu5QK9DC3xnh0oPdVpnPYJ8Zz/4ghGHs1rRlLCKo0qKh17dgURe7CbJh6EF8wlaJgoiCWJ4uWO06a01qK6Xah3APdmMnqIxSqcaCw7+7gYu9whwYT9eNoEdM3lPQmWokOB+kpsbRHIzX6puw7AjYl0Oqqs5qiuUpnJe8DhdoH4VOmJeEaroB9YXPLl17XNurbg42Y/eR18lvfuK8JlXVLUg8FX7SzGMvGXVxGp9XMssSdp2TVUiocj3oAvf8HgrHcPcLxDEohHbGdtGDfGXqeS+jpc3VF1JVLzY6OItFASS3xmDc53AQ1TvjxV1NPn8jSwzcsQOwVYMWCPYHRM1XRJcbWPosa12QfD2OkhT7T2+gMTRsA+Hw7lxaVoL8N6B8Uz5BZ927KRPa3FVFVZ/UGE4pnJW8ApnwmJ1kHfSBVKh9wRn/TQyh1GU3Ty2lR8XjjwnclUnqH+/wEWo9n0+DWUNgRk6Zak5UVnCR6NhiT9XWFk3zHgmE/mKGLzy18fwfW8wsirQc5foLqWpNz80xFscQaCkv2Jocj0S5ZJKcHgFahqFcjvMXjesRkjz+b1SvEWQct86OmEwL3hPEjKiWT6zUOgftInteH2hn0TRmh7FoJ+7/H2G2FfizJ7IMSSW/SeXcCDN6mkVUaC/HDhGv7A0zwN+zf3qkjKDWJJ7fV1/GeeDyzlYUWhkUpohxdD/qNDffxtO4BTneSp2jzXcboINybjSXXRGnc1vIqTfteK7UNfzaGhZQjGsYYRKSek4thlhJsp8rBcRvCfKcc2NxOiqXe3mOmwAXu95Ak6rBxoDuOK7jGKWeXuWlWzx7A13vLhr9eLA44zJZWUQxGnjGlsbhHJdUEm5DsEnHhXzDnFdAeaylDlMqGkjyy6txstrdKWuZ0R/txeueG7lQ46bOO5vNf5R1K+n7Tc1APgsJf8RUqQ3LtQXH/2LZNJklw7UNrgJ7b6KUb2HstraZWwzEGrSVEvzPY6qaE1Cd4ILxHzq03Jpl/eROmpLok2ocmWvRQbHEGODjKCdx9wykdesZ4W/DWluP7yrcLIlpADlGQQYKCZKkqZE4hLUuVuUJG8ZpcRaQ6SpysIUtenwDY3y3VWl6KqjZfIi08x9iWM5rW0sshIFHMnHpigi1pBdkxsuU/ysoKLhEhLzj0axrKbJm2yRdEC4z0AnLCvQaWT4lnyuHPPdgw9njVaWllk7aj3N3swZaOO8onZJsF9fadLiJi/tsnp28U46hUlE+qatWwGyqv9phSG/AS4OWUZxyvidXN/N4v921RSwL058EZRiRhLUjSRmbgB1HfJLHleQmAb3LIZxXIbwrg2nk5axqKTtfQxOEZaaKXyTYMAoaQuk3JYVLKx56NY72SJQ35Y/iA6iZ3wkuiswmheSyuLjHDp7swNn6w0U8PjcXCfFgyXGnIsSbNPgF1ujiGE2Yd2ntRC8u4DHkznLHNwYsUM/Zmzb9NNIaasU7B/fS8KpBzUTGryDsKHO3iOXkE4tuuUURhZs4wL3bCTJQKwTkENGf3dtwq+GDJilUnZHkkq41cRbvSL/ErBiQFHGJfGF5JxqxyUipg9cW9OtNJRocRGN+AwpWj4kZhfffPPjKfsoGSaWgEYiW/dbEiKiZhlblT022s3TFk5WpJlomxHo4YliZQTmbkHxdjdFhIps6H4kPcYcHc6E7OMHK9LMS8s9Dopq/Us+zdIKxJjSUplXt0GTnbKDGUmFB3y14dxfSKTtY5DS0+GKazihU196+CPyeQMgqs5VZ/G2kaKp82D5nnnJozqweAxy1jqWuHUTWdN6Wkb2doJZSVyTmiZ+edD2GgkWpsDzTOenXktrSwUDI6u92Havk1nZRW2fHd4Lm4VYkZTVC355l4xdns4kTYBge84XoSbrxNJy0iKKo77YLXvN0dt6pmF/ShBsVJqXHt5A6jtDPGEUNxbweBxzSqjoianT2BzrIX6eoASSGp6kRgltbGriNiNtukE0JLo3mxIiikLSUx3lwBfrfRX6eNRgJOsLiKComCfDGF7Cy9QHwrFSt5DwAMrOa9UPuKFhW6OBmX5DnsXd8Y/isSETWWn7wH7fCLzYdBSl63srZZWlgkGTwThZ18LNTY1dAkOIkgiaBBcfXUd4dN+nn0/jGDUebqU19LKKtaZlDt2O8Y7OXpU0/C6K5jkFVLCGhbjqYXnlxBxBESWeie0yHiWMfxwzmjhYplg8GsPTBrO4FSpjnEHnOZUhZyBx9TcwxEsuzmZpt6CEiTfUeDWlGahYHBcNqS4zVGn7ObbuP/Dk7PJlJ68C5xol/l8mG5/oyEpaknr3AdrqSP4OdxEp62f6FsEf1QmyJKUTk5cR0l9QDbo5l1VuPTMaGllGd9A4dQFExaOVtUyuAWhFEG5pOI54yk7Njn4gzjr25PX0so6iWTyw80BzNqdVNu7m68Oz2nBGHNBhETYpDIzD4HdVSV7jUeItkwwODKdwf0VdAanuQpdz5l+Oar0SIolKRmbvAkU4/KYmoxHLbIoqpw5dj8ZUqTdE/1L4I0LOk+OQ4Y2PoKHC5plgsHl0t21m567Y9w6AnCUIScKVkmk72AubRVLXdX56AHM9TopuoPPE+A+uyVm+1oQwpCXickykAiV5XmiaTntc+C95lX8roB5tXDihrEu+m4Ha+86+ONY4t8PBPn+ah+mrNtU3uDGic2dkwyvYPQegHjtIeaHFcMZnNJlmQTPRaEko5oHIV1OH8HGWBNH8eqZh4Mor+MaB4llT1vim4X2G4M/sAmhhCahmkblI+aQIhtomO3OcUbjca2CBSkRgM3eZo4FyGmbhL3Le1nEtQgWjZy5nl/jrQxhOXQswUEMqQKqNZCk3l16YNKwGDEENQ6vQSgp6UVUSyBceoj5YL7PyRzauDvx5IkM1A6mM3gYNkYaOQYhu/E2rh40XCMgvnR7+mKX3pjCnXrWwBfjRVwLYBndHMA0y+h0cfPID1coJUg84Tzykpl7b723kWMZcnZ9dbjP84pMNFiVMkc7pjM481D3FOxFzLxmpIJkc8ZQzzqDs40bDKyAP25akkgEYf0h4oWZbnayWjpGy8IaREQeSNLMIcWBJo6hyPIFds/vFZ4wMK/mj9ww1slcVlbAIhxEHiShclTOGfy7MaTIXNQwsAr+RFHjERkgXn2IecsKn89k1Db+A05yukoCCGtq+hDWRxs5ZiPbN/Bc3RmWpGqDpFL+HMw8TyxHTuNteCNYRdUFqQ8RcxcuHOtRy8APc/ZrAq4eWFDiPla0KpE6xn95TnOihKsDlpRs2P1zpJUVrXISm+mndqdKqApI6t2VB75anRw7Ut8i+GLFEo8qC+JL5oR3ZntZ0wqUGtmAo5SuPVaQx0dNT4Rgc6iBY07qGgc4K+h85RC0/CmYeZ5YlJzWOdi/QiKuDFi6v96vqdkZUHleM18cy8Lb4WUU89VwC4yoOQ3u+k7ITCn/Cl50Bg+7Nl6eVxODehtfAC4KuoReD5L1woXLXOkpDEw9U3BwY86b7AWeDeOPHLCzxfXV0L8OwZiqvAokq+a8mgZIeCNMJazhxNxF5UtgQckduWCsnWNpclomHbsXBVEsPj6HKN5d7sF3yzZzW25pZbtNN+eXWg4SNBT1wnINO4NT/7pJCCZlXSxDV1NhWB9u5BidusYATrN/1DDc/l04B0Lm1cR0whp2r+5PXbnoPkzZWN/qnOtZAp/X5YUNI88T81Pz4Iah0TaOIaruP3X/qftP3X/q/lP3n7r//F85HA==;" vertex="1" parent="1">
          <mxGeometry x="-1168" y="1393" width="193.15" height="104" as="geometry" />
        </mxCell>
        <mxCell id="4ZC3k0Vkt_Njtrgb3o6p-89" value="" style="shape=image;verticalLabelPosition=bottom;labelBackgroundColor=default;verticalAlign=top;aspect=fixed;imageAspect=0;editableCssRules=.*;image=data:image/svg+xml,PHN2ZyB4bWxucz0iaHR0cDovL3d3dy53My5vcmcvMjAwMC9zdmciIHZpZXdCb3g9Ii0wLjAwMDA2NDAwNjcwODI3MTMzNTgxIDAgODguMzIwMDYwNzI5OTgwNDcgMTI5LjkyOTk5MjY3NTc4MTI1IiB3aWR0aD0iODguMzIwMDYwNzI5OTgwNDciIGhlaWdodD0iMTI5LjkyOTk5MjY3NTc4MTI1Ij48ZGVmcz48bGluZWFyR3JhZGllbnQgZ3JhZGllbnRVbml0cz0idXNlclNwYWNlT25Vc2UiIHkyPSIyMC4wNCIgeTE9IjIwLjA0IiB4Mj0iNjkuNzciIHgxPSIyLjcxIiBpZD0iTmV3X0dyYWRpZW50X1N3YXRjaF8xIj48c3RvcCBzdG9wLWNvbG9yPSIjMTJiMjEyIiBvZmZzZXQ9IjAiLz48c3RvcCBzdG9wLWNvbG9yPSIjMGYwIiBvZmZzZXQ9IjEiLz48L2xpbmVhckdyYWRpZW50PjxzdHlsZT4uY2xzLTJ7ZmlsbDojOTgwMjAwfS5jbHMtM3tmaWxsOnJlZH08L3N0eWxlPjwvZGVmcz48dGl0bGU+TmV3Vm9ydGV4PC90aXRsZT48cGF0aCBkPSJNMzYuNTYgMzkuOTNDMjAuMzQgMzguMiA0IDI1Ljk0IDIuNzEgMGMyNS4xNyAwIDM4LjYzIDE0LjkgMzkuOTMgMzguNTEgNC43Ni0yOC4zMiAyNy4wNy0yNSAyNy4wNy0yNSAxLjA2IDE2LjA1LTEyLjEyIDI1Ljc4LTI3LjA3IDI2LjU5LTQuMi04Ljg1LTI5LjM2LTMwLjU2LTI5LjM2LTMwLjU2YS4wNy4wNyAwIDAwLS4xMS4wOHMyNC4yOCAyMS4xNSAyMy4zOSAzMC4zMSIgZmlsbD0idXJsKCNOZXdfR3JhZGllbnRfU3dhdGNoXzEpIi8+PHBhdGggY2xhc3M9ImNscy0yIiBkPSJNNDQuMTYgMTI5LjkzYy0xLjU3LS4wOS0xNi4yMi0uNjUtMTcuMTEtMTcuMTEtLjcyLTEwIDcuMTgtMTcuMzcgNy4xOC0yNy4wOEMzMi40NCA2MS41MyAwIDY0LjUzIDAgODUuNzRhMTkuOTQgMTkuOTQgMCAwMDUuODMgMTQuMTRMMzAgMTI0LjA2YTE5Ljk0IDE5Ljk0IDAgMDAxNC4xNCA1LjgzIi8+PHBhdGggY2xhc3M9ImNscy0zIiBkPSJNODguMzIgODUuNzVjLS4wOSAxLjU3LS42NSAxNi4yMi0xNy4xMSAxNy4xMS0xMCAuNzItMTcuMzgtNy4xOC0yNy4wOC03LjE4LTI0LjIxIDEuNzktMjEuMjEgMzQuMjIgMCAzNC4yMmExOS45NCAxOS45NCAwIDAwMTQuMTQtNS44M0w4Mi40NiA5OS45YTE5Ljk0IDE5Ljk0IDAgMDA1LjgzLTE0LjE0Ii8+PHBhdGggY2xhc3M9ImNscy0yIiBkPSJNNDQuMTYgNDEuNTljMS41Ny4wOSAxNi4yMi42NSAxNy4xMSAxNy4xMS43MiAxMC03LjE4IDE3LjM3LTcuMTggMjcuMDggMS43OSAyNC4yMSAzNC4yMiAyMS4yMSAzNC4yMiAwYTE5Ljk0IDE5Ljk0IDAgMDAtNS44My0xNC4xNEw1OC4zIDQ3LjQ1YTE5Ljk0IDE5Ljk0IDAgMDAtMTQuMTQtNS44MyIvPjxwYXRoIGNsYXNzPSJjbHMtMyIgZD0iTS4wOCA4NS43NWMuMDktMS41Ny42NS0xNi4yMiAxNy4xMS0xNy4xMSAxMC0uNzIgMTcuMzggNy4xOCAyNy4wOCA3LjE4IDI0LjIxLTEuODIgMjEuMjEtMzQuMjIgMC0zNC4yMmExOS45NCAxOS45NCAwIDAwLTE0LjE0IDUuODNMNS45NCA3MS42MUExOS45NCAxOS45NCAwIDAwLjExIDg1Ljc1Ii8+PC9zdmc+;" vertex="1" parent="1">
          <mxGeometry x="-1108.0007692307695" y="1554.996923076923" width="88" height="130" as="geometry" />
        </mxCell>
        <mxCell id="4ZC3k0Vkt_Njtrgb3o6p-92" value="" style="endArrow=classic;startArrow=classic;html=1;rounded=0;edgeStyle=orthogonalEdgeStyle;curved=1;flowAnimation=1;fontColor=#E4FDE1;strokeColor=#028090;fontStyle=1;opacity=80;strokeWidth=3;" edge="1" parent="1" source="4ZC3k0Vkt_Njtrgb3o6p-95" target="4ZC3k0Vkt_Njtrgb3o6p-12">
          <mxGeometry width="50" height="50" relative="1" as="geometry">
            <mxPoint x="-963" y="1494" as="sourcePoint" />
            <mxPoint x="-973" y="1196" as="targetPoint" />
            <Array as="points">
              <mxPoint x="-1088" y="1211" />
            </Array>
          </mxGeometry>
        </mxCell>
        <mxCell id="4ZC3k0Vkt_Njtrgb3o6p-93" value="Text" style="edgeLabel;html=1;align=center;verticalAlign=middle;resizable=0;points=[];" vertex="1" connectable="0" parent="4ZC3k0Vkt_Njtrgb3o6p-92">
          <mxGeometry x="0.4049" y="-2" relative="1" as="geometry">
            <mxPoint as="offset" />
          </mxGeometry>
        </mxCell>
        <mxCell id="4ZC3k0Vkt_Njtrgb3o6p-104" value="&lt;div&gt;&lt;font style=&quot;color: rgb(151, 208, 119);&quot;&gt;Pi-Hole DNS Server/Adblcker&lt;/font&gt;&lt;/div&gt;&lt;div&gt;&lt;font style=&quot;color: rgb(151, 208, 119);&quot;&gt;Host: pi-hole.machinesarehere.in&lt;/font&gt;&lt;/div&gt;&lt;div&gt;&lt;br&gt;&lt;/div&gt;&lt;div&gt;&lt;font style=&quot;color: rgb(151, 208, 119);&quot;&gt;VLAN 100&amp;nbsp;&lt;/font&gt;&lt;/div&gt;&lt;div&gt;&lt;font style=&quot;color: rgb(151, 208, 119);&quot;&gt;10.100.0.5/16&lt;/font&gt;&lt;/div&gt;" style="text;html=1;align=center;verticalAlign=middle;whiteSpace=wrap;rounded=0;" vertex="1" parent="1">
          <mxGeometry x="-1217" y="1721" width="267" height="135" as="geometry" />
        </mxCell>
      </root>
    </mxGraphModel>
  </diagram>
</mxfile>
